<?xml version="1.0" encoding="UTF-8"?>
<svg width="51.027mm" height="41.199mm" version="1.1" viewBox="0 0 180.8 145.98" xmlns="http://www.w3.org/2000/svg">
 <title>Mariposa New Creation</title>
 <g transform="translate(-20.28 -31.149)">
  <g transform="translate(2.7708 4.366)">
   <g transform="translate(24.536 33.955)">
    <g fill-rule="evenodd">
     <path d="m83.707 69.413s8.5533-57.701-51.126-65.213c-90.694-11.416 51.126 65.213 51.126 65.213z" fill="#fff" stroke="#fff" stroke-width="1.0265px"/>
     <path d="m83.81 67.753c-14.443-7.1678-35.743-5.9541-52.796-0.96628 2.0318 3.2466 0.04479 6.6422-1.2608 9.0448 3.2776 8.7491 2.9708 9.7937 1.966 12.234 8.8443 3.3901 7.2871 3.5789 7.7387 7.4238 4.846 2.4135 10.487 3.6397 9.5712 9.2932 4.0971-0.75089 8.1082-0.68412 11.766 2.7432 9.5166-0.19134 18.327-5.3858 23.015-39.772z" fill="#fff" stroke="#fff" stroke-width="1.049px"/>
     <path d="m82.548 68.564c-13.769-6.833-34.074-5.676-50.33-0.92115 1.9369 3.095 0.0427 6.3319-1.2019 8.6223 3.1245 8.3404 2.832 9.3362 1.8742 11.662 8.4312 3.2317 6.9467 3.4117 7.3772 7.0771 4.6197 2.3008 9.9973 3.4697 9.1241 8.8592 3.9057-0.71581 7.7295-0.65216 11.217 2.6151 9.0721-0.18241 17.471-5.1343 21.94-37.915z" stroke="#000" stroke-width="1px"/>
    </g>
    <g fill="#00f" fill-rule="evenodd" stroke="#00f">
     <path d="m54.166 93.322c-0.71216-1.3064-2.0696-1.4092-3.5417-0.75148-1.8365 1.2976 1.0621 3.2653 1.0621 3.2653 1.9888 1.3829 3.5725 0.24712 2.4796-2.5138z" stroke-width=".62236"/>
     <path d="m60.508 98.151c-0.46708-0.80479-1.3174-0.84629-2.2267-0.41046-1.1264 0.84198 0.71866 2.0235 0.71866 2.0235 1.2664 0.83122 2.2375 0.0947 1.508-1.6131z" stroke-width=".38921"/>
     <path d="m46.314 86.535c-0.26845-1.3966-1.4745-1.885-3.0061-1.7142-2.0495 0.64737 0.0173 3.2819 0.0173 3.2819 1.4085 1.8375 3.1808 1.264 2.9887-1.5676z" stroke-width=".59485"/>
     <path d="m41.261 79.511c0.23114-1.3855-0.71798-2.252-2.1949-2.62-2.1203-0.10452-1.1113 3.0451-1.1113 3.0451 0.67316 2.1854 2.5114 2.2631 3.3062-0.42506z" stroke-width=".58753"/>
     <path d="m41.487 71.112c0.59873-1.2655-0.0754-2.3547-1.3914-3.1095-2.0044-0.67731-1.8943 2.6172-1.8943 2.6172 0.0506 2.2786 1.7919 2.8534 3.2857 0.49234z" stroke-width=".58558"/>
    </g>
    <path d="m63.04 95.035c-0.51851-0.39035-1.0762-0.18625-1.5421 0.34053-0.49524 0.84665 1.0109 1.1052 1.0109 1.1052 1.0393 0.1904 1.4634-0.54637 0.53121-1.4457z" fill="#ff0" fill-rule="evenodd" stroke="#ff0" stroke-width=".27147"/>
    <path d="m68.994 80.173c-0.7253-0.68832-1.6146-0.4736-2.4201 0.25111-0.90635 1.2092 1.3538 1.8687 1.3538 1.8687 1.5575 0.47351 2.3356-0.57998 1.0664-2.1198z" fill="#f06" fill-rule="evenodd" stroke="#f06" stroke-width=".41824"/>
    <g fill="#ff0" fill-rule="evenodd" stroke="#ff0">
     <path d="m57.816 89.406c-0.70498-0.94565-1.7818-0.8745-2.8635-0.19374-1.2962 1.2237 1.1986 2.4438 1.1986 2.4438 1.7154 0.86293 2.8313-0.20552 1.6649-2.2501z" stroke-width=".49336"/>
     <path d="m50.733 83.705c-0.14562-0.75756-0.79985-1.0225-1.6306-0.92986-1.1117 0.35115 9e-3 1.7802 9e-3 1.7802 0.76405 0.99675 1.7254 0.68565 1.6212-0.85036z" stroke-width=".32267"/>
     <path d="m47.168 77.15c0.16109-0.96565-0.50041-1.5696-1.5298-1.8261-1.4778-0.0728-0.77451 2.1223-0.77451 2.1223 0.46917 1.5232 1.7503 1.5773 2.3043-0.29625z" stroke-width=".40949"/>
     <path d="m47.137 70.244c0.33991-0.71845-0.0428-1.3368-0.7899-1.7653-1.138-0.38453-1.0754 1.4858-1.0754 1.4858 0.0287 1.2936 1.0173 1.62 1.8653 0.27951z" stroke-width=".33245"/>
    </g>
    <g fill-rule="evenodd">
     <g>
      <path d="m77.494 73.095s-5.3372 8.5275-6.8975 12.572c-1.5604 4.0445-0.92853 7.1413 2.6384 4.5133 1.0183-0.75022 2.2047-2.4174 3.5863-8.6317 0.83333-3.7481 0.67277-8.4536 0.67277-8.4536z" fill="#800080" stroke="#800080" stroke-width="2"/>
      <path d="m75.431 70.234s-3.5765 3.275-4.8217 4.9532c-1.2452 1.6782-1.3501 3.1981 0.6451 2.4362 0.56958-0.21752 1.3352-0.83941 2.7765-3.5486 0.86932-1.634 1.4001-3.8407 1.4001-3.8407z" fill="#800080" stroke="#800080" stroke-width=".9641"/>
      <path d="m70.019 67.276c-3.7288-0.41003-10.413 1.1855-10.413 1.1855-1.9738 0.45903-6.1664 2.024-9.1632-1.2724 0 0 2.1698-0.96237 5.1706-1.667 4.282-1.0054 9.5254 0.31756 14.406 1.7539z" fill="#37c871" stroke="#37c871" stroke-miterlimit="12" stroke-width="1.387"/>
      <path d="m69.527 70.71c-2.8815 2.1023-6.764 8.3435-6.764 8.3435-1.3852 2.2434-2.1382 6.811-9.0241 3.2658 0 0 0.1705-2.9414 1.3068-5.9792 1.6215-4.3348 9.9941-5.4419 14.481-5.6301z" fill="#37c871" stroke="#37c871" stroke-miterlimit="11" stroke-width="2"/>
      <path d="m66.784 83.961c-0.7253-0.68833-1.6146-0.47361-2.4201 0.2511-0.90635 1.2092 1.3538 1.8687 1.3538 1.8687 1.5575 0.47351 2.3356-0.57997 1.0664-2.1198z" fill="#f06" stroke="#f06" stroke-width=".41824"/>
      <path d="m62.863 91.545s5.0655-1.7963 1.5443-3.5193c-3.8485-1.8832-1.5443 3.5193-1.5443 3.5193z" fill="#f06" stroke="#f06" stroke-width=".48365"/>
     </g>
     <path d="m82.66 68.559s8.3322-56.209-49.804-63.527c-88.349-11.121 49.804 63.527 49.804 63.527z" stroke="#000" stroke-width="1px"/>
     <path d="m49.995 45.202s-66.804-44.546-30.924-36.831c22.42 4.8206 30.924 36.831 30.924 36.831z" fill="#d42aff" stroke="#d42aff" stroke-width="1.7679"/>
    </g>
    <g fill="#e5ff80" fill-rule="evenodd" stroke="#e5ff80">
     <path d="m27.734 8.4004c3.5255 1.2817 8.8144 5.6693 8.8144 5.6693 1.5672 1.2848 4.635 4.5428 8.7808 2.9121 0 0-1.5203-1.8229-3.8998-3.7822-3.3956-2.7959-8.6833-3.9287-13.695-4.7992z" stroke-miterlimit="12" stroke-width="1.387"/>
     <path d="m42.944 10.723c3.3234 1.7399 7.9806 6.793 7.9806 6.793 1.3821 1.4821 3.9885 5.1198 8.3147 4.0559 0 0-1.2639-2.0092-3.3612-4.268-2.9928-3.2233-8.0826-5.0504-12.934-6.5809z" stroke-miterlimit="12" stroke-width="1.387"/>
     <path d="m42.702 21.201c2.7029 3.0844 5.8712 9.8613 5.8712 9.8613 1.3852 2.2434 6.156 1.7217 13.042-1.8235 0 0-8.4996-2.6876-10.682-5.8899-4.1011-6.0181-3.8334-1.5133-8.2313-2.1479z" stroke-miterlimit="11" stroke-width="2"/>
    </g>
    <path d="m52.885 37.808s5.2106 21.605 13.81 7.8642c9.3992-15.019-13.81-7.8642-13.81-7.8642z" fill="#00f" fill-rule="evenodd" stroke="#00f" stroke-width="2"/>
    <g fill="#f06" fill-rule="evenodd" stroke="#f06">
     <path d="m77.326 61.359s1.7663-5.076-1.7802-3.406c-3.8763 1.8252 1.7802 3.406 1.7802 3.406z" stroke-width=".48365"/>
     <g stroke-width=".41824">
      <path d="m65.177 23.961c-0.7253-0.68833-1.6146-0.47361-2.4201 0.2511-0.90635 1.2092 1.3538 1.8687 1.3538 1.8687 1.5575 0.47351 2.3356-0.57997 1.0664-2.1198z"/>
      <path d="m75.434 41.414c0.7169-0.69706 0.53808-1.5943-0.15368-2.4282-1.1718-0.95419-1.9216 1.2776-1.9216 1.2776-0.5357 1.5372 0.48568 2.357 2.0753 1.1507z"/>
      <path d="m72.135 32.517c-0.0967-0.99523-0.9092-1.4159-1.9925-1.3964-1.477 0.31936-0.20217 2.2987-0.20217 2.2987 0.86609 1.3784 2.1442 1.0926 2.1947-0.90229z"/>
     </g>
    </g>
    <rect x="79.811" y="22.531" width="6.8059" height="71.806" fill="#fff" stroke="#000" stroke-miterlimit="12" stroke-width="1.724"/>
    <g transform="matrix(-1 0 0 1 166.75 0)">
     <g fill-rule="evenodd">
      <path d="m83.707 69.413s8.5533-57.701-51.126-65.213c-90.694-11.416 51.126 65.213 51.126 65.213z" fill="#fff" stroke="#fff" stroke-width="1.0265px"/>
      <path d="m83.81 67.753c-14.443-7.1678-35.743-5.9541-52.796-0.96628 2.0318 3.2466 0.04479 6.6422-1.2608 9.0448 3.2776 8.7491 2.9708 9.7937 1.966 12.234 8.8443 3.3901 7.2871 3.5789 7.7387 7.4238 4.846 2.4135 10.487 3.6397 9.5712 9.2932 4.0971-0.75089 8.1082-0.68412 11.766 2.7432 9.5166-0.19134 18.327-5.3858 23.015-39.772z" fill="#fff" stroke="#fff" stroke-width="1.049px"/>
      <path d="m82.548 68.564c-13.769-6.833-34.074-5.676-50.33-0.92115 1.9369 3.095 0.0427 6.3319-1.2019 8.6223 3.1245 8.3404 2.832 9.3362 1.8742 11.662 8.4312 3.2317 6.9467 3.4117 7.3772 7.0771 4.6197 2.3008 9.9973 3.4697 9.1241 8.8592 3.9057-0.71581 7.7295-0.65216 11.217 2.6151 9.0721-0.18241 17.471-5.1343 21.94-37.915z" stroke="#000" stroke-width="1px"/>
     </g>
     <g fill="#00f" fill-rule="evenodd" stroke="#00f">
      <path d="m54.166 93.322c-0.71216-1.3064-2.0696-1.4092-3.5417-0.75148-1.8365 1.2976 1.0621 3.2653 1.0621 3.2653 1.9888 1.3829 3.5725 0.24712 2.4796-2.5138z" stroke-width=".62236"/>
      <path d="m60.508 98.151c-0.46708-0.80479-1.3174-0.84629-2.2267-0.41046-1.1264 0.84198 0.71866 2.0235 0.71866 2.0235 1.2664 0.83122 2.2375 0.0947 1.508-1.6131z" stroke-width=".38921"/>
      <path d="m46.314 86.535c-0.26845-1.3966-1.4745-1.885-3.0061-1.7142-2.0495 0.64737 0.0173 3.2819 0.0173 3.2819 1.4085 1.8375 3.1808 1.264 2.9887-1.5676z" stroke-width=".59485"/>
      <path d="m41.261 79.511c0.23114-1.3855-0.71798-2.252-2.1949-2.62-2.1203-0.10452-1.1113 3.0451-1.1113 3.0451 0.67316 2.1854 2.5114 2.2631 3.3062-0.42506z" stroke-width=".58753"/>
      <path d="m41.487 71.112c0.59873-1.2655-0.0754-2.3547-1.3914-3.1095-2.0044-0.67731-1.8943 2.6172-1.8943 2.6172 0.0506 2.2786 1.7919 2.8534 3.2857 0.49234z" stroke-width=".58558"/>
     </g>
     <path d="m63.04 95.035c-0.51851-0.39035-1.0762-0.18625-1.5421 0.34053-0.49524 0.84665 1.0109 1.1052 1.0109 1.1052 1.0393 0.1904 1.4634-0.54637 0.53121-1.4457z" fill="#ff0" fill-rule="evenodd" stroke="#ff0" stroke-width=".27147"/>
     <path d="m68.994 80.173c-0.7253-0.68832-1.6146-0.4736-2.4201 0.25111-0.90635 1.2092 1.3538 1.8687 1.3538 1.8687 1.5575 0.47351 2.3356-0.57998 1.0664-2.1198z" fill="#f06" fill-rule="evenodd" stroke="#f06" stroke-width=".41824"/>
     <g fill="#ff0" fill-rule="evenodd" stroke="#ff0">
      <path d="m57.816 89.406c-0.70498-0.94565-1.7818-0.8745-2.8635-0.19374-1.2962 1.2237 1.1986 2.4438 1.1986 2.4438 1.7154 0.86293 2.8313-0.20552 1.6649-2.2501z" stroke-width=".49336"/>
      <path d="m50.733 83.705c-0.14562-0.75756-0.79985-1.0225-1.6306-0.92986-1.1117 0.35115 9e-3 1.7802 9e-3 1.7802 0.76405 0.99675 1.7254 0.68565 1.6212-0.85036z" stroke-width=".32267"/>
      <path d="m47.168 77.15c0.16109-0.96565-0.50041-1.5696-1.5298-1.8261-1.4778-0.0728-0.77451 2.1223-0.77451 2.1223 0.46917 1.5232 1.7503 1.5773 2.3043-0.29625z" stroke-width=".40949"/>
      <path d="m47.137 70.244c0.33991-0.71845-0.0428-1.3368-0.7899-1.7653-1.138-0.38453-1.0754 1.4858-1.0754 1.4858 0.0287 1.2936 1.0173 1.62 1.8653 0.27951z" stroke-width=".33245"/>
     </g>
     <g fill-rule="evenodd">
      <g>
       <path d="m77.494 73.095s-5.3372 8.5275-6.8975 12.572c-1.5604 4.0445-0.92853 7.1413 2.6384 4.5133 1.0183-0.75022 2.2047-2.4174 3.5863-8.6317 0.83333-3.7481 0.67277-8.4536 0.67277-8.4536z" fill="#800080" stroke="#800080" stroke-width="2"/>
       <path d="m75.431 70.234s-3.5765 3.275-4.8217 4.9532c-1.2452 1.6782-1.3501 3.1981 0.6451 2.4362 0.56958-0.21752 1.3352-0.83941 2.7765-3.5486 0.86932-1.634 1.4001-3.8407 1.4001-3.8407z" fill="#800080" stroke="#800080" stroke-width=".9641"/>
       <path d="m70.019 67.276c-3.7288-0.41003-10.413 1.1855-10.413 1.1855-1.9738 0.45903-6.1664 2.024-9.1632-1.2724 0 0 2.1698-0.96237 5.1706-1.667 4.282-1.0054 9.5254 0.31756 14.406 1.7539z" fill="#37c871" stroke="#37c871" stroke-miterlimit="12" stroke-width="1.387"/>
       <path d="m69.527 70.71c-2.8815 2.1023-6.764 8.3435-6.764 8.3435-1.3852 2.2434-2.1382 6.811-9.0241 3.2658 0 0 0.1705-2.9414 1.3068-5.9792 1.6215-4.3348 9.9941-5.4419 14.481-5.6301z" fill="#37c871" stroke="#37c871" stroke-miterlimit="11" stroke-width="2"/>
       <path d="m66.784 83.961c-0.7253-0.68833-1.6146-0.47361-2.4201 0.2511-0.90635 1.2092 1.3538 1.8687 1.3538 1.8687 1.5575 0.47351 2.3356-0.57997 1.0664-2.1198z" fill="#f06" stroke="#f06" stroke-width=".41824"/>
       <path d="m62.863 91.545s5.0655-1.7963 1.5443-3.5193c-3.8485-1.8832-1.5443 3.5193-1.5443 3.5193z" fill="#f06" stroke="#f06" stroke-width=".48365"/>
      </g>
      <path d="m82.66 68.559s8.3322-56.209-49.804-63.527c-88.349-11.121 49.804 63.527 49.804 63.527z" stroke="#000" stroke-width="1px"/>
      <path d="m49.995 45.202s-66.804-44.546-30.924-36.831c22.42 4.8206 30.924 36.831 30.924 36.831z" fill="#d42aff" stroke="#d42aff" stroke-width="1.7679"/>
     </g>
     <g fill="#e5ff80" fill-rule="evenodd" stroke="#e5ff80">
      <path d="m27.734 8.4004c3.5255 1.2817 8.8144 5.6693 8.8144 5.6693 1.5672 1.2848 4.635 4.5428 8.7808 2.9121 0 0-1.5203-1.8229-3.8998-3.7822-3.3956-2.7959-8.6833-3.9287-13.695-4.7992z" stroke-miterlimit="12" stroke-width="1.387"/>
      <path d="m42.944 10.723c3.3234 1.7399 7.9806 6.793 7.9806 6.793 1.3821 1.4821 3.9885 5.1198 8.3147 4.0559 0 0-1.2639-2.0092-3.3612-4.268-2.9928-3.2233-8.0826-5.0504-12.934-6.5809z" stroke-miterlimit="12" stroke-width="1.387"/>
      <path d="m42.702 21.201c2.7029 3.0844 5.8712 9.8613 5.8712 9.8613 1.3852 2.2434 6.156 1.7217 13.042-1.8235 0 0-8.4996-2.6876-10.682-5.8899-4.1011-6.0181-3.8334-1.5133-8.2313-2.1479z" stroke-miterlimit="11" stroke-width="2"/>
     </g>
     <path d="m52.885 37.808s5.2106 21.605 13.81 7.8642c9.3992-15.019-13.81-7.8642-13.81-7.8642z" fill="#00f" fill-rule="evenodd" stroke="#00f" stroke-width="2"/>
     <g fill="#f06" fill-rule="evenodd" stroke="#f06">
      <path d="m77.326 61.359s1.7663-5.076-1.7802-3.406c-3.8763 1.8252 1.7802 3.406 1.7802 3.406z" stroke-width=".48365"/>
      <g stroke-width=".41824">
       <path d="m65.177 23.961c-0.7253-0.68833-1.6146-0.47361-2.4201 0.2511-0.90635 1.2092 1.3538 1.8687 1.3538 1.8687 1.5575 0.47351 2.3356-0.57997 1.0664-2.1198z"/>
       <path d="m75.434 41.414c0.7169-0.69706 0.53808-1.5943-0.15368-2.4282-1.1718-0.95419-1.9216 1.2776-1.9216 1.2776-0.5357 1.5372 0.48568 2.357 2.0753 1.1507z"/>
       <path d="m72.135 32.517c-0.0967-0.99523-0.9092-1.4159-1.9925-1.3964-1.477 0.31936-0.20217 2.2987-0.20217 2.2987 0.86609 1.3784 2.1442 1.0926 2.1947-0.90229z"/>
      </g>
     </g>
     <rect x="79.811" y="22.531" width="6.8059" height="71.806" fill="#fff" stroke="#000" stroke-miterlimit="12" stroke-width="1.724"/>
    </g>
    <g transform="translate(-287.37 -13.152)" fill="#fff" stroke="#fff" stroke-miterlimit="12">
     <rect x="367.69" y="36.088" width="5.7671" height="70.854" stroke-width="1.2475"/>
     <rect transform="rotate(90)" x="60.598" y="-383.88" width="5.0305" height="27.166" stroke-width=".72145"/>
    </g>
   </g>
   <g transform="matrix(.9375 0 0 .9375 44.633 1.3393)" fill="#fff" style="font-feature-settings:normal;font-variant-caps:normal;font-variant-ligatures:normal;font-variant-numeric:normal" aria-label="ANC Studios">
    <path d="m35.018 172.45h-1.4375l-0.57292-3.625h-3.2396l-0.57292 3.625h-1.3958v-0.0417l2.9062-16.302h1.4271zm-2.1979-4.9062-1.4271-8.8333-1.4375 8.8333z"/>
    <path d="m43.705 172.45h-1l-4.3542-11.99v11.99h-1.3646v-16.302h1.0833l4.2708 11.781v-11.781h1.3646z"/>
    <path d="m52.851 171.29q0 0.51042-0.33333 0.83333-0.33333 0.32292-0.84375 0.32292h-4.1979q-0.51042 0-0.83333-0.32292-0.32292-0.32291-0.32292-0.83333v-13.99q0-0.51042 0.32292-0.83334 0.32292-0.32291 0.83333-0.32291h4.1979q0.51042 0 0.84375 0.32291 0.33333 0.32292 0.33333 0.83334v3.7917h-1.4583v-3.6667h-3.625v13.74h3.625v-4.0104h1.4583z"/>
    <path d="m65.924 171.29q0 0.51042-0.32292 0.83333-0.3125 0.32292-0.82292 0.32292h-4.1042q-0.51042 0-0.84375-0.32292-0.32292-0.32291-0.32292-0.83333v-4.1354h1.4479v4.0104h3.5208v-3.8854l-4.5-5.4375q-0.46875-0.5625-0.46875-1.2396v-3.3021q0-0.51042 0.32292-0.83334 0.33333-0.32291 0.84375-0.32291h4.1042q0.51042 0 0.82292 0.32291 0.32292 0.32292 0.32292 0.83334v3.7917h-1.4479v-3.6667h-3.5208v3.4375l4.5208 5.4375q0.44792 0.54166 0.44792 1.2188z"/>
    <path d="m71.965 172.45h-1.9688q-1.1667 0-1.1667-1.1771v-7.7396h-1.2188v-1.2188h1.2188v-3.1562h1.3646v3.1562h1.7708v1.2188h-1.7708v7.6979h1.7708z"/>
    <path d="m79.538 172.45h-1.3646v-0.28125q-0.83333 0.11458-1.6562 0.21875-1 0.125-1.6562 0.125-1.125 0-1.125-1.125v-9.0729h1.3646v8.8958l3.0729-0.0833v-8.8125h1.3646z"/>
    <path d="m87.58 172.45h-1.375v-0.28125q-2.2292 0.34375-2.4688 0.34375-0.88542 0-1.4271-0.59375-0.54167-0.60417-0.54167-1.5v-5.9271q0-0.9375 0.61458-1.5521 0.61458-0.625 1.5417-0.625h2.2812v-6.1667h1.375zm-1.375-1.2604v-7.6562h-1.9167q-1.1458 0-1.1458 1.1771v5.4167q0 1.1667 1.1458 1.1667 0.27083 0 1.9167-0.10417z"/>
    <path d="m91.33 160.1h-1.4062v-1.75h1.4062zm-0.02083 12.354h-1.3646v-10.135h1.3646z"/>
    <path d="m99.476 171.27q0 1.1771-1.1771 1.1771h-3.4792q-1.1667 0-1.1667-1.1771v-7.7812q0-1.1771 1.1667-1.1771h3.4792q1.1771 0 1.1771 1.1771zm-1.3854-0.0417v-7.6979h-3.0521v7.6979z"/>
    <path d="m107.19 171.27q0 1.1771-1.1771 1.1771h-3.1771q-1.1771 0-1.1771-1.1771v-2.3021h1.3646v2.2812h2.8021v-2.0208l-3.625-2.9688q-0.52083-0.41667-0.52083-1.0833v-1.6875q0-1.1771 1.1771-1.1771h3.1354q1.1771 0 1.1771 1.1771v2.0208h-1.3438v-2h-2.8021v1.7708l3.6562 2.9688q0.51041 0.40625 0.51041 1.1042z"/>
   </g>
  </g>
 </g>
</svg>
