<svg width="12.432mm" height="11.305mm" version="1.1" viewBox="0 0 12.432 11.305" xmlns="http://www.w3.org/2000/svg">
 <g transform="translate(-61.82 -144.69)">
  <path d="m66.378 145.82c0.71615-0.65335 1.3053-1.1966 2.0885-1.1165 0.77962 0.0801 1.6228 0.55809 1.6228 1.7385 0 1.1222-1.27 2.9468-3.6971 3.1785v0.54928c0.42333-0.0268 0.95602-0.0773 1.3864-0.17251 1.2559-0.24412 2.1167-1.1903 3.2844-1.1903 1.1677 0 1.5946 0.41486 2.159 0.90346 0.56091 0.4893 1.0301 0.65476 1.0301 0.65476s-0.46919 0.16333-1.0301 0.65263c-0.56444 0.48931-0.99132 0.90347-2.159 0.90347-1.1677 0-2.0285-0.94615-3.2844-1.1906-0.43039-0.0949-0.96308-0.14499-1.3864-0.1718v0.51717c2.4271 0.23143 3.6971 2.0567 3.6971 3.1782 0 1.18-0.84315 1.6588-1.6228 1.7381-0.78317 0.0797-1.3723-0.4625-2.0885-1.1162-0.71967-0.65335-1.2277-0.47837-1.3088 0.36653-0.5574-0.9405 0.14462-1.7053 0.95602-1.7053 0.81492 0 1.2771 0.70168 1.7216 0.76483 0.44802 0.0639 1.0195-0.23883 0.94192-0.87666-0.15171-1.2612-1.4711-1.7392-2.2966-1.8715v0.30903c0 0.26423-0.17288 0.47837-0.38807 0.47837-0.21873 0-0.39158-0.21414-0.39158-0.47837v-0.35101c-0.96308 0.0367-1.5663 0.36054-1.5946 0.79728-0.0317 0.49424 0.44805 0.57396 0.4939 0.2547 0.58915 0.30374 0.33515 1.053-0.15875 1.1642-0.508 0.11465-1.0513-0.33479-1.0689-0.92463-0.014-0.5581 0.13051-1.5995 2.3283-1.7381v-0.53975c-0.14465-0.0116-0.762-0.0402-1.6263 0.24765-0.98776 0.32985-1.3158 0.20743-2.166-0.40816 0.85018-0.61807 1.1783-0.73943 2.166-0.41064 0.86432 0.28822 1.4817 0.26035 1.6263 0.24801v-0.57115c-2.1978-0.13864-2.3424-1.1811-2.3283-1.7385 0.0177-0.5902 0.56091-1.0396 1.0689-0.92463 0.4939 0.11148 0.7479 0.86113 0.15875 1.1631-0.0458-0.31821-0.52565-0.23848-0.4939 0.25541 0.0282 0.43709 0.63149 0.76165 1.5946 0.79728v-0.41381c0-0.26494 0.17285-0.47943 0.39158-0.47943 0.21519 0 0.38807 0.21449 0.38807 0.47943v0.37183c0.8255-0.133 2.1449-0.61031 2.2966-1.8715 0.0776-0.63782-0.4939-0.93945-0.94192-0.87736-0.4445 0.0649-0.90664 0.76659-1.7216 0.76659-0.8114 0-1.5134-0.76659-0.95602-1.7071 0.0811 0.8449 0.58912 1.0213 1.3088 0.36724" fill="#9f915a"/>
 </g>
</svg>
