<?xml version="1.0" encoding="UTF-8" standalone="no"?>
<svg
   xmlns:dc="http://purl.org/dc/elements/1.1/"
   xmlns:cc="http://creativecommons.org/ns#"
   xmlns:rdf="http://www.w3.org/1999/02/22-rdf-syntax-ns#"
   xmlns:svg="http://www.w3.org/2000/svg"
   xmlns="http://www.w3.org/2000/svg"
   xmlns:sodipodi="http://sodipodi.sourceforge.net/DTD/sodipodi-0.dtd"
   xmlns:inkscape="http://www.inkscape.org/namespaces/inkscape"
   width="242.41226mm"
   height="65.275261mm"
   version="1.1"
   viewBox="0 0 242.41228 65.275266"
   id="svg96"
   sodipodi:docname="gologo.svg"
   inkscape:version="0.92.3 (2405546, 2018-03-11)">
  <metadata
     id="metadata102">
    <rdf:RDF>
      <cc:Work
         rdf:about="">
        <dc:format>image/svg+xml</dc:format>
        <dc:type
           rdf:resource="http://purl.org/dc/dcmitype/StillImage" />
        <dc:title />
      </cc:Work>
    </rdf:RDF>
  </metadata>
  <defs
     id="defs100">
    <clipPath
       clipPathUnits="userSpaceOnUse"
       id="clipPath902">
      <rect
         style="opacity:1;fill:#000000;fill-opacity:1;stroke:#000000;stroke-width:1.32291687;stroke-linecap:round;stroke-miterlimit:4;stroke-dasharray:none"
         id="rect904"
         width="251.35042"
         height="82.88063"
         x="-290.6239"
         y="-8.8925562"
         transform="scale(1,-1)" />
    </clipPath>
  </defs>
  <sodipodi:namedview
     pagecolor="#ffffff"
     bordercolor="#666666"
     borderopacity="1"
     objecttolerance="10"
     gridtolerance="10"
     guidetolerance="10"
     inkscape:pageopacity="0"
     inkscape:pageshadow="2"
     inkscape:window-width="1920"
     inkscape:window-height="1017"
     id="namedview98"
     showgrid="false"
     fit-margin-top="0"
     fit-margin-left="0"
     fit-margin-right="0"
     fit-margin-bottom="0"
     inkscape:zoom="0.48842841"
     inkscape:cx="-191.44163"
     inkscape:cy="71.933882"
     inkscape:window-x="-8"
     inkscape:window-y="-8"
     inkscape:window-maximized="1"
     inkscape:current-layer="svg96" />
  <path
     inkscape:connector-curvature="0"
     id="path1111"
     style="font-style:normal;font-weight:normal;font-size:medium;line-height:1.25;font-family:sans-serif;letter-spacing:0px;word-spacing:0px;fill:#e8a356;fill-opacity:1;stroke:none;stroke-width:0.26458335"
     d="m 42.630446,54.708741 h 1.007691 l 1.808675,4.857587 1.808675,-4.857587 h 1.007691 l -2.17041,5.787761 h -1.291911 z" />
  <path
     inkscape:connector-curvature="0"
     id="path1113"
     style="font-style:normal;font-weight:normal;font-size:medium;line-height:1.25;font-family:sans-serif;letter-spacing:0px;word-spacing:0px;fill:#e8a356;fill-opacity:1;stroke:none;stroke-width:0.26458335"
     d="m 55.575393,57.58712 q -1.152382,0 -1.5968,0.263549 -0.444418,0.263551 -0.444418,0.89917 0,0.506429 0.330729,0.806154 0.335896,0.294555 0.909505,0.294555 0.790649,0 1.266074,-0.558106 0.480589,-0.563272 0.480589,-1.493449 V 57.58712 Z m 1.896526,-0.39274 v 3.302122 h -0.950847 v -0.878498 q -0.325562,0.5271 -0.811318,0.780314 -0.48576,0.248047 -1.188559,0.248047 -0.888836,0 -1.415934,-0.496094 -0.521933,-0.501261 -0.521933,-1.338419 0,-0.976685 0.651124,-1.472779 0.656291,-0.496094 1.953369,-0.496094 h 1.333251 v -0.09302 q 0,-0.656291 -0.434081,-1.012859 -0.428916,-0.361733 -1.209228,-0.361733 -0.496093,0 -0.966351,0.118853 -0.470254,0.118856 -0.904338,0.356569 V 54.97229 q 0.521933,-0.201539 1.01286,-0.299723 0.490926,-0.103354 0.956014,-0.103354 1.255736,0 1.875853,0.651124 0.620118,0.651123 0.620118,1.97404 z" />
  <path
     inkscape:connector-curvature="0"
     id="path1115"
     style="font-style:normal;font-weight:normal;font-size:medium;line-height:1.25;font-family:sans-serif;letter-spacing:0px;word-spacing:0px;fill:#e8a356;fill-opacity:1;stroke:none;stroke-width:0.26458335"
     d="m 66.970048,54.930952 v 0.888833 q -0.403076,-0.222208 -0.811321,-0.330729 -0.403074,-0.113686 -0.816485,-0.113686 -0.92501,0 -1.436606,0.58911 -0.511598,0.583944 -0.511598,1.643312 0,1.059365 0.511598,1.648476 0.511596,0.583946 1.436606,0.583946 0.413411,0 0.816485,-0.108522 0.408245,-0.113688 0.811321,-0.335896 v 0.878499 q -0.397909,0.186036 -0.826823,0.279053 -0.423746,0.09302 -0.904338,0.09302 -1.307414,0 -2.077392,-0.821656 -0.76998,-0.821655 -0.76998,-2.216917 0,-1.415937 0.775148,-2.227255 0.780314,-0.811321 2.134237,-0.811321 0.439249,0 0.857827,0.09302 0.418579,0.08785 0.811321,0.268719 z" />
  <path
     inkscape:connector-curvature="0"
     id="path1117"
     style="font-style:normal;font-weight:normal;font-size:medium;line-height:1.25;font-family:sans-serif;letter-spacing:0px;word-spacing:0px;fill:#e8a356;fill-opacity:1;stroke:none;stroke-width:0.26458335"
     d="m 74.633663,57.58712 q -1.152385,0 -1.5968,0.263549 -0.444418,0.263551 -0.444418,0.89917 0,0.506429 0.330729,0.806154 0.335896,0.294555 0.909505,0.294555 0.790649,0 1.266074,-0.558106 0.480589,-0.563272 0.480589,-1.493449 V 57.58712 Z m 1.896526,-0.39274 v 3.302122 h -0.950847 v -0.878498 q -0.325562,0.5271 -0.811318,0.780314 -0.485759,0.248047 -1.188559,0.248047 -0.888836,0 -1.415934,-0.496094 -0.521933,-0.501261 -0.521933,-1.338419 0,-0.976685 0.651124,-1.472779 0.656291,-0.496094 1.953369,-0.496094 h 1.333251 v -0.09302 q 0,-0.656291 -0.434081,-1.012859 -0.428916,-0.361733 -1.20923,-0.361733 -0.496094,0 -0.966349,0.118853 -0.470254,0.118856 -0.904338,0.356569 V 54.97229 q 0.521933,-0.201539 1.01286,-0.299723 0.490926,-0.103354 0.956014,-0.103354 1.255736,0 1.875853,0.651124 0.620118,0.651123 0.620118,1.97404 z" />
  <path
     inkscape:connector-curvature="0"
     id="path1119"
     style="font-style:normal;font-weight:normal;font-size:medium;line-height:1.25;font-family:sans-serif;letter-spacing:0px;word-spacing:0px;fill:#e8a356;fill-opacity:1;stroke:none;stroke-width:0.26458335"
     d="m 82.803709,53.065433 v 1.643308 h 1.958536 v 0.738974 h -1.958536 v 3.141927 q 0,0.707967 0.191204,0.909505 0.196368,0.201539 0.790649,0.201539 h 0.976683 v 0.795816 h -0.976683 q -1.100709,0 -1.519288,-0.408241 -0.418579,-0.413412 -0.418579,-1.498619 v -3.141927 h -0.697632 v -0.738974 h 0.697632 v -1.643308 z" />
  <path
     inkscape:connector-curvature="0"
     id="path1121"
     style="font-style:normal;font-weight:normal;font-size:medium;line-height:1.25;font-family:sans-serif;letter-spacing:0px;word-spacing:0px;fill:#e8a356;fill-opacity:1;stroke:none;stroke-width:0.26458335"
     d="m 89.387286,54.708741 h 0.950847 v 5.787761 h -0.950847 z m 0,-2.253091 h 0.950847 v 1.204061 h -0.950847 z" />
  <path
     inkscape:connector-curvature="0"
     id="path1123"
     style="font-style:normal;font-weight:normal;font-size:medium;line-height:1.25;font-family:sans-serif;letter-spacing:0px;word-spacing:0px;fill:#e8a356;fill-opacity:1;stroke:none;stroke-width:0.26458335"
     d="m 97.93457,55.37537 q -0.764813,0 -1.209228,0.599445 -0.444418,0.594278 -0.444418,1.632977 0,1.038696 0.43925,1.638141 0.444416,0.594281 1.214396,0.594281 0.759642,0 1.20406,-0.599448 0.444418,-0.599445 0.444418,-1.632974 0,-1.028362 -0.444418,-1.62781 -0.444418,-0.604612 -1.20406,-0.604612 z m 0,-0.806154 q 1.240234,0 1.948201,0.806154 0.707969,0.806151 0.707969,2.232422 0,1.421101 -0.707969,2.232422 -0.707967,0.806151 -1.948201,0.806151 -1.245402,0 -1.953369,-0.806151 -0.702799,-0.811321 -0.702799,-2.232422 0,-1.426271 0.702799,-2.232422 0.707967,-0.806154 1.953369,-0.806154 z" />
  <path
     inkscape:connector-curvature="0"
     id="path1125"
     style="font-style:normal;font-weight:normal;font-size:medium;line-height:1.25;font-family:sans-serif;letter-spacing:0px;word-spacing:0px;fill:#e8a356;fill-opacity:1;stroke:none;stroke-width:0.26458335"
     d="m 110.34209,57.003176 v 3.493326 h -0.95085 v -3.462319 q 0,-0.821656 -0.3204,-1.2299 -0.32039,-0.408244 -0.96118,-0.408244 -0.76998,0 -1.21439,0.490926 -0.44442,0.490927 -0.44442,1.338419 v 3.271118 h -0.95601 v -5.787761 h 0.95601 v 0.899171 q 0.34106,-0.52193 0.80098,-0.780315 0.46509,-0.258381 1.06971,-0.258381 0.99735,0 1.50895,0.620117 0.5116,0.61495 0.5116,1.813843 z" />
  <path
     inkscape:connector-curvature="0"
     id="path1127"
     style="font-style:normal;font-weight:normal;font-size:medium;line-height:1.25;font-family:sans-serif;letter-spacing:0px;word-spacing:0px;fill:#e8a356;fill-opacity:1;stroke:none;stroke-width:0.26458335"
     d="m 139.18787,55.597577 q -0.16019,-0.09302 -0.3514,-0.134358 -0.18603,-0.04651 -0.41341,-0.04651 -0.80615,0 -1.24023,0.527097 -0.42892,0.521933 -0.42892,1.503786 V 60.4965 h -0.95601 v -5.787761 h 0.95601 v 0.899171 q 0.29973,-0.5271 0.78032,-0.780315 0.48059,-0.258381 1.16788,-0.258381 0.0982,0 0.21704,0.0155 0.11886,0.01035 0.26356,0.03617 z" />
  <path
     inkscape:connector-curvature="0"
     id="path1129"
     style="font-style:normal;font-weight:normal;font-size:medium;line-height:1.25;font-family:sans-serif;letter-spacing:0px;word-spacing:0px;fill:#e8a356;fill-opacity:1;stroke:none;stroke-width:0.26458335"
     d="m 148.51547,57.364912 v 0.465087 h -4.37183 q 0.062,0.981853 0.58911,1.498616 0.53227,0.511599 1.47795,0.511599 0.54777,0 1.05937,-0.134361 0.51676,-0.134358 1.02319,-0.403074 v 0.899168 q -0.51159,0.217043 -1.04903,0.330729 -0.53743,0.113689 -1.09037,0.113689 -1.38493,0 -2.19625,-0.806151 -0.80615,-0.806154 -0.80615,-2.180746 0,-1.421104 0.76481,-2.253094 0.76998,-0.837158 2.07222,-0.837158 1.16789,0 1.84485,0.754475 0.68213,0.749308 0.68213,2.041221 z m -0.95085,-0.279053 q -0.0103,-0.780315 -0.43925,-1.245402 -0.42374,-0.465087 -1.12654,-0.465087 -0.79582,0 -1.27641,0.449582 -0.47542,0.449586 -0.54777,1.266074 z" />
  <path
     inkscape:connector-curvature="0"
     id="path1131"
     style="font-style:normal;font-weight:normal;font-size:medium;line-height:1.25;font-family:sans-serif;letter-spacing:0px;word-spacing:0px;fill:#e8a356;fill-opacity:1;stroke:none;stroke-width:0.26458335"
     d="m 158.25648,57.003176 v 3.493326 h -0.95085 v -3.462319 q 0,-0.821656 -0.32039,-1.2299 -0.3204,-0.408244 -0.96118,-0.408244 -0.76998,0 -1.2144,0.490926 -0.44442,0.490927 -0.44442,1.338419 v 3.271118 h -0.95601 v -5.787761 h 0.95601 v 0.899171 q 0.34107,-0.52193 0.80099,-0.780315 0.46509,-0.258381 1.0697,-0.258381 0.99735,0 1.50895,0.620117 0.5116,0.61495 0.5116,1.813843 z" />
  <path
     inkscape:connector-curvature="0"
     id="path1133"
     style="font-style:normal;font-weight:normal;font-size:medium;line-height:1.25;font-family:sans-serif;letter-spacing:0px;word-spacing:0px;fill:#e8a356;fill-opacity:1;stroke:none;stroke-width:0.26458335"
     d="m 164.47315,53.065433 v 1.643308 h 1.95854 v 0.738974 h -1.95854 v 3.141927 q 0,0.707967 0.19121,0.909505 0.19637,0.201539 0.79065,0.201539 h 0.97668 v 0.795816 h -0.97668 q -1.10071,0 -1.51929,-0.408241 -0.41858,-0.413412 -0.41858,-1.498619 v -3.141927 h -0.69763 v -0.738974 h 0.69763 v -1.643308 z" />
  <path
     inkscape:connector-curvature="0"
     id="path1135"
     style="font-style:normal;font-weight:normal;font-size:medium;line-height:1.25;font-family:sans-serif;letter-spacing:0px;word-spacing:0px;fill:#e8a356;fill-opacity:1;stroke:none;stroke-width:0.26458335"
     d="m 173.68706,57.58712 q -1.15238,0 -1.5968,0.263549 -0.44442,0.263551 -0.44442,0.89917 0,0.506429 0.33073,0.806154 0.3359,0.294555 0.90951,0.294555 0.79065,0 1.26607,-0.558106 0.48059,-0.563272 0.48059,-1.493449 V 57.58712 Z m 1.89653,-0.39274 v 3.302122 h -0.95085 v -0.878498 q -0.32556,0.5271 -0.81132,0.780314 -0.48576,0.248047 -1.18856,0.248047 -0.88883,0 -1.41593,-0.496094 -0.52193,-0.501261 -0.52193,-1.338419 0,-0.976685 0.65112,-1.472779 0.65629,-0.496094 1.95337,-0.496094 h 1.33325 v -0.09302 q 0,-0.656291 -0.43408,-1.012859 -0.42892,-0.361733 -1.20923,-0.361733 -0.49609,0 -0.96635,0.118853 -0.47025,0.118856 -0.90434,0.356569 V 54.97229 q 0.52194,-0.201539 1.01286,-0.299723 0.49093,-0.103354 0.95602,-0.103354 1.25573,0 1.87585,0.651124 0.62012,0.651123 0.62012,1.97404 z" />
  <path
     inkscape:connector-curvature="0"
     id="path1137"
     style="font-style:normal;font-weight:normal;font-size:medium;line-height:1.25;font-family:sans-serif;letter-spacing:0px;word-spacing:0px;fill:#e8a356;fill-opacity:1;stroke:none;stroke-width:0.26458335"
     d="m 180.9166,52.45565 h 0.95084 v 8.040852 h -0.95084 z" />
  <path
     inkscape:connector-curvature="0"
     id="path1139"
     style="font-style:normal;font-weight:normal;font-size:medium;line-height:1.25;font-family:sans-serif;letter-spacing:0px;word-spacing:0px;fill:#e8a356;fill-opacity:1;stroke:none;stroke-width:0.26458335"
     d="m 190.91082,54.879276 v 0.899168 q -0.40308,-0.206706 -0.83716,-0.310057 -0.43408,-0.103355 -0.89917,-0.103355 -0.70797,0 -1.06453,0.217043 -0.3514,0.217041 -0.3514,0.651122 0,0.330729 0.25321,0.521933 0.25322,0.186033 1.01803,0.356568 l 0.32556,0.07234 q 1.01286,0.217043 1.4366,0.61495 0.42892,0.392742 0.42892,1.100709 0,0.806151 -0.64079,1.276408 -0.63562,0.470255 -1.75183,0.470255 -0.46509,0 -0.97152,-0.09302 -0.50126,-0.08785 -1.05937,-0.268719 v -0.98185 q 0.5271,0.273883 1.0387,0.413411 0.5116,0.134358 1.01286,0.134358 0.67179,0 1.03353,-0.227377 0.36173,-0.232542 0.36173,-0.651121 0,-0.387575 -0.26355,-0.594281 -0.25838,-0.206706 -1.14205,-0.397907 l -0.33072,-0.07751 q -0.88367,-0.186036 -1.27641,-0.568441 -0.39275,-0.387573 -0.39275,-1.059368 0,-0.816486 0.57878,-1.260904 0.57878,-0.444418 1.64331,-0.444418 0.5271,0 0.99219,0.07751 0.46509,0.07752 0.85783,0.232545 z" />
  <text
     xml:space="preserve"
     style="font-style:normal;font-variant:normal;font-weight:normal;font-stretch:normal;font-size:35.27777863px;line-height:1.25;font-family:Scriptina;-inkscape-font-specification:Scriptina;letter-spacing:0px;word-spacing:0px;fill:#000000;fill-opacity:1;stroke:none;stroke-width:0.26458335"
     id="text1011"
     transform="translate(-264.89299,-44.961387)"
     x="-244.16013"
     y="76.72517"><tspan
   id="tspan1009"
   style="stroke-width:0.26458335"><tspan
     x="-249.04552"
     y="-118.56129"
     id="tspan1007"
     style="stroke-width:0.26458335">Grace </tspan></tspan></text>
  <path
     id="path1546"
     style="fill:#e8a356;fill-opacity:1;fill-rule:nonzero;stroke:none;stroke-width:0.11449608"
     d="m 124.62642,28.48114 c -0.53127,0.20604 -0.67129,0.26364 -0.64083,-0.35488 0.0309,-0.6069 0.64083,-0.34329 0.64083,-0.34329 0.64188,0.14845 0.53321,0.49227 0,0.69836 z m -2.34259,0.19483 c 0,0 -0.49073,-1.05343 0.39044,-1.27096 0.88059,-0.21764 1.2536,-0.38932 1.44859,-0.83586 0.19484,-0.44654 0.95752,-0.52664 0.11714,0.44654 -0.84027,0.98474 -1.68425,2.25566 -1.95617,1.66028 z m -0.79748,-0.0116 c -0.41101,0.32048 -0.98887,1.08776 -0.95443,0.64122 0,0 -0.0874,-0.8473 0.58726,-1.21363 0.67392,-0.36647 0.38039,0.0348 0.45523,0.14884 0.0731,0.10321 0.32241,0.11443 -0.0881,0.42361 z m -1.92146,0.88164 c -0.20604,0.43513 -0.58806,0.40077 -0.58806,0.40077 -0.42397,0.16043 -0.99738,-0.12603 -0.41643,-0.45802 0.58049,-0.34329 0.21108,-0.99611 0.1527,-1.24796 -0.0591,-0.26365 0.33865,-0.57257 0.38117,-0.40085 0.0437,0.17164 0.73392,0.56112 0.74869,0.82442 0.0155,0.27486 -0.0735,0.43514 -0.27757,0.88164 z m -4.00597,0.82438 c 0,0 -1.61498,-0.29767 -1.71653,-0.78998 -0.10515,-0.50386 0.092,-0.77861 -0.45582,-1.16789 -0.5474,-0.38925 0.91871,-0.0456 1.48717,0.22924 0.56758,0.27486 0.76257,0.68699 0.80274,1.07624 0.0387,0.38928 0.2621,0.73276 -0.11752,0.65266 z m -3.18929,-1.0648 c -1.6057,-0.36647 -0.44998,-0.57252 -1.13515,-1.06479 -0.68525,-0.49235 0.38998,-0.35488 0.64532,0 0.25437,0.34328 1.068,0.50379 1.27204,0.75565 0,0 0.82117,0.68699 -0.78221,0.30926 z m -1.99031,-0.52663 c 0,0 -0.49953,-0.10322 -0.69004,-0.53816 -0.19058,-0.44662 -0.85303,-0.83583 -0.85303,-0.83583 0,0 -0.34985,-0.21764 0.2652,-0.14883 0.61586,0.0688 0.66051,0.74428 0.89671,0.66414 0.23272,-0.08 0.98168,1.04188 0.38116,0.85875 z m 29.20396,0.49231 c -0.0595,-0.36648 -1.25031,-0.38929 -1.9373,-0.46947 -0.68468,-0.08 -0.25515,-0.49235 0.33323,-0.76709 0.58737,-0.27486 0.41105,-0.30926 -0.23582,-0.46954 -0.64462,-0.16043 -0.57016,0.10322 -0.73276,-0.32047 -0.16159,-0.42362 -0.6309,0.17164 -0.85071,-0.36648 -0.22112,-0.54956 0.57133,-0.72132 1.13009,-0.82438 0.55757,-0.10322 0.0445,-1.11057 0,-1.37395 -0.0448,-0.27486 -0.26326,-0.74416 -0.55876,-0.50371 -0.29187,0.22885 0.0309,0.66403 -0.18904,0.53808 -0.22112,-0.11443 0.11791,-0.96177 -0.51407,-0.24045 -0.63102,0.70987 -0.86536,0.11442 -1.16055,-0.67547 -0.29303,-0.80154 0.6762,0.22885 0.82276,-0.44654 0.14651,-0.67555 -0.80846,-0.93893 -1.61347,-1.25952 -0.80641,-0.32047 -0.44101,-0.57252 -0.96966,-1.03051 -0.5283,-0.45794 -1.0994,0 -1.75991,0.14884 -0.66113,0.14883 -0.13298,-0.45795 -0.71834,-0.99614 -0.58807,-0.53804 1.05459,0.29766 1.36408,0.0916 0.30772,-0.20605 -0.35333,-1.23656 0.18982,-1.08772 0.54202,0.14883 0.22035,-0.79002 -0.30734,-1.33962 -0.52818,-0.53808 0.70346,0.16043 1.21298,-0.11443 0.508,-0.27485 -0.74374,-0.68699 -0.97859,-1.13353 -0.23427,-0.44653 -2.23003,-0.17164 -2.89549,-0.44653 -0.66511,-0.27486 0.88152,-0.19484 0.58587,-0.74425 -0.29303,-0.54956 -1.52506,-0.58393 -0.84039,-0.77853 0.68513,-0.19484 0.91998,0.97317 0.84039,0.33207 -0.0781,-0.65262 1.46923,0.53816 2.01617,1.07632 0.54751,0.52663 0.64585,-0.41221 0.11752,-0.65263 -0.52827,-0.22924 0.0193,-0.64118 -0.88067,-1.58003 -0.9012,-0.93896 -0.76257,-0.37769 -1.66377,-1.05343 -0.8998,-0.68695 -2.60705,-0.88163 -3.53106,-0.67551 -0.92443,0.20605 -0.64493,0.91596 -1.36455,1.63732 -0.71822,0.72132 -0.0271,-0.64126 0.16159,-1.01906 0.19175,-0.37769 -0.41093,-0.42362 -0.92396,-0.82438 -0.51295,-0.38925 -1.39459,-0.91593 -0.63194,-0.58393 0.76303,0.34328 1.26303,0.35488 0.66055,-0.17164 -0.60156,-0.52664 0.66097,-0.0348 0.19174,-0.65263 -0.47012,-0.60677 -2.2913,-0.29766 -3.12678,0.0348 -0.83629,0.34328 -0.19058,0.27486 -0.11558,0.53816 0.0723,0.26326 -0.35295,0.87015 -0.42629,0.87015 -0.0734,0 -0.85117,-0.22885 -0.7921,-0.46938 0.0588,-0.22924 0.19059,-0.88167 -0.23465,-0.83587 -0.42578,0.0456 -0.67528,-0.0452 -1.10203,-0.42361 -0.42442,-0.37769 -0.95257,-0.19484 -1.18742,0.32048 -0.23465,0.51523 0.38195,0.37768 0.0437,0.88167 -0.33633,0.49227 -0.68927,0.48086 -0.63156,0.10283 0.0599,-0.37769 -0.59974,-0.19484 -0.68915,-0.66411 -0.0878,-0.46942 0.76392,-0.0452 0.73485,-0.41217 -0.0309,-0.36648 0.14612,-0.80153 -0.39675,-1.00762 -0.54431,-0.20605 -0.4983,-0.4465 -0.68974,-0.80142 -0.19019,-0.36648 -0.88059,0.08 -0.73346,0.56101 0.14536,0.49238 -0.8081,0.89303 -1.25669,0.49238 -0.0116,-0.008 -0.0232,-0.0232 -0.0309,-0.0232 v 0 c 0,0 -8.5e-4,-0.008 -0.004,-0.008 -0.0398,-0.0232 -0.0781,-0.0456 -0.11636,-0.0688 -0.11714,-0.0452 -0.31623,-0.10321 -0.5631,-0.0452 -0.40026,0.10322 -1.65525,0.64119 -1.9235,0.81294 -0.004,0 -0.008,0 -0.0116,0 -0.003,0.008 -0.004,0.008 -0.004,0.008 -0.004,0 -0.004,0 -0.008,0 -0.13994,0.0916 -0.27563,0.24046 -0.38155,0.44654 -0.35256,0.69847 -1.51582,1.20219 -1.80916,1.44264 -0.29187,0.25205 -0.46919,0.26365 -0.35333,-0.21726 0.11868,-0.49231 -0.21455,-0.26326 -0.82025,-0.59533 -0.60786,-0.33207 -0.94012,0.25205 -1.03719,0.45794 -0.0974,0.20605 0.25514,0.45794 0.51798,0.19484 0.2648,-0.26326 0.33323,0 0.31351,0.22885 -0.0193,0.24046 -0.78317,0.37769 -1.20358,0.37769 -0.41998,0 -0.37227,0.97329 -0.12679,1.40827 0.10012,0.17165 0.24084,0.29767 0.37962,0.40081 v 0 c 0.26055,0.22924 0.62661,0.74424 -0.37382,0.95033 -1.00275,0.21764 -1.93793,1.19071 -1.93793,1.19071 -0.12061,0.11442 -0.22847,0.24045 -0.30772,0.36647 -0.35333,0.53812 -0.78313,0.85871 -0.64528,0.11443 0.13724,-0.74417 1.21286,-0.60678 0.27331,-0.85871 -0.93873,-0.26326 -2.01075,4.04173 -2.18607,4.69436 -0.17589,0.66407 0.54249,0.70988 0.92443,0.28607 0.38194,-0.43502 1.45219,0.33207 1.45219,0.33207 0,0 -0.0727,0.0116 -0.49726,0.36648 -0.42721,0.35488 -1.39505,0.19483 -1.93843,-0.17164 -0.54295,-0.36648 -0.85024,0.17164 -0.939227,0.61833 -0.0885,0.43502 -0.30772,0.49227 -0.894077,0.96177 -0.587717,0.46935 -0.176667,1.08765 0.10283,1.24796 0.277557,0.16043 0.0576,-0.59537 0.395347,-1.16786 0.33826,-0.57248 0.720087,-0.19483 0.469577,0.4351 -0.248567,0.62974 0.35063,0.73276 0.35063,0.73276 -0.967024,0.66403 -0.732177,1.67165 -0.659227,1.9808 0.0746,0.30888 0.367247,0.51523 0.572437,0.27486 0.20528,-0.22924 0.39629,-0.60686 0.45536,-0.13724 0.0584,0.46935 -0.13299,0.57241 -0.66063,0.37769 -0.528187,-0.19484 -1.483071,0.99618 -1.041674,0.74417 0.440117,-0.25205 0.0877,0.59548 0.395817,0.85875 0.30733,0.26364 0.748337,0.0232 0.969657,0.42373 0.21919,0.38921 0.11675,0.62966 -0.808107,0.22885 -0.924114,-0.38925 -0.571247,0.22924 -0.286067,0.53816 0.286067,0.29767 -0.33671,0.27486 -0.768867,-0.17164 -0.433817,-0.4351 -0.11829,0.54956 0.401657,0.79001 0.520957,0.25205 -0.828824,0.36648 -1.240331,0.93885 -0.410124,0.57249 -0.14536,0.77857 0.177437,0.48087 0.32318,-0.30927 0.586357,0.12602 0.586357,0.12602 0,0 0.23427,-0.66406 0.441007,-0.0576 0.2045,0.60686 0.748267,0.30927 0.748267,0.30927 0.068,-0.13724 0.13414,-0.25167 0.20025,-0.33208 0.008,0 0.0193,-0.0232 0.0271,-0.0348 0.0193,-0.0116 0.0348,-0.0348 0.0518,-0.0456 0.137997,-0.10321 0.330517,0.13724 0.424887,0.28607 0.0116,0.0232 0.0309,0.0456 0.0576,0.0916 h 9.2e-4 10e-4 c 0.0912,0.12603 0.26481,0.33208 0.55506,0.65263 1.4397,1.56866 2.39185,-0.24046 2.39185,-0.24046 0.10283,0.49239 0.79206,0.68696 1.43919,0.75569 0.64544,0.0576 0.39675,-0.49231 0.58645,-1.04191 0.19058,-0.56097 0.73392,-0.54956 0.49818,-0.08 -0.23543,0.46939 0.0746,0.6297 0.35295,0.32048 0.27834,-0.30888 1.12974,-0.21726 1.39455,-0.50383 0.26365,-0.29767 0.67404,-0.7671 -0.0155,-0.89308 -0.68835,-0.11443 -0.23427,-0.13724 0.89539,-0.92741 1.13028,-0.80142 1.62801,-0.41217 2.25956,-0.42357 0.63063,-0.0232 2.58325,1.15641 3.28593,1.35098 0.70528,0.20605 1.52692,0.91604 1.33687,1.47704 -0.19058,0.54957 -0.0885,1.22511 -0.13221,1.55723 -0.0452,0.32047 -0.11752,0.16043 -0.46954,1.01894 -0.35333,0.87023 -1.11586,0.9733 -1.58644,1.17938 -0.46819,0.20605 -0.88013,0.30888 -1.33367,-0.0116 -0.4557,-0.33207 -0.29341,0.13724 -0.69051,0.16043 -0.39489,0.0116 -0.79256,0.54956 -0.79256,0.54956 0,0 -1.2756,0 -2.47906,0 -1.20312,0 -1.67277,0.91601 -1.67277,0.91601 h 21.91259 c -0.27447,-1.20223 -3.60033,-0.88168 -3.60033,-0.88168 -0.20644,-0.24045 -0.79257,-0.87011 -1.4532,-0.51523 -0.65927,0.35488 -0.73392,-0.27486 -1.12974,-0.59533 -0.39578,-0.33208 -0.82024,-0.85875 -1.55417,-0.76717 -0.73438,0.0916 -0.76253,0.0116 -0.73438,-0.24046 0.0309,-0.24045 0.22073,-0.90452 -0.36687,-0.96181 -0.58725,-0.0576 -0.0155,-0.57244 -0.51349,-0.82438 -0.49865,-0.25205 -0.33323,-1.11057 -0.28491,-1.58007 0.0476,-0.46934 0.73481,-0.76705 1.32071,-0.90444 0.58772,-0.13724 1.25283,-0.93885 1.83962,-1.11061 0.58679,-0.18324 1.15468,-0.40076 1.76114,0.48091 0.60697,0.88156 1.19376,0.92741 1.93661,1.23655 0.74297,0.30888 0.6454,-0.57252 0.92041,-0.85875 0.27293,-0.29766 0.52784,-0.11442 0.33169,0.22886 -0.19484,0.35488 0.62572,0.5496 1.17358,-0.0116 0.54786,-0.57249 1.07651,-0.40077 1.23392,0.36648 0.15425,0.76705 1.29037,0.9274 2.36641,0.27486 1.0774,-0.64122 2.03504,-0.08 3.0529,0 1.01799,0.08 1.56643,-0.36648 1.79888,-0.93893 0.23581,-0.57245 0.62742,-0.8816 1.29264,-0.52664 0.66523,0.35488 1.31097,0.0916 1.01559,-0.38928 -0.29303,-0.49239 1.03735,0.08 0.97894,-0.29767"
     inkscape:connector-curvature="0" />
  <path
     inkscape:connector-curvature="0"
     id="path938"
     style="font-style:normal;font-variant:normal;font-weight:normal;font-stretch:normal;font-size:medium;line-height:1.25;font-family:Scriptina;-inkscape-font-specification:Scriptina;letter-spacing:0px;word-spacing:0px;fill:#e8a356;fill-opacity:1;stroke:none;stroke-width:0.26458335"
     d="m 25.675003,46.59346 q -0.951387,1.78691 -0.533334,3.53684 0.434449,1.81855 2.043131,2.63116 1.770522,0.88276 4.327545,0.19935 2.316837,-0.62603 5.224966,-3.78717 2.638781,-2.77036 5.305143,-12.25735 1.437487,-0.81493 1.618769,-0.96705 0.218641,-0.45121 0.419365,-0.8256 0.192526,-0.4087 0.29851,-0.72418 -0.680728,-1.17938 -1.403387,-1.62334 0.796587,-3.34584 1.226618,-5.18955 0.456146,-1.88623 0.597966,-2.35536 0.249906,-0.16851 0.447582,-0.25201 0.189479,-0.1178 0.24171,-0.20282 0.69691,-1.18207 0.732533,-3.76578 0.02916,-0.33341 -0.154222,-0.79738 -0.175187,-0.42967 -0.38106,-0.38048 -0.06863,0.0164 -0.14697,0.14392 -0.434235,0.61152 -0.764011,1.05301 -0.295463,0.43329 -0.512581,0.73905 -0.569382,1.26042 -1.17134,4.81365 -0.09626,0.20435 -0.122378,0.24686 -0.922226,1.45351 -2.876865,3.44384 -1.928524,1.94781 -4.863347,4.38992 -3.504784,2.94097 -6.397677,4.64765 -2.90109,1.67237 -5.242518,2.19547 -2.924736,0.66244 -4.603566,0.0117 -1.652715,-0.69329 -2.119952,-2.64909 -0.2869,-1.20092 -0.157482,-2.93655 0.554087,-6.33463 8.235974,-13.50159 7.500605,-7.01483 15.529665,-8.93296 0.377434,-0.0902 0.754869,-0.18034 0.377434,-0.0902 0.763066,-0.14602 2.707618,-0.35668 4.586227,0.82669 0.4758,0.32158 0.941879,0.75429 0.457883,0.3984 0.888126,0.98476 0.160316,0.21559 0.305763,0.21712 0.179758,-0.007 0.138772,-0.17824 -0.04099,-0.17156 -0.184908,-0.31853 -1.101251,-1.87687 -2.938874,-2.88869 -1.965151,-1.09016 -4.151413,-0.67668 -8.460827,1.47722 -16.642527,8.98121 -8.441327,7.78363 -9.022473,15.06775 -0.07624,0.74363 -0.01524,1.45446 0.06101,0.71084 0.208554,1.32846 0.614785,2.57341 2.855958,3.45255 1.039666,0.4045 2.288253,0.46892 1.24039,0.0301 2.665109,-0.3828 2.153473,-0.55073 4.683802,-1.95318 2.522131,-1.43675 5.473349,-3.81023 2.433486,-1.95964 4.45675,-3.96636 2.057576,-2.01491 3.850375,-4.07538 0.311857,-0.36466 0.34617,-0.37286 0.03431,-0.008 0.05071,0.0604 0.03279,0.13725 -0.0486,0.55567 -0.540586,2.59553 -0.963943,4.61901 -0.431555,1.98916 -0.686977,3.501 -3.378414,1.49624 -5.520063,2.55194 -2.149847,1.02138 -3.113637,1.54179 -5.276251,2.9652 -6.767859,5.67913 z m 15.215706,-9.1844 q -2.114898,8.30341 -4.508344,11.34159 -2.081588,2.67352 -5.110785,3.506 -2.42797,0.61631 -4.013585,0.0521 -1.387938,-0.64773 -1.707626,-1.98591 -0.385266,-1.61267 0.710044,-3.25262 1.54594,-2.18285 5.431785,-4.74334 1.318156,-0.85896 2.892893,-1.70668 1.574736,-0.84772 3.415773,-1.79533 z m 1.985691,-4.1377 q 0.552622,0.3395 0.64794,1.04214 0.121434,0.66013 -0.216539,1.0673 -0.328252,0.29604 -0.596076,0.54138 -0.241709,0.20283 -0.499813,0.33703 0.198622,-0.99049 0.385998,-1.72439 0.187377,-0.7339 0.27849,-1.26346 z" />
  <path
     inkscape:connector-curvature="0"
     id="path940"
     style="font-style:normal;font-variant:normal;font-weight:normal;font-stretch:normal;font-size:medium;line-height:1.25;font-family:Scriptina;-inkscape-font-specification:Scriptina;letter-spacing:0px;word-spacing:0px;fill:#e8a356;fill-opacity:1;stroke:none;stroke-width:0.26458335"
     d="m 45.057334,39.36391 q 0.399203,-0.3614 0.713733,-0.59938 0.320987,-0.2033 0.579069,-0.35901 0.251624,-0.19038 0.232251,-0.29443 2.79616,-7.3386 7.399543,-11.13821 1.062944,-0.84382 1.814696,-0.66083 0.11696,0.05 0.277454,-0.0517 0.154036,-0.13634 0.266933,-0.30089 0.141121,-0.2057 0.212879,-0.39848 0.09998,-0.23392 0.08061,-0.33797 -0.0065,-0.0347 -0.0476,-0.0629 -0.565428,-0.14591 -1.634104,0.0889 -1.151681,0.7527 -3.035522,2.96943 -1.827394,2.13445 -2.87648,4.01633 -0.07822,0.1581 -0.364521,0.35494 -0.355669,0.20976 -0.387956,0.0363 -0.02583,-0.13872 0.03947,-0.36619 0.239435,-0.83403 0.795793,-2.08591 0.584583,-1.29302 1.41027,-3.02565 0.141121,-0.2057 -0.03635,-0.38796 -0.101651,-0.16049 -0.309741,-0.12175 -0.104046,0.0194 -0.125812,0.0952 -1.939565,1.72472 -2.329916,1.94094 -0.01531,0.1105 0.0452,0.24277 0.162163,0.29277 0.175078,0.36213 0.06457,0.34682 -0.04665,0.90579 -0.690804,3.03523 -3.08631,8.86386 -0.07176,0.19279 0.02989,0.35328 0.07343,0.20163 0.20809,-0.0387 z" />
  <path
     inkscape:connector-curvature="0"
     id="path942"
     style="font-style:normal;font-variant:normal;font-weight:normal;font-stretch:normal;font-size:medium;line-height:1.25;font-family:Scriptina;-inkscape-font-specification:Scriptina;letter-spacing:0px;word-spacing:0px;fill:#e8a356;fill-opacity:1;stroke:none;stroke-width:0.26458335"
     d="m 54.274324,36.69787 q 1.994047,-1.6331 4.657694,-4.69211 1.326371,-1.56436 2.302065,-2.85962 1.010548,-1.30072 1.688915,-2.44234 0.0588,-0.0806 0.09366,-0.0861 0.27883,-0.0436 0.09483,0.37794 -0.450748,0.99889 -0.874233,2.17205 -0.388632,1.16771 -0.784854,2.51515 -0.324376,1.12195 -0.599679,2.55758 -0.275302,1.43564 -0.480897,2.86037 -0.200143,1.45959 -0.288133,2.72309 -0.05314,1.25806 0.02651,1.99544 0.106914,0.91165 0.459943,1.57056 0.393335,0.68831 1.115537,0.9681 0.61764,0.29616 1.352885,0.43108 0.740698,0.16978 1.57719,0.0389 0.557662,-0.0872 1.029258,-0.26814 0.477048,-0.14605 0.937739,-0.39665 0.921382,-0.50121 1.951602,-1.44793 1.065074,-0.95218 2.343548,-2.36622 1.361225,-1.56981 2.269349,-3.06874 0.942979,-1.50438 1.559229,-2.81482 0.101248,-0.26579 0.07944,-0.4052 -0.01091,-0.0697 -0.05121,-0.0991 -0.104562,0.0164 -0.363721,0.41397 -0.667462,1.21133 -1.626798,2.61115 -0.924483,1.39437 -2.173555,2.7681 -2.591801,2.83353 -4.340908,3.74989 -1.154454,0.60909 -2.409193,0.80538 -1.254738,0.19629 -2.079363,-0.28172 -0.819173,-0.44316 -1.004561,-1.62819 -0.02726,-0.17427 -0.05453,-0.34853 -0.02181,-0.13942 -0.01422,-0.31914 -0.01871,-1.03257 0.170527,-2.56187 0.189238,-1.52929 0.49608,-3.21981 0.336244,-1.73082 0.787954,-3.4083 0.446258,-1.71233 0.987348,-3.04672 0.695687,-1.71564 1.437134,-3.36703 0.770847,-1.69169 1.536242,-3.41824 0.02395,-0.0752 -0.107876,-0.23307 -0.131824,-0.15791 -0.27124,-0.1361 -0.139415,0.0218 -0.198217,0.10242 -0.224305,0.39216 -0.835317,0.59487 -0.06426,0.0458 -0.667676,0.0687 -0.440056,-0.074 -0.869208,-0.0783 -0.434604,-0.0391 -0.85285,0.0263 -0.383392,0.06 -0.750427,0.22452 -0.337633,0.12423 -0.63496,0.27787 -1.272059,0.77031 -2.665999,2.131 -1.399393,1.32584 -2.898857,3.38147 -3.26354,4.47401 -2.876406,6.94863 0.190841,1.21989 1.062187,1.08357 0.348539,-0.0545 0.758018,-0.40424 z m 0.09419,-3.04981 q 0.313471,-1.19166 0.924269,-2.53696 0.645652,-1.35075 1.623484,-2.86058 2.078723,-3.14604 3.651423,-3.82056 0.401888,-0.16999 0.78528,-0.22997 0.697077,-0.10905 1.204703,0.1686 0.502174,0.2428 0.562152,0.6262 0.02181,0.13941 -0.06639,0.26033 -2.011153,3.34971 -3.844936,5.779 -1.839236,2.39444 -3.600211,3.91967 -0.251568,0.21789 -0.495545,0.25606 -0.627369,0.0981 -0.758231,-0.73835 -0.06543,-0.41824 0.014,-0.82344 z" />
  <path
     inkscape:connector-curvature="0"
     id="path944"
     style="font-style:normal;font-variant:normal;font-weight:normal;font-stretch:normal;font-size:medium;line-height:1.25;font-family:Scriptina;-inkscape-font-specification:Scriptina;letter-spacing:0px;word-spacing:0px;fill:#e8a356;fill-opacity:1;stroke:none;stroke-width:0.26458335"
     d="m 75.362385,21.95849 q 0.478094,-0.73436 0.400315,-1.36458 -0.07778,-0.63022 -0.514765,-1.00283 -0.401974,-0.37694 -1.053798,-0.47422 -0.616811,-0.1016 -1.256116,0.19057 -0.805723,0.3838 -1.708284,1.13501 -0.906882,0.71619 -1.774875,1.7475 -0.872314,0.99629 -1.679369,2.23335 -0.776363,1.19772 -1.360381,2.51389 -0.584019,1.31617 -0.91431,2.67211 -0.295279,1.35162 -0.209746,2.6207 0.05141,0.70457 0.479309,1.29157 0.4279,0.58701 1.009256,0.97735 0.612047,0.35101 1.237501,0.52264 0.656145,0.1323 1.168364,-0.0376 0.652267,-0.18713 1.287251,-0.51432 0.630662,-0.3622 1.221991,-0.75508 0.591329,-0.39289 1.077622,-0.77282 0.481972,-0.41493 0.832537,-0.74256 0.258492,-0.20963 0.10548,-0.29738 -0.12232,-0.12709 -0.380812,0.0825 -0.911204,0.68118 -2.18117,1.33555 -1.234955,0.65005 -2.373072,0.9327 -0.450837,0.0912 -0.914637,0.0773 -0.433108,-0.0532 -0.813477,-0.25506 -0.349678,-0.24121 -0.620245,-0.70545 -0.235556,-0.46856 -0.295606,-1.24315 -0.06736,-1.69787 0.591445,-3.27208 0.658808,-1.57422 1.330135,-2.75898 l 0.351009,-0.61205 q 1.026213,-1.47737 2.174747,-2.82767 1.179225,-1.38962 2.383932,-2.28475 0.490614,-0.34492 0.875748,-0.39245 0.415824,-0.0869 0.656144,0.1323 0.236,0.18414 0.25284,0.60861 0.01684,0.42447 -0.264144,1.02787 -0.346688,0.64706 -1.161941,1.52967 -0.815253,0.88262 -1.547074,1.57721 1.361596,-0.48795 2.224824,-1.26985 0.858907,-0.81691 1.363372,-1.62563 z m -3.596838,2.82545 q 0.0043,0.035 -0.03069,0.0393 0,0 0.0043,0.035 0.03069,-0.0393 0.02637,-0.0744 z" />
  <path
     inkscape:connector-curvature="0"
     id="path946"
     style="font-style:normal;font-variant:normal;font-weight:normal;font-stretch:normal;font-size:medium;line-height:1.25;font-family:Scriptina;-inkscape-font-specification:Scriptina;letter-spacing:0px;word-spacing:0px;fill:#e8a356;fill-opacity:1;stroke:none;stroke-width:0.26458335"
     d="m 89.396179,21.93912 q 0.15261,-0.2623 0.006,-0.3194 -0.11194,-0.0604 -0.26456,0.20191 -0.38534,0.42581 -1.12193,0.88447 -0.70146,0.45538 -1.432499,0.59465 -0.555417,0.12283 -1.359991,0.23354 -0.76945,0.10742 -1.679397,0.22799 -0.913234,0.0855 -1.931841,0.18075 -0.983482,0.092 -1.93184,0.18075 1.729928,-0.44531 3.037337,-1.24084 1.30741,-0.79553 1.742258,-1.82831 0.266824,-0.55645 0.137421,-1.18211 -0.09428,-0.62895 -0.456407,-1.09112 -0.33029,-0.50057 -0.88016,-0.69715 -0.553157,-0.2317 -1.200802,0.0415 -1.183344,0.60676 -2.613794,1.98072 -1.398612,1.33554 -2.645842,3.15296 -1.215392,1.77901 -2.018125,3.80287 -0.767609,2.02057 -0.692233,3.96227 0.0306,0.70578 0.441001,1.30515 0.407112,0.56425 0.9767,0.97158 0.569588,0.40732 1.224831,0.59403 0.651957,0.1516 1.168964,-0.003 0.622379,-0.16453 1.266738,-0.47284 0.676196,-0.34672 1.278858,-0.722 0.602662,-0.37527 1.09995,-0.74069 0.494002,-0.40053 0.854079,-0.71768 0.264564,-0.20191 0.114207,-0.29414 -0.153643,-0.12735 -0.418206,0.0746 -0.899063,0.6156 -2.18778,1.23222 -1.253593,0.61334 -2.396266,0.89741 -0.45333,0.0779 -0.91652,0.0503 -0.431351,-0.0659 -0.805599,-0.27895 -0.34241,-0.25141 -0.599166,-0.72344 -0.22163,-0.47531 -0.258806,-1.25133 -0.04375,-0.84627 0.164947,-1.6453 0.205409,-0.83415 0.522764,-1.60791 0.317355,-0.77376 0.679693,-1.44544 0.394176,-0.71008 0.731249,-1.2731 1.053731,-0.0986 2.458706,-0.23004 1.404975,-0.13146 2.806664,-0.29803 1.401688,-0.16658 2.557506,-0.31016 1.190942,-0.14686 1.778198,-0.3081 0.970333,-0.23251 1.693773,-0.83168 0.75528,-0.63757 1.07038,-1.05681 z m -5.809485,-1.12174 q -0.362338,0.67168 -1.050655,1.26755 -0.653192,0.5926 -1.491865,1.09625 -0.84196,0.46853 -1.805724,0.77129 -0.963764,0.30276 -1.876998,0.38821 1.072634,-1.41134 2.295624,-2.73045 1.219704,-1.35423 2.450292,-2.21344 0.500575,-0.33029 0.886943,-0.36644 0.418206,-0.0746 0.651957,0.15159 0.230464,0.19103 0.234776,0.61581 0.0043,0.42478 -0.29435,1.01963 z" />
  <path
     inkscape:connector-curvature="0"
     id="path948"
     style="font-style:normal;font-variant:normal;font-weight:normal;font-stretch:normal;font-size:medium;line-height:1.25;font-family:Scriptina;-inkscape-font-specification:Scriptina;letter-spacing:0px;word-spacing:0px;fill:#e8a356;fill-opacity:1;stroke:none;stroke-width:0.26458335"
     d="m 147.35145,22.87973 q -0.66202,1.5037 -0.88947,2.9678 -0.57947,3.72998 1.88673,6.46938 2.16634,2.3715 5.72981,3.10361 3.83692,0.81029 8.43334,-0.51059 5.04182,-1.43019 8.73157,-4.49847 2.14306,-1.84483 3.58113,-3.97768 1.47294,-2.12743 2.25715,-4.64747 0.0619,-0.16889 0.0944,-0.37805 0.0728,-0.2386 0.11068,-0.48261 0.4874,-3.13737 -1.09038,-6.30996 -1.82348,-3.88909 -5.83943,-5.1556 -1.22245,-0.40412 -2.58198,-0.61533 -3.41624,-0.53072 -6.78343,0.2314 -3.52828,0.87991 -5.99354,2.96028 -2.15388,1.91455 -2.45715,3.86669 -0.0866,0.55775 -0.0176,1.03259 -3.77504,2.69802 -5.17184,5.94401 z M 171.16246,12.5484 q -0.4772,-0.14554 -0.95982,-0.25621 -0.4772,-0.14554 -1.0001,-0.22678 -3.93913,-0.61196 -8.8872,0.9042 -4.34158,1.28907 -7.20112,3.37959 -0.0156,-0.35942 0.0386,-0.70802 0.27078,-1.74298 2.22023,-3.26087 2.19111,-1.69456 5.52344,-2.4621 3.48801,-0.85046 6.90425,-0.31973 0.48804,0.0758 1.00552,0.19191 0.51748,0.11609 0.99468,0.26163 2.03742,0.67353 3.51099,1.75928 1.51384,1.05631 2.40731,2.65885 1.5568,2.84802 1.04232,6.15969 -0.64987,4.18315 -4.63544,7.77669 -1.83168,1.67899 -4.02752,2.9444 -2.15556,1.23597 -4.72098,2.12265 -5.05028,1.71449 -9.13122,0.86629 -3.8772,-0.78085 -5.78091,-3.00445 -1.8983,-2.25846 -1.39465,-5.5004 0.10831,-0.6972 0.3212,-1.37814 0.21831,-0.71581 0.51175,-1.45564 0.63494,-1.3294 2.05372,-3.10824 0.73883,-0.84914 1.36462,-1.43024 0.66065,-0.57568 1.21909,-0.95304 0.21016,1.17508 1.27861,2.34069 0.58651,0.59093 1.24038,0.97812 0.65928,0.35233 1.42078,0.50634 0.54151,0.19122 0.59566,-0.15737 0.0379,-0.24402 -0.34554,-0.30359 -1.42925,-0.22204 -2.56742,-1.39849 -0.51679,-0.5801 -0.81901,-1.16256 -0.29681,-0.61733 -0.27446,-1.22077 1.66279,-1.74093 6.40712,-3.32444 5.47165,-1.89893 9.6548,-1.24906 1.04579,0.16247 1.91964,0.51243 0.36721,0.16415 0.42137,-0.18445 0.0325,-0.20915 -0.31069,-0.29817 z" />
  <path
     inkscape:connector-curvature="0"
     id="path950"
     style="font-style:normal;font-variant:normal;font-weight:normal;font-stretch:normal;font-size:medium;line-height:1.25;font-family:Scriptina;-inkscape-font-specification:Scriptina;letter-spacing:0px;word-spacing:0px;fill:#e8a356;fill-opacity:1;stroke:none;stroke-width:0.26458335"
     d="m 171.17585,37.80699 q 2.45463,-0.78616 6.05596,-2.65245 1.80839,-0.96756 3.19177,-1.8137 1.41779,-0.8384 2.46819,-1.6509 0.0843,-0.0534 0.11873,-0.0456 0.27535,0.0619 -0.0507,0.38634 -0.78625,0.7634 -1.61118,1.69889 -0.79051,0.94322 -1.65412,2.05081 -0.71394,0.92427 -1.4975,2.15832 -0.78356,1.23405 -1.49828,2.48357 -0.72246,1.28394 -1.26856,2.42673 -0.51168,1.15052 -0.70855,1.86559 -0.23554,0.88717 -0.14932,1.6297 0.1129,0.78469 0.68178,1.31028 0.46561,0.50238 1.09985,0.89802 0.62649,0.43007 1.45256,0.61573 0.5507,0.12377 1.05578,0.12881 0.49734,0.0395 1.01789,-0.0243 1.04109,-0.12759 2.34711,-0.62954 1.34043,-0.49421 3.04905,-1.33956 1.84282,-0.95983 3.23819,-2.02022 1.42979,-1.05265 2.48444,-2.04499 0.19183,-0.20999 0.22277,-0.34766 0.0155,-0.0688 -0.0112,-0.111 -0.10326,-0.0232 -0.49039,0.25137 -1.06586,0.88134 -2.47244,1.83073 -1.37217,0.95713 -3.03863,1.77581 -3.45166,1.68297 -5.41512,1.89253 -1.2975,0.14228 -2.53659,-0.1362 -1.23909,-0.27849 -1.83039,-1.02606 -0.59903,-0.71316 -0.33602,-1.88341 0.0387,-0.17209 0.0774,-0.34419 0.0309,-0.13768 0.10404,-0.30204 0.36201,-0.96721 1.09994,-2.31999 0.73793,-1.35278 1.64447,-2.81229 0.9487,-1.4862 1.98519,-2.88035 1.04423,-1.42857 2.03778,-2.47079 1.27742,-1.34001 2.57379,-2.60343 1.33852,-1.29012 2.68479,-2.61465 0.0499,-0.0611 -0.0147,-0.2564 -0.0646,-0.1953 -0.20226,-0.22625 -0.13768,-0.0309 -0.22199,0.0224 -0.35271,0.2823 -0.99546,0.24632 -0.0766,0.0189 -0.64623,-0.1814 -0.38209,-0.2305 -0.77964,-0.39217 -0.38983,-0.19608 -0.80286,-0.28891 -0.37861,-0.0851 -0.78043,-0.0669 -0.35966,-0.009 -0.69264,0.0251 -1.46612,0.24902 -3.26253,1.00233 -1.78866,0.71889 -3.93856,2.07975 -4.67919,2.96188 -5.22842,5.40564 -0.27075,1.20467 0.58973,1.39806 0.34419,0.0774 0.85353,-0.0974 z m 1.20824,-2.80186 q 0.72941,-0.99312 1.79179,-2.01987 1.09681,-1.01902 2.56102,-2.06393 3.0893,-2.16215 4.79983,-2.21161 0.43624,-0.0104 0.81485,0.0747 0.68838,0.15472 1.05848,0.59947 0.37782,0.41034 0.29273,0.78895 -0.0309,0.13768 -0.15741,0.21773 -3.10129,2.3764 -5.69942,3.96194 -2.59039,1.55112 -4.78861,2.3226 -0.31404,0.11021 -0.55497,0.0561 -0.61955,-0.13924 -0.43389,-0.9653 0.0928,-0.41303 0.3156,-0.7607 z" />
  <path
     inkscape:connector-curvature="0"
     id="path952"
     style="font-style:normal;font-variant:normal;font-weight:normal;font-stretch:normal;font-size:medium;line-height:1.25;font-family:Scriptina;-inkscape-font-specification:Scriptina;letter-spacing:0px;word-spacing:0px;fill:#e8a356;fill-opacity:1;stroke:none;stroke-width:0.26458335"
     d="m 196.12851,28.76743 q 13.26317,3.6579 28.7071,1.00082 4.26262,-0.72733 6.78374,-2.70344 2.35345,-1.7662 3.03813,-4.24879 0.90041,-3.26478 -1.17895,-6.47308 -2.32678,-3.23995 -6.64581,-4.43111 -2.58462,-0.71282 -5.5245,-0.53556 -5.44353,0.36505 -11.43921,3.39561 -5.96168,3.03995 -12.69245,8.86856 -1.73556,-0.0761 -3.17207,0.22301 -1.42713,0.26511 -2.52119,0.91485 -0.30371,0.1724 -0.40688,0.54649 -0.13131,0.47611 0.10209,1.0894 0.2334,0.6133 0.68138,0.84663 0.28731,0.15243 0.51599,0.25209 0.27206,0.075 0.43273,0.15594 l 0.13603,0.0375 q -1.03307,0.95931 -2.23381,2.12854 -1.20074,1.16923 -2.60317,2.539 -0.44798,-0.23333 -0.88536,0.15837 -0.40337,0.40108 -0.37517,1.36032 -0.78212,0.84555 -1.91248,2.29036 -1.08698,1.42017 -2.64299,3.47948 -0.0621,0.0926 -0.10904,0.26269 0.02,0.59103 0.19001,0.63792 0.13604,0.0375 0.25095,-0.11376 1.41295,-1.80601 2.55857,-3.17342 1.15499,-1.40142 2.13529,-2.30209 5.35169,12.30804 11.04757,15.67207 0.2193,0.13367 0.59926,0.34825 0.37058,0.24858 1.05662,0.54757 1.51747,0.60149 1.63826,0.56161 0.84548,-0.27915 1.4224,-0.77875 0.61093,-0.49021 1.04244,-0.99332 -0.0153,-0.0774 0.0129,-0.17942 0.0188,-0.068 -0.006,-0.1114 -0.11727,-0.10553 -0.28495,0.10438 -1.32268,1.61134 -3.63523,0.97355 -0.47611,-0.13131 -1.00735,-0.46079 -3.0608,-1.9054 -6.22382,-7.02275 -1.5,-2.38981 -2.47463,-4.56154 -0.93125,-2.19636 -1.43914,-4.20277 2.44858,0.67531 5.42949,0.2166 3.1357,-0.4892 4.53226,-1.97038 0.72348,-0.89831 0.90168,-1.54446 0.1137,-0.81033 -0.87253,-1.08232 -2.34656,-0.64717 -10.05905,2.23927 1.59474,-1.53631 2.69933,-2.62227 1.14797,-1.1106 1.83394,-1.87288 0.15479,-0.0305 0.3002,-0.027 0.17942,0.0129 0.33421,-0.0176 0.46674,0.16532 0.97686,0.30601 0.51012,0.14069 0.98623,0.27199 z m -1.79426,-1.19015 q 7.29123,-7.06464 14.00102,-10.95951 6.71917,-3.92888 13.08908,-4.73374 2.61855,-0.33907 5.13515,0.35499 3.7409,1.03172 6.07821,3.83543 2.30331,2.79434 1.50607,5.68503 -1.25681,4.55708 -9.46539,6.72118 -7.62929,1.92133 -15.87436,1.6967 -6.32659,-0.28104 -11.97194,-1.838 -0.68016,-0.18758 -1.32632,-0.36579 -0.60276,-0.20283 -1.17152,-0.39629 z m 0.80958,6.88354 q -0.5359,0.21816 -1.25709,0.31202 -0.72119,0.0939 -1.61241,0.14082 -0.85722,0.0563 -1.56552,-0.0292 -0.6743,-0.0762 -1.21843,-0.22625 -0.34008,-0.0938 -0.43272,-0.15594 -0.11026,-0.39635 -0.14663,-0.66255 -0.027,-0.3002 -0.0481,-0.489 1.00729,-0.60047 3.55311,-1.47193 3.08758,-0.9782 4.14534,-0.83286 1.20318,0.14885 0.93118,1.13509 -0.29191,1.45648 -2.34872,2.27982 z m -1.84508,-7.24231 q -0.10202,-0.0281 -0.39871,-0.14656 -0.26269,-0.10904 -0.71067,-0.34237 -0.72004,-0.30837 -0.56997,-0.8525 0.11255,-0.4081 0.45027,-0.57112 1.81053,-1.25722 4.79967,-1.3477 -0.88415,0.8174 -1.76829,1.63481 -0.87476,0.7834 -1.8023,1.62544 z" />
  <path
     inkscape:connector-curvature="0"
     id="path954"
     style="font-style:normal;font-variant:normal;font-weight:normal;font-stretch:normal;font-size:medium;line-height:1.25;font-family:Scriptina;-inkscape-font-specification:Scriptina;letter-spacing:0px;word-spacing:0px;fill:#e8a356;fill-opacity:1;stroke:none;stroke-width:0.26458335"
     d="m 202.7339,42.71228 q -0.3576,-0.37873 -0.72773,-1.61643 -0.29205,-1.24899 -0.17046,-1.952 0.30961,-1.71849 4.21235,-2.84033 3.09981,-0.94206 5.1639,-0.77803 0.17853,0.022 0.34595,0.0775 0.21202,0.0331 0.41293,0.0997 0.36834,0.12213 0.87079,0.40022 0.50246,0.27809 1.18381,0.80132 0.21219,0.14468 0.82549,-0.0236 0.64679,-0.15722 0.9922,-0.41435 0.17835,-0.0895 0.14433,-0.43531 -0.10081,-0.25643 -0.30172,-0.32304 -1.86408,-0.6552 -4.24028,-0.66255 -2.33162,-0.0297 -5.21995,0.61078 -5.75446,1.21406 -6.23042,3.54639 -0.0885,0.491 -0.0654,0.98182 0.0566,0.50192 0.26949,1.09284 l 0.59414,1.79513 q -4.86164,1.43574 -5.66404,1.9502 -0.36762,0.32411 0.0566,0.50192 0.14522,0.12248 0.43531,0.14433 0.32357,0.0329 0.81457,0.12141 0.26806,0.20037 0.66988,0.3336 1.17199,0.38857 3.32472,0.17316 2.52088,-0.20485 2.83174,-1.14244 0.0777,-0.23439 -0.001,-0.66934 -0.0342,-0.45734 -0.28077,-1.17092 3.18952,-0.65215 5.95591,-0.81276 2.81097,-0.183 5.31037,0.12535 l -0.0224,-0.0446 q -2.65572,-0.39736 -5.46706,-0.43747 -2.81133,-0.0401 -6.02323,0.56745 z m -5.7858,2.54164 q 0.25624,-0.21237 0.76908,-0.41399 0.51285,-0.20163 1.33798,-0.44838 1.37147,-0.43728 2.01826,-0.5945 0.53701,0.95854 0.35938,1.49431 -0.0666,0.20091 -0.25607,0.32393 -0.25624,0.21237 -0.79165,0.25785 -0.50192,0.0566 -1.26044,0.10242 -1.6064,0.0249 -2.16473,-0.30889 -0.37962,-0.2002 -0.0118,-0.41275 z" />
</svg>
