<?xml version="1.0" encoding="UTF-8" standalone="no"?>
<!-- Created with Inkscape (http://www.inkscape.org/) -->

<svg
   xmlns:dc="http://purl.org/dc/elements/1.1/"
   xmlns:cc="http://creativecommons.org/ns#"
   xmlns:rdf="http://www.w3.org/1999/02/22-rdf-syntax-ns#"
   xmlns:svg="http://www.w3.org/2000/svg"
   xmlns="http://www.w3.org/2000/svg"
   xmlns:sodipodi="http://sodipodi.sourceforge.net/DTD/sodipodi-0.dtd"
   xmlns:inkscape="http://www.inkscape.org/namespaces/inkscape"
   width="65.742653mm"
   height="63.921494mm"
   viewBox="0 0 65.742653 63.921494"
   version="1.1"
   id="svg8"
   inkscape:version="0.92.3 (2405546, 2018-03-11)"
   sodipodi:docname="GraceOaksLogo.svg">
  <defs
     id="defs2" />
  <sodipodi:namedview
     id="base"
     pagecolor="#ffffff"
     bordercolor="#666666"
     borderopacity="1.0"
     inkscape:pageopacity="0.0"
     inkscape:pageshadow="2"
     inkscape:zoom="0.7"
     inkscape:cx="261.66362"
     inkscape:cy="-65.718493"
     inkscape:document-units="mm"
     inkscape:current-layer="layer1"
     showgrid="false"
     inkscape:window-width="1920"
     inkscape:window-height="1017"
     inkscape:window-x="-8"
     inkscape:window-y="-8"
     inkscape:window-maximized="1"
     inkscape:snap-global="false"
     fit-margin-top="0"
     fit-margin-left="0"
     fit-margin-right="0"
     fit-margin-bottom="0" />
  <metadata
     id="metadata5">
    <rdf:RDF>
      <cc:Work
         rdf:about="">
        <dc:format>image/svg+xml</dc:format>
        <dc:type
           rdf:resource="http://purl.org/dc/dcmitype/StillImage" />
        <dc:title></dc:title>
      </cc:Work>
    </rdf:RDF>
  </metadata>
  <g
     inkscape:label="Layer 1"
     inkscape:groupmode="layer"
     id="layer1"
     transform="translate(-11.667949,-9.2156698)">
    <flowRoot
       xml:space="preserve"
       id="flowRoot939"
       style="font-style:normal;font-weight:normal;font-size:40px;line-height:1.25;font-family:sans-serif;letter-spacing:0px;word-spacing:0px;fill:#000000;fill-opacity:1;stroke:none"><flowRegion
         id="flowRegion941"><rect
           id="rect943"
           width="327.14285"
           height="106.42857"
           x="-161.42857"
           y="493.94824" /></flowRegion><flowPara
         id="flowPara945" /></flowRoot>    <path
       id="path1546"
       style="fill:#9f915a;fill-opacity:1;fill-rule:nonzero;stroke:none;stroke-width:0.02961769"
       d="m 45.794739,41.329125 c -0.13743,0.0533 -0.17365,0.0682 -0.16577,-0.0918 0.008,-0.15699 0.16577,-0.0888 0.16577,-0.0888 0.16604,0.0384 0.13793,0.12734 0,0.18065 z m -0.60598,0.0504 c 0,0 -0.12694,-0.2725 0.101,-0.32877 0.22779,-0.0563 0.32428,-0.10071 0.37472,-0.21622 0.0504,-0.11551 0.24769,-0.13623 0.0303,0.11551 -0.21736,0.25473 -0.43568,0.58349 -0.50602,0.42948 z m -0.20629,-0.003 c -0.10632,0.0829 -0.2558,0.28138 -0.24689,0.16587 0,0 -0.0226,-0.21918 0.15191,-0.31394 0.17433,-0.0948 0.0984,0.009 0.11776,0.0385 0.0189,0.0267 0.0834,0.0296 -0.0228,0.10958 z m -0.49704,0.22806 c -0.0533,0.11256 -0.15212,0.10367 -0.15212,0.10367 -0.10967,0.0415 -0.258,-0.0326 -0.10772,-0.11848 0.15016,-0.0888 0.0546,-0.25767 0.0395,-0.32282 -0.0153,-0.0682 0.0876,-0.14811 0.0986,-0.10369 0.0113,0.0444 0.18985,0.14515 0.19367,0.21326 0.004,0.0711 -0.019,0.11256 -0.0718,0.22806 z m -1.03626,0.21325 c 0,0 -0.41776,-0.077 -0.44403,-0.20435 -0.0272,-0.13034 0.0238,-0.20141 -0.11791,-0.30211 -0.1416,-0.10069 0.23765,-0.0118 0.3847,0.0593 0.14682,0.0711 0.19726,0.17771 0.20765,0.2784 0.01,0.1007 0.0678,0.18955 -0.0304,0.16883 z m -0.825,-0.27544 c -0.41536,-0.0948 -0.1164,-0.1481 -0.29364,-0.27544 -0.17726,-0.12736 0.10088,-0.0918 0.16693,0 0.0658,0.0888 0.27627,0.13032 0.32905,0.19547 0,0 0.21242,0.17771 -0.20234,0.08 z m -0.51485,-0.13623 c 0,0 -0.12922,-0.0267 -0.1785,-0.13921 -0.0493,-0.11553 -0.22066,-0.21621 -0.22066,-0.21621 0,0 -0.0905,-0.0563 0.0686,-0.0385 0.15931,0.0178 0.17086,0.19253 0.23196,0.1718 0.0602,-0.0207 0.25394,0.26951 0.0986,0.22214 z m 7.55444,0.12735 c -0.0154,-0.0948 -0.32343,-0.1007 -0.50114,-0.12144 -0.17711,-0.0207 -0.066,-0.12736 0.0862,-0.19843 0.15194,-0.0711 0.10633,-0.08 -0.061,-0.12146 -0.16675,-0.0415 -0.14749,0.0267 -0.18955,-0.0829 -0.0418,-0.10958 -0.1632,0.0444 -0.22006,-0.0948 -0.0572,-0.14216 0.14779,-0.18659 0.29233,-0.21325 0.14423,-0.0267 0.0115,-0.28728 0,-0.35541 -0.0116,-0.0711 -0.0681,-0.1925 -0.14454,-0.1303 -0.0755,0.0592 0.008,0.17177 -0.0489,0.13919 -0.0572,-0.0296 0.0305,-0.24879 -0.13298,-0.0622 -0.16323,0.18363 -0.22385,0.0296 -0.30021,-0.17473 -0.0758,-0.20734 0.17492,0.0592 0.21283,-0.11551 0.0379,-0.17475 -0.20913,-0.24288 -0.41737,-0.32581 -0.2086,-0.0829 -0.11408,-0.1481 -0.25083,-0.26657 -0.13666,-0.11846 -0.28439,0 -0.45525,0.0385 -0.17102,0.0385 -0.0344,-0.11846 -0.18582,-0.25768 -0.15212,-0.13918 0.2728,0.077 0.35286,0.0237 0.0796,-0.0533 -0.0914,-0.31987 0.0491,-0.28137 0.14021,0.0385 0.057,-0.20436 -0.0795,-0.34653 -0.13663,-0.13919 0.18197,0.0415 0.31377,-0.0296 0.13141,-0.0711 -0.19239,-0.17771 -0.25314,-0.29322 -0.0606,-0.11551 -0.57686,-0.0444 -0.749,-0.11551 -0.17205,-0.0711 0.22803,-0.0504 0.15155,-0.192517 -0.0758,-0.14216 -0.3945,-0.15105 -0.21739,-0.20139 0.17723,-0.0504 0.23798,0.25174 0.21739,0.0859 -0.0202,-0.16882 0.38006,0.13921 0.52154,0.278417 0.14163,0.13623 0.16707,-0.10663 0.0304,-0.168817 -0.13665,-0.0593 0.005,-0.16586 -0.22781,-0.40872 -0.23312,-0.242887 -0.19726,-0.0977 -0.43038,-0.272498 -0.23276,-0.177701 -0.67439,-0.228057 -0.91341,-0.174746 -0.23913,0.05331 -0.16683,0.236948 -0.35298,0.423544 -0.18579,0.18659 -0.007,-0.16588 0.0418,-0.263608 0.0496,-0.09774 -0.1063,-0.109579 -0.23901,-0.213247 -0.13269,-0.100697 -0.36075,-0.236932 -0.16347,-0.151053 0.19738,0.08885 0.32672,0.09183 0.17087,-0.04441 -0.15561,-0.136235 0.17098,-0.0089 0.0496,-0.168818 -0.12161,-0.156963 -0.59271,-0.07699 -0.80883,0.0089 -0.21633,0.08885 -0.0493,0.07111 -0.0299,0.139207 0.0187,0.06809 -0.0913,0.225085 -0.11027,0.225085 -0.019,0 -0.22018,-0.05919 -0.2049,-0.121416 0.0152,-0.05927 0.0493,-0.228066 -0.0607,-0.21622 -0.11014,0.01175 -0.17468,-0.01175 -0.28507,-0.109579 -0.10979,-0.09774 -0.24641,-0.05037 -0.30716,0.08295 -0.0607,0.133279 0.0988,0.09773 0.0113,0.228065 -0.087,0.127344 -0.1783,0.124389 -0.16337,0.02661 0.0155,-0.09774 -0.15514,-0.05037 -0.17827,-0.171782 -0.0227,-0.121433 0.19761,-0.01175 0.19009,-0.106623 -0.008,-0.09478 0.0378,-0.207337 -0.10263,-0.260649 -0.1408,-0.05331 -0.1289,-0.115506 -0.17842,-0.207312 -0.0492,-0.09479 -0.22779,0.02065 -0.18973,0.145118 0.0376,0.127369 -0.20904,0.231012 -0.32508,0.127369 -0.003,-0.0025 -0.006,-0.0059 -0.008,-0.0059 v 0 c 0,0 -2.2e-4,-0.0025 -10e-4,-0.0025 -0.0103,-0.0059 -0.0202,-0.01175 -0.0301,-0.0178 -0.0303,-0.01175 -0.0818,-0.0267 -0.14566,-0.01175 -0.10354,0.0267 -0.42818,0.165863 -0.49757,0.210292 -9.3e-4,0 -0.002,0 -0.003,0 -6.7e-4,0.0025 -9.2e-4,0.0025 -10e-4,0.0025 -9.3e-4,0 -0.001,0 -0.002,0 -0.0362,0.02367 -0.0713,0.06221 -0.0987,0.115506 -0.0912,0.180689 -0.39211,0.310988 -0.46799,0.373183 -0.0755,0.06515 -0.12137,0.06817 -0.0914,-0.05625 0.0307,-0.127344 -0.0555,-0.06809 -0.21218,-0.154 -0.15724,-0.0859 -0.24319,0.06515 -0.2683,0.118462 -0.0252,0.05331 0.066,0.118461 0.13399,0.05037 0.0685,-0.06809 0.0862,0 0.0811,0.05919 -0.005,0.06221 -0.20259,0.09774 -0.31134,0.09774 -0.10864,0 -0.0963,0.25177 -0.0328,0.36429 0.0259,0.0444 0.0623,0.077 0.0982,0.10368 v 0 c 0.0674,0.0593 0.16209,0.19252 -0.0967,0.24583 -0.25939,0.0563 -0.5013,0.308007 -0.5013,0.308007 -0.0312,0.0296 -0.0591,0.0622 -0.0796,0.0948 -0.0914,0.1392 -0.20258,0.22213 -0.16692,0.0296 0.0355,-0.1925 0.31374,-0.15696 0.0707,-0.22213 -0.24283,-0.0681 -0.52014,1.04551 -0.56549,1.21433 -0.0455,0.17178 0.14033,0.18363 0.23913,0.074 0.0988,-0.11253 0.37565,0.0859 0.37565,0.0859 0,0 -0.0188,0.003 -0.12863,0.0948 -0.11051,0.0918 -0.36087,0.0504 -0.50143,-0.0444 -0.14045,-0.0948 -0.21994,0.0444 -0.24296,0.15995 -0.0229,0.11253 -0.0796,0.12734 -0.23128,0.24879 -0.15203,0.12141 -0.0457,0.28135 0.0266,0.32282 0.0718,0.0415 0.0149,-0.15401 0.10227,-0.3021 0.0875,-0.14809 0.18627,-0.0504 0.12147,0.11255 -0.0643,0.1629 0.0907,0.18955 0.0907,0.18955 -0.25015,0.17177 -0.1894,0.43242 -0.17053,0.51239 0.0193,0.0799 0.095,0.13328 0.14808,0.0711 0.0531,-0.0593 0.10251,-0.15698 0.11779,-0.0355 0.0151,0.12141 -0.0344,0.14807 -0.17089,0.0977 -0.13663,-0.0504 -0.38364,0.25769 -0.26946,0.1925 0.11385,-0.0652 0.0227,0.15404 0.10239,0.22214 0.0795,0.0682 0.19358,0.006 0.25083,0.10961 0.0567,0.10068 0.0302,0.16288 -0.20904,0.0592 -0.23905,-0.10069 -0.14777,0.0593 -0.074,0.13921 0.074,0.077 -0.0871,0.0711 -0.19889,-0.0444 -0.11222,-0.11255 -0.0306,0.14216 0.1039,0.20436 0.13476,0.0652 -0.2144,0.0948 -0.32085,0.24286 -0.10609,0.14809 -0.0376,0.2014 0.0459,0.12439 0.0836,-0.08 0.15168,0.0326 0.15168,0.0326 0,0 0.0606,-0.17178 0.11408,-0.0149 0.0529,0.15698 0.19356,0.08 0.19356,0.08 0.0176,-0.0355 0.0347,-0.0651 0.0518,-0.0859 0.002,0 0.005,-0.006 0.007,-0.009 0.005,-0.003 0.009,-0.009 0.0134,-0.0118 0.0357,-0.0267 0.0855,0.0355 0.10991,0.074 0.003,0.006 0.008,0.0118 0.0149,0.0237 h 2.4e-4 3.6e-4 c 0.0236,0.0326 0.0685,0.0859 0.14358,0.16882 0.37242,0.40578 0.61872,-0.0622 0.61872,-0.0622 0.0266,0.12737 0.20489,0.1777 0.37229,0.19548 0.16696,0.0149 0.10263,-0.12735 0.1517,-0.26952 0.0493,-0.14511 0.18985,-0.14216 0.12887,-0.0207 -0.0609,0.12142 0.0193,0.16289 0.0913,0.0829 0.072,-0.0799 0.29224,-0.0562 0.36074,-0.13033 0.0682,-0.077 0.17436,-0.19843 -0.004,-0.23102 -0.17806,-0.0296 -0.0606,-0.0355 0.23162,-0.2399 0.29238,-0.20731 0.42113,-0.10662 0.5845,-0.10957 0.16313,-0.006 0.66823,0.29914 0.85,0.34947 0.18244,0.0533 0.39498,0.23696 0.34582,0.38208 -0.0493,0.14216 -0.0229,0.31691 -0.0342,0.40282 -0.0117,0.0829 -0.0304,0.0415 -0.12146,0.26358 -0.0914,0.22511 -0.28865,0.25177 -0.41038,0.30508 -0.12111,0.0533 -0.22767,0.0799 -0.34499,-0.003 -0.11788,-0.0859 -0.0759,0.0355 -0.17862,0.0415 -0.10215,0.003 -0.20502,0.14216 -0.20502,0.14216 0,0 -0.32997,0 -0.64128,0 -0.31122,0 -0.43271,0.23695 -0.43271,0.23695 h 5.66832 c -0.071,-0.31099 -0.93133,-0.22807 -0.93133,-0.22807 -0.0534,-0.0622 -0.20502,-0.22508 -0.37591,-0.13328 -0.17054,0.0918 -0.18985,-0.0711 -0.29224,-0.154 -0.10238,-0.0859 -0.21218,-0.22214 -0.40203,-0.19845 -0.18997,0.0237 -0.19725,0.003 -0.18997,-0.0622 0.008,-0.0622 0.0571,-0.23398 -0.0949,-0.2488 -0.15191,-0.0149 -0.004,-0.14808 -0.13283,-0.21325 -0.12899,-0.0652 -0.0862,-0.28728 -0.0737,-0.40873 0.0123,-0.12141 0.19008,-0.19842 0.34164,-0.23396 0.15203,-0.0355 0.32408,-0.24286 0.47587,-0.28729 0.15179,-0.0474 0.29869,-0.10367 0.45557,0.1244 0.15701,0.22804 0.3088,0.2399 0.50096,0.31987 0.19219,0.0799 0.16695,-0.1481 0.23809,-0.22214 0.0706,-0.077 0.13654,-0.0296 0.0858,0.0592 -0.0504,0.0918 0.16186,0.14217 0.30358,-0.003 0.14172,-0.14809 0.27847,-0.10367 0.31919,0.0948 0.0399,0.19842 0.33379,0.2399 0.61214,0.0711 0.2787,-0.16587 0.52642,-0.0207 0.78972,0 0.26333,0.0207 0.4052,-0.0948 0.46533,-0.24288 0.061,-0.14808 0.1623,-0.22805 0.33438,-0.13623 0.17208,0.0918 0.33912,0.0237 0.26271,-0.1007 -0.0758,-0.12737 0.26834,0.0207 0.25323,-0.077"
       inkscape:connector-curvature="0" />
    <g
       aria-label="Grace "
       transform="matrix(0.22213265,0,0,0.22213265,50.625979,-67.44723)"
       style="font-style:normal;font-variant:normal;font-weight:normal;font-stretch:normal;font-size:37.33333206px;line-height:1.25;font-family:Scriptina;-inkscape-font-specification:Scriptina;letter-spacing:0px;word-spacing:0px;fill:#9e9159;fill-opacity:1;stroke:none"
       id="flowRoot1554">
      <path
         d="m -134.46293,502.21821 q -1.41867,1.60534 -1.41867,3.50934 0,1.97866 1.456,3.21066 1.60533,1.344 4.40533,1.26934 2.53867,-0.0747 6.30934,-2.61334 3.39733,-2.20266 8.47466,-11.312 1.68,-0.48533 1.904,-0.59733 0.336,-0.41067 0.63467,-0.74667 0.29867,-0.37333 0.48533,-0.672 -0.41066,-1.38133 -1.04533,-2.016 1.64267,-3.248 2.53867,-5.04 0.93333,-1.82933 1.19466,-2.27733 0.29867,-0.112 0.52267,-0.14933 0.224,-0.0747 0.29867,-0.14934 1.008,-1.04533 1.68,-3.696 0.112,-0.336 0.0373,-0.85866 -0.0747,-0.48534 -0.29867,-0.48534 -0.0747,0 -0.18666,0.112 -0.59734,0.52267 -1.04534,0.896 -0.41066,0.37334 -0.70933,0.63467 -0.896,1.15733 -2.38933,4.66667 -0.14934,0.18666 -0.18667,0.224 -1.30667,1.26933 -3.808,2.83733 -2.464,1.53067 -6.08533,3.32267 -4.33067,2.16533 -7.728,3.21066 -3.39734,1.008 -5.936,0.97067 -3.17334,-0.0373 -4.74134,-1.12 -1.53066,-1.12 -1.53066,-3.248 0,-1.30667 0.56,-3.06133 2.128,-6.384 11.79733,-11.872 9.44533,-5.376 18.18133,-5.376 0.41067,0 0.82134,0 0.41066,0 0.82133,0.0373 2.87467,0.29867 4.51733,1.97867 0.41067,0.448 0.784,1.008 0.37334,0.52266 0.672,1.232 0.112,0.26133 0.26134,0.29866 0.18666,0.0373 0.18666,-0.14933 0,-0.18667 -0.112,-0.37333 -0.672,-2.20267 -2.31466,-3.696 -1.75467,-1.60534 -4.10667,-1.71734 -9.072,-0.56 -19.33867,5.152 -10.60266,5.936 -12.992,13.29067 -0.26133,0.74667 -0.37333,1.49333 -0.112,0.74667 -0.112,1.41867 0,2.8 2.09067,4.256 0.97066,0.672 2.24,1.04533 1.26933,0.336 2.83733,0.26134 2.352,-0.0373 5.30133,-0.85867 2.94934,-0.85867 6.57067,-2.576 2.98667,-1.41867 5.56267,-2.98667 2.61333,-1.568 4.96533,-3.248 0.41067,-0.29866 0.448,-0.29866 0.0373,0 0.0373,0.0747 0,0.14934 -0.18666,0.56 -1.19467,2.53867 -2.128,4.51734 -0.93334,1.94133 -1.568,3.43466 -3.84534,0.70934 -6.30934,1.26934 -2.464,0.52266 -3.584,0.82133 -6.16,1.75467 -8.36266,4.18133 z m 17.92,-5.712 q -4.21867,8.02667 -7.42934,10.56534 -2.8,2.24 -6.12266,2.352 -2.65067,0.0373 -4.144,-0.93334 -1.26934,-1.008 -1.26934,-2.464 0,-1.75466 1.53067,-3.17333 2.128,-1.86667 6.75733,-3.54667 1.568,-0.56 3.39734,-1.04533 1.82933,-0.48533 3.95733,-1.008 z m 3.06133,-3.77066 q 0.48533,0.48533 0.41067,1.232 -0.0373,0.70933 -0.48534,1.04533 -0.41066,0.224 -0.74666,0.41067 -0.29867,0.14933 -0.59734,0.224 0.448,-0.97067 0.82134,-1.68 0.37333,-0.70934 0.59733,-1.232 z"
         style=""
         id="path1067" />
      <path
         d="m -112.70868,499.30621 q 0.48533,-0.29866 0.85866,-0.48533 0.37334,-0.14933 0.672,-0.26133 0.29867,-0.14934 0.29867,-0.26134 4.33067,-7.09333 9.856,-10.15466 1.269333,-0.672 2.016,-0.336 0.112,0.0747 0.298667,0 0.186666,-0.112 0.336,-0.26134 0.186666,-0.18666 0.298666,-0.37333 0.149334,-0.224 0.149334,-0.336 0,-0.0373 -0.03733,-0.0747 -0.56,-0.26133 -1.717333,-0.224 -1.344,0.56 -3.73333,2.50134 -2.31467,1.86666 -3.77067,3.62133 -0.112,0.14933 -0.448,0.29867 -0.41067,0.14933 -0.41067,-0.0373 0,-0.14933 0.112,-0.37333 0.41067,-0.82133 1.232,-2.016 0.85867,-1.232 2.05334,-2.87467 0.18666,-0.18666 0.0373,-0.41066 -0.0747,-0.18667 -0.29867,-0.18667 -0.112,0 -0.14933,0.0747 -2.352,1.41866 -2.8,1.568 -0.0373,0.112 0,0.26133 0.112,0.336 0.112,0.41067 0,0.37333 -0.224,0.93333 -1.30667,3.024 -4.928,8.624 -0.112,0.18667 -0.0373,0.37333 0.0373,0.224 0.224,0 z"
         style=""
         id="path1069" />
      <path
         d="m -102.61789,498.33555 q 2.352,-1.38134 5.637334,-4.144 1.642666,-1.41867 2.874666,-2.61334 1.269334,-1.19466 2.165334,-2.27733 0.07467,-0.0747 0.112,-0.0747 0.298666,0 0.03733,0.41067 -0.634667,0.97067 -1.269333,2.128 -0.597334,1.15733 -1.232,2.50133 -0.522667,1.12 -1.045334,2.576 -0.522666,1.456 -0.970666,2.912 -0.448,1.49334 -0.746667,2.8 -0.261333,1.30667 -0.298667,2.09067 -0.03733,0.97067 0.224,1.71733 0.298667,0.784 1.008,1.19467 0.597334,0.41067 1.344,0.672 0.746667,0.29867 1.642667,0.29867 0.597333,0 1.12,-0.112 0.522667,-0.0747 1.045333,-0.26134 1.045333,-0.37333 2.277333,-1.19466 1.269334,-0.82134 2.837334,-2.09067 1.68,-1.41867 2.874666,-2.83733 1.232,-1.41867 2.090667,-2.688 0.149333,-0.26134 0.149333,-0.41067 0,-0.0747 -0.03733,-0.112 -0.112,0 -0.448,0.37333 -0.896,1.15734 -2.128,2.464 -1.194667,1.30667 -2.725333,2.53867 -3.173334,2.53867 -5.152,3.21067 -1.306667,0.448 -2.650667,0.448 -1.344,0 -2.128,-0.63467 -0.784,-0.59733 -0.784,-1.86667 0,-0.18666 0,-0.37333 0,-0.14933 0.03733,-0.336 0.149333,-1.08267 0.597333,-2.65067 0.448,-1.568 1.045333,-3.28533 0.634667,-1.75467 1.381334,-3.43467 0.746666,-1.71733 1.530666,-3.024 1.008,-1.68 2.053333,-3.28533 1.082667,-1.64267 2.165334,-3.32267 0.03733,-0.0747 -0.07467,-0.26133 -0.112,-0.18667 -0.261333,-0.18667 -0.149334,0 -0.224,0.0747 -0.298667,0.37333 -0.970667,0.48533 -0.07467,0.0373 -0.709333,-0.0373 -0.448,-0.14933 -0.896,-0.224 -0.448,-0.112 -0.896,-0.112 -0.410667,0 -0.821333,0.112 -0.373334,0.0747 -0.709334,0.18667 -1.456,0.59733 -3.136,1.792 -1.68,1.15733 -3.584,3.06133 -4.144,4.144 -4.144,6.79467 0,1.30666 0.93333,1.30666 0.37334,0 0.85867,-0.29866 z m 0.59733,-3.17334 q 0.52267,-1.19466 1.38134,-2.50133 0.895997,-1.30667 2.16533,-2.72533 2.688,-2.94934 4.442667,-3.39734 0.448,-0.112 0.858667,-0.112 0.746666,0 1.232,0.37334 0.485333,0.336 0.485333,0.74666 0,0.14934 -0.112,0.26134 -2.650667,3.17333 -4.965333,5.41333 -2.314667,2.20267 -4.405334,3.50933 -0.29867,0.18667 -0.56,0.18667 -0.672,0 -0.672,-0.896 0,-0.448 0.14933,-0.85867 z"
         style=""
         id="path1071" />
      <path
         d="m -78.569101,485.97821 q 0.597334,-0.70933 0.597334,-1.38133 0,-0.672 -0.410667,-1.12 -0.373333,-0.448 -1.045333,-0.63467 -0.634667,-0.18666 -1.344,0.0373 -0.896,0.29866 -1.941334,0.97066 -1.045333,0.63467 -2.090666,1.60534 -1.045333,0.93333 -2.053333,2.128 -0.970667,1.15733 -1.754667,2.464 -0.784,1.30666 -1.306667,2.688 -0.485333,1.38133 -0.56,2.72533 -0.03733,0.74667 0.336,1.41867 0.373334,0.672 0.933334,1.15733 0.597333,0.448 1.232,0.70933 0.672,0.224 1.232,0.112 0.709333,-0.112 1.418666,-0.37333 0.709334,-0.29867 1.381334,-0.63467 0.672,-0.336 1.231999,-0.672 0.56,-0.37333 0.970667,-0.672 0.298667,-0.18666 0.149333,-0.29866 -0.112,-0.14934 -0.410666,0.0373 -1.045333,0.59733 -2.464,1.12 -1.381333,0.52267 -2.613333,0.672 -0.485334,0.0373 -0.970667,-0.0373 -0.448,-0.112 -0.821333,-0.37334 -0.336,-0.29866 -0.56,-0.82133 -0.186667,-0.52267 -0.149334,-1.344 0.149334,-1.792 1.045334,-3.36 0.896,-1.568 1.754666,-2.72533 l 0.448,-0.59734 q 1.269334,-1.41866 2.650667,-2.688 1.418666,-1.30666 2.8,-2.09066 0.56,-0.29867 0.970666,-0.29867 0.448,-0.0373 0.672,0.224 0.224,0.224 0.186667,0.672 -0.03733,0.448 -0.410667,1.04533 -0.448,0.63467 -1.418666,1.456 -0.970667,0.82134 -1.829334,1.456 1.493334,-0.336 2.501334,-1.04533 1.008,-0.74667 1.642666,-1.53067 z m -4.144,2.50134 q 0,0.0373 -0.03733,0.0373 0,0 0,0.0373 0.03733,-0.0373 0.03733,-0.0747 z"
         style=""
         id="path1073" />
      <path
         d="m -64.160184,487.32221 q 0.186667,-0.26133 0.03733,-0.336 -0.112,-0.0747 -0.298666,0.18667 -0.448,0.41067 -1.269334,0.82133 -0.784,0.41067 -1.568,0.48534 -0.597333,0.0747 -1.456,0.112 -0.821333,0.0373 -1.792,0.0747 -0.970666,0 -2.053333,0 -1.045333,0 -2.053333,0 1.866666,-0.29866 3.322666,-1.008 1.456,-0.70933 2.016,-1.75466 0.336,-0.56 0.261334,-1.232 -0.03733,-0.672 -0.373334,-1.19467 -0.298666,-0.56 -0.858666,-0.82133 -0.56,-0.29867 -1.269334,-0.0747 -1.306666,0.52267 -2.949333,1.82933 -1.605333,1.26934 -3.098666,3.06134 -1.456,1.75466 -2.501334,3.808 -1.008,2.05333 -1.12,4.10666 -0.03733,0.74667 0.336,1.41867 0.373334,0.63467 0.933334,1.12 0.56,0.48533 1.232,0.74667 0.672,0.224 1.232,0.112 0.672,-0.112 1.381333,-0.37334 0.746667,-0.29866 1.418667,-0.63466 0.672,-0.336 1.231999,-0.672 0.56,-0.37334 0.970667,-0.672 0.298667,-0.18667 0.149333,-0.29867 -0.149333,-0.14933 -0.448,0.0373 -1.007999,0.56 -2.426666,1.08267 -1.381333,0.52267 -2.613333,0.70933 -0.485334,0.0373 -0.970667,-0.0373 -0.448,-0.112 -0.821333,-0.37333 -0.336,-0.29867 -0.56,-0.82134 -0.186667,-0.52266 -0.149334,-1.344 0.03733,-0.896 0.336,-1.71733 0.298667,-0.85867 0.709334,-1.64267 0.410666,-0.784 0.858666,-1.456 0.485334,-0.70933 0.896,-1.26933 1.12,0 2.613334,0 1.493333,0 2.986666,-0.0373 1.493333,-0.0373 2.725333,-0.0747 1.269334,-0.0373 1.904,-0.14933 1.045334,-0.14934 1.866667,-0.70934 0.858667,-0.59733 1.232,-1.008 z m -6.010667,-1.75466 q -0.448,0.672 -1.232,1.232 -0.746666,0.56 -1.68,1.008 -0.933333,0.41066 -1.978666,0.63466 -1.045333,0.224 -2.016,0.224 1.269333,-1.38133 2.688,-2.65066 1.418666,-1.30667 2.8,-2.09067 0.56,-0.29867 0.970666,-0.29867 0.448,-0.0373 0.672,0.224 0.224,0.224 0.186667,0.672 -0.03733,0.448 -0.410667,1.04534 z"
         style=""
         id="path1075" />
    </g>
    <g
       aria-label="Oaks"
       transform="matrix(0.22213265,0,0,0.22213265,83.606609,-65.764732)"
       style="font-style:normal;font-variant:normal;font-weight:normal;font-stretch:normal;font-size:37.33333206px;line-height:1.25;font-family:Scriptina;-inkscape-font-specification:Scriptina;letter-spacing:0px;word-spacing:0px;fill:#9e9159;fill-opacity:1;stroke:none"
       id="flowRoot1562">
      <path
         d="m -141.5936,486.91155 q -0.448,1.68 -0.448,3.248 0,3.99466 3.024,6.45866 2.65067,2.128 6.496,2.31467 4.144,0.224 8.736,-1.904 5.04,-2.31467 8.4,-6.12267 1.94133,-2.27733 3.09867,-4.74133 1.19466,-2.464 1.60533,-5.22667 0.0373,-0.18666 0.0373,-0.41066 0.0373,-0.26134 0.0373,-0.52267 0,-3.36 -2.16534,-6.42133 -2.53866,-3.77067 -6.944,-4.44267 -1.344,-0.224 -2.8,-0.224 -3.65866,0 -7.056,1.344 -3.54666,1.49333 -5.78666,4.06933 -1.94134,2.352 -1.94134,4.44267 0,0.59733 0.14934,1.08267 -3.50934,3.43466 -4.44267,7.056 z m 23.22133,-14.672 q -0.52266,-0.0747 -1.04533,-0.112 -0.52267,-0.0747 -1.08267,-0.0747 -4.21866,0 -9.14666,2.38933 -4.33067,2.05334 -6.98134,4.704 -0.0747,-0.37333 -0.0747,-0.74666 0,-1.86667 1.792,-3.77067 2.016,-2.128 5.376,-3.472 3.50933,-1.456 7.168,-1.456 0.52266,0 1.08266,0.0373 0.56,0.0373 1.08267,0.112 2.24,0.37334 3.95733,1.26934 1.75467,0.85866 2.94934,2.38933 2.09066,2.72533 2.09066,6.272 0,4.48 -3.584,8.88533 -1.64266,2.05334 -3.73333,3.73334 -2.05333,1.64266 -4.592,2.98666 -5.00267,2.61334 -9.408,2.38934 -4.18133,-0.18667 -6.53333,-2.20267 -2.352,-2.05333 -2.352,-5.52533 0,-0.74667 0.112,-1.49334 0.112,-0.784 0.29866,-1.60533 0.448,-1.49333 1.64267,-3.584 0.63467,-1.008 1.19467,-1.71733 0.59733,-0.70934 1.12,-1.19467 0.41066,1.19467 1.71733,2.24 0.70933,0.52267 1.456,0.82133 0.74667,0.26134 1.568,0.29867 0.59733,0.112 0.59733,-0.26133 0,-0.26134 -0.41066,-0.26134 -1.53067,0 -2.912,-1.04533 -0.63467,-0.52267 -1.04534,-1.08267 -0.41066,-0.59733 -0.48533,-1.232 1.456,-2.09066 6.16,-4.51733 5.41333,-2.87467 9.89333,-2.87467 1.12,0 2.09067,0.224 0.41067,0.112 0.41067,-0.26133 0,-0.224 -0.37334,-0.26133 z"
         style=""
         id="path1078" />
      <path
         d="m -114.28456,498.33555 q 2.352,-1.38134 5.63734,-4.144 1.64266,-1.41867 2.87466,-2.61334 1.26934,-1.19466 2.16534,-2.27733 0.0747,-0.0747 0.112,-0.0747 0.29866,0 0.0373,0.41067 -0.63467,0.97067 -1.26933,2.128 -0.59734,1.15733 -1.232,2.50133 -0.52267,1.12 -1.04534,2.576 -0.52266,1.456 -0.97066,2.912 -0.448,1.49334 -0.74667,2.8 -0.26133,1.30667 -0.29867,2.09067 -0.0373,0.97067 0.224,1.71733 0.29867,0.784 1.008,1.19467 0.59734,0.41067 1.344,0.672 0.74667,0.29867 1.64267,0.29867 0.59733,0 1.12,-0.112 0.52267,-0.0747 1.04533,-0.26134 1.04534,-0.37333 2.27734,-1.19466 1.269329,-0.82134 2.837329,-2.09067 1.68,-1.41867 2.874666,-2.83733 1.232,-1.41867 2.090667,-2.688 0.149333,-0.26134 0.149333,-0.41067 0,-0.0747 -0.03733,-0.112 -0.112,0 -0.448,0.37333 -0.896,1.15734 -2.128,2.464 -1.194667,1.30667 -2.725333,2.53867 -3.173329,2.53867 -5.151999,3.21067 -1.30667,0.448 -2.65067,0.448 -1.344,0 -2.128,-0.63467 -0.784,-0.59733 -0.784,-1.86667 0,-0.18666 0,-0.37333 0,-0.14933 0.0373,-0.336 0.14933,-1.08267 0.59733,-2.65067 0.448,-1.568 1.04533,-3.28533 0.63467,-1.75467 1.38134,-3.43467 0.74666,-1.71733 1.53066,-3.024 1.008,-1.68 2.05334,-3.28533 1.08266,-1.64267 2.165329,-3.32267 0.03733,-0.0747 -0.07467,-0.26133 -0.112,-0.18667 -0.261333,-0.18667 -0.149329,0 -0.223999,0.0747 -0.29867,0.37333 -0.97067,0.48533 -0.0747,0.0373 -0.70933,-0.0373 -0.448,-0.14933 -0.896,-0.224 -0.448,-0.112 -0.896,-0.112 -0.41067,0 -0.82133,0.112 -0.37334,0.0747 -0.70934,0.18667 -1.456,0.59733 -3.136,1.792 -1.68,1.15733 -3.584,3.06133 -4.144,4.144 -4.144,6.79467 0,1.30666 0.93334,1.30666 0.37333,0 0.85866,-0.29866 z m 0.59734,-3.17334 q 0.52266,-1.19466 1.38133,-2.50133 0.896,-1.30667 2.16533,-2.72533 2.688,-2.94934 4.44267,-3.39734 0.448,-0.112 0.85867,-0.112 0.74666,0 1.232,0.37334 0.48533,0.336 0.48533,0.74666 0,0.14934 -0.112,0.26134 -2.65067,3.17333 -4.96533,5.41333 -2.31467,2.20267 -4.40534,3.50933 -0.29866,0.18667 -0.56,0.18667 -0.672,0 -0.672,-0.896 0,-0.448 0.14934,-0.85867 z"
         style=""
         id="path1080" />
      <path
         d="m -91.382602,482.73021 q 14.56,0 29.567999,-7.056 4.144,-1.94133 6.16,-4.66666 1.904,-2.464 1.904,-5.18934 0,-3.584 -3.024,-6.272 -3.285333,-2.65066 -8.026666,-2.65066 -2.837334,0 -5.786667,1.008 -5.450666,1.904 -10.714666,6.68266 -5.226667,4.77867 -10.453333,12.61867 -1.792,0.41067 -3.173333,1.12 -1.381334,0.672 -2.314667,1.64267 -0.261333,0.26133 -0.261333,0.672 0,0.52266 0.410666,1.08266 0.410667,0.56 0.933334,0.672 0.336,0.0747 0.597333,0.112 0.298667,0 0.485333,0.0373 h 0.149334 q -0.784,1.26933 -1.68,2.8 -0.896,1.53066 -1.941334,3.32266 -0.522666,-0.112 -0.858666,0.41067 -0.298667,0.52267 0,1.49333 -0.56,1.08267 -1.306662,2.87467 -0.70934,1.75467 -1.71734,4.29333 -0.0373,0.112 -0.0373,0.29867 0.18667,0.59733 0.37333,0.59733 0.14934,0 0.224,-0.18666 0.93334,-2.24 1.71734,-3.95734 0.783995,-1.75466 1.530662,-2.94933 8.922666,11.05067 15.679999,12.88 0.261333,0.0747 0.709333,0.18667 0.448,0.14933 1.232,0.26133 1.717334,0.18667 1.829334,0.112 0.784,-0.52267 1.232,-1.19467 0.485333,-0.672 0.784,-1.30666 -0.03733,-0.0747 -0.03733,-0.18667 0,-0.0747 -0.03733,-0.112 -0.149333,-0.0747 -0.261333,0.18667 -0.896,2.016 -3.434667,2.016 -0.522667,0 -1.157333,-0.18667 -3.658667,-1.08267 -8.325333,-5.41333 -2.202667,-2.016 -3.808,-3.95734 -1.568,-1.97866 -2.650667,-3.88266 2.688,0 5.6,-1.30667 3.061333,-1.38133 4.069333,-3.28533 0.485334,-1.12 0.485334,-1.82934 -0.112,-0.85866 -1.194667,-0.85866 -2.576,0 -9.632,5.11466 1.194667,-2.016 2.016,-3.43466 0.858667,-1.456 1.344,-2.42667 0.149334,-0.0747 0.298667,-0.112 0.186667,-0.0373 0.336,-0.112 0.522666,0.0373 1.082666,0.0373 0.56,0 1.082667,0 z m -2.165333,-0.70933 q 5.450666,-9.25867 11.199999,-15.12 5.749334,-5.89867 12.021333,-8.512 2.576,-1.08267 5.338667,-1.08267 4.106666,0 7.28,2.20267 3.136,2.20267 3.136,5.376 0,5.00267 -7.765334,9.52 -7.242666,4.10667 -15.717332,6.19733 -6.533333,1.49334 -12.730667,1.49334 -0.746666,0 -1.456,0 -0.672,-0.0373 -1.306666,-0.0747 z m 2.762666,6.79467 q -0.485333,0.37333 -1.194666,0.672 -0.709334,0.29866 -1.605333,0.59733 -0.858667,0.29867 -1.605334,0.41067 -0.709333,0.112 -1.306666,0.112 -0.373334,0 -0.485334,-0.0373 -0.224,-0.37333 -0.336,-0.63466 -0.112,-0.29867 -0.186666,-0.48534 0.858666,-0.896 3.210666,-2.50133 2.874667,-1.86667 3.994667,-2.016 1.269333,-0.18667 1.269333,0.896 0.112,1.568 -1.754667,2.98667 z m -3.919999,-6.86934 q -0.112,0 -0.448,-0.0373 -0.298667,-0.0373 -0.821334,-0.14933 -0.821333,-0.112 -0.821333,-0.70934 0,-0.448 0.298667,-0.70933 1.493333,-1.792 4.517333,-2.72533 -0.672,1.08266 -1.344,2.16533 -0.672,1.04533 -1.381333,2.16533 z"
         style=""
         id="path1082" />
      <path
         d="m -80.919934,494.86355 q -0.485333,-0.26134 -1.269333,-1.38134 -0.709333,-1.15733 -0.821333,-1.904 -0.261334,-1.82933 3.285333,-4.256 2.8,-1.97866 4.928,-2.50133 0.186666,-0.0373 0.373333,-0.0373 0.224,-0.0373 0.448,-0.0373 0.410667,0 1.008,0.112 0.597333,0.112 1.456,0.41067 0.261333,0.0747 0.821333,-0.29867 0.597333,-0.37333 0.858667,-0.74666 0.149333,-0.14934 0,-0.48534 -0.186667,-0.224 -0.410667,-0.224 -2.090666,-0.0373 -4.48,0.74667 -2.352,0.74667 -5.04,2.352 -5.375999,3.136 -5.077333,5.63733 0.07467,0.52267 0.261334,1.008 0.224,0.48534 0.634666,1.008 l 1.194667,1.60534 q -4.405333,3.06133 -5.04,3.84533 -0.261333,0.448 0.224,0.48533 0.186667,0.0747 0.485333,0 0.336,-0.0747 0.858667,-0.14933 0.336,0.112 0.784,0.112 1.306667,0 3.397333,-0.93333 2.464,-1.04534 2.464,-2.09067 0,-0.26133 -0.224,-0.672 -0.186666,-0.448 -0.672,-1.08267 2.986667,-1.71733 5.712,-2.8 2.762667,-1.12 5.376,-1.64266 l -0.03733,-0.0373 q -2.799999,0.48534 -5.637333,1.38134 -2.837333,0.896 -5.861333,2.576 z m -4.965333,4.48 q 0.186667,-0.29867 0.634667,-0.672 0.448,-0.37334 1.194666,-0.896 1.232,-0.896 1.829334,-1.26934 0.858666,0.784 0.858666,1.38134 0,0.224 -0.149333,0.41066 -0.186667,0.29867 -0.709333,0.52267 -0.485334,0.224 -1.232,0.52267 -1.605334,0.56 -2.277334,0.41066 -0.448,-0.0747 -0.149333,-0.41066 z"
         style=""
         id="path1084" />
    </g>
    <path
       id="path1564"
       style="fill:#9d905b;fill-opacity:1;fill-rule:nonzero;stroke:none;stroke-width:0.09644055"
       d="m 44.539339,23.908565 c -17.39131,0 -31.53953,7.747063 -31.53953,17.26865 0,9.52156 14.14822,17.2667 31.53953,17.2667 17.39133,0 31.53886,-7.74514 31.53886,-17.2667 0,-9.521587 -14.14753,-17.26865 -31.53886,-17.26865 z m 0,34.86324 c -17.57147,0 -31.86646,-7.89364 -31.86646,-17.59459 0,-9.703859 14.29499,-17.595585 31.86646,-17.595585 17.57138,0 31.86579,7.891726 31.86579,17.595585 0,9.70095 -14.29441,17.59459 -31.86579,17.59459"
       inkscape:connector-curvature="0" />
    <path
       id="path1566"
       style="fill:#9d905b;fill-opacity:1;fill-rule:nonzero;stroke:none;stroke-width:0.09644055"
       d="m 66.342039,25.706212 c -0.076,-0.205414 -0.12849,-0.425303 -0.14462,-0.650012 -0.0478,-0.47738 0.0615,-0.911363 0.3251,-1.300014 0.15473,-0.235321 0.34325,-0.353936 0.5508,-0.365508 0.21952,-0.0066 0.3921,0.03278 0.52849,0.126327 0.0536,0.03472 0.10743,0.07138 0.1416,0.10801 0.0809,0.0868 0.13259,0.168754 0.17906,0.260389 0.0656,0.15238 0.10061,0.327894 0.0886,0.506312 0,0.181303 -0.0396,0.353936 -0.0938,0.549711 -0.0656,0.186113 -0.15063,0.35876 -0.26435,0.52849 -0.27729,0.411807 -0.5885,0.736808 -0.91958,0.975984 -0.17496,-0.240133 -0.30369,-0.481244 -0.39106,-0.739703 z m -8.82806,-3.795899 c -0.29049,0.249782 -0.66343,0.471593 -1.1136,0.661586 -0.44267,0.192866 -0.94598,0.333681 -1.48576,0.42337 -0.37305,0.07138 -0.73352,0.110908 -1.09596,0.130181 -0.17059,0.01066 -0.34169,0.01066 -0.50216,0.01066 -0.98437,0 -1.95813,-0.140816 -2.91278,-0.421449 -0.0191,-0.0096 -0.0388,-0.0096 -0.0498,-0.02023 -0.97269,-0.292211 -1.95744,-0.653864 -2.96179,-1.095563 1.00435,-0.541031 2.00791,-1.013589 3.01146,-1.415745 0.10061,-0.03956 0.20203,-0.07909 0.3116,-0.120559 0.97414,-0.362612 2.00865,-0.570924 3.10335,-0.612392 0.14024,-0.0096 0.29125,-0.0096 0.44267,-0.0096 0.1602,0 0.3409,0 0.54104,0.0096 0.20093,0.01148 0.41132,0.02988 0.64306,0.04918 0,0.04246 0.008,0.081 0.0191,0.131165 0.0109,0.04051 0.0109,0.08294 0.0109,0.120559 0,0.401188 -0.25096,0.763809 -0.76285,1.096528 -0.26053,0.169738 -0.56168,0.298962 -0.89399,0.379012 -0.32204,0.08196 -0.67163,0.121515 -1.06463,0.121515 -0.36165,0 -0.60121,-0.01066 -0.72368,-0.03956 -0.12958,-0.04051 -0.26025,-0.06944 -0.41055,-0.111865 -0.10061,-0.05014 -0.17114,-0.05014 -0.21214,-0.02023 -0.0492,0.03182 -0.038,0.08294 0.0309,0.141772 0.3526,0.292216 0.90413,0.442662 1.65676,0.442662 0.231,0 0.47206,-0.02023 0.72329,-0.05115 0.0899,-0.0096 0.17032,-0.03089 0.2608,-0.04918 0.35181,-0.0617 0.66305,-0.161073 0.94473,-0.312468 0.28037,-0.139831 0.52108,-0.340436 0.70268,-0.592146 0.19027,-0.249782 0.28024,-0.561285 0.28024,-0.943189 v -0.220832 c 0.50334,0.10801 0.95457,0.279673 1.35616,0.502449 0.39144,0.229525 0.59338,0.561285 0.59338,0.97212 0,0.311506 -0.15062,0.594079 -0.44264,0.843859 z m -10.96452,-0.68376 c -0.22225,-0.0974 -0.46331,-0.209268 -0.71386,-0.329826 -0.12083,-0.07037 -0.25151,-0.131166 -0.3929,-0.20156 0.13068,-0.06944 0.2619,-0.151422 0.3929,-0.219875 0.35183,-0.203473 0.73237,-0.412768 1.14369,-0.643256 0.59418,-0.322118 1.18631,-0.631693 1.78792,-0.922938 0.56359,-0.271953 1.10501,-0.501495 1.63651,-0.69341 0.041,-0.01148 0.0908,-0.02988 0.14078,-0.05115 0.57264,-0.189011 1.05447,-0.291245 1.4572,-0.291245 0.63207,0 1.23445,0.081 1.81685,0.260389 0.0705,0.02132 0.1304,0.04051 0.2012,0.07037 0.6423,0.21315 1.08429,0.533313 1.33514,0.956694 -0.29117,-0.04144 -0.59292,-0.08199 -0.89325,-0.110908 -0.22116,-0.02132 -0.43166,-0.04144 -0.64306,-0.04144 -0.0795,-0.0096 -0.17059,-0.0096 -0.25123,-0.0096 -1.08456,0 -2.13982,0.170695 -3.16374,0.511129 -0.1397,0.04144 -0.29038,0.09065 -0.43098,0.152379 -1.15574,0.43205 -2.30099,0.952829 -3.42325,1.564267 z m -0.71386,0.402156 c -0.13095,0.07138 -0.27228,0.151423 -0.40197,0.222774 -0.22116,0.118617 -0.44112,0.250739 -0.66417,0.379974 -0.0396,0.03182 -0.0897,0.06074 -0.14024,0.09161 -0.21022,-0.101258 -0.41025,-0.211209 -0.61143,-0.311508 -0.0711,-0.04144 -0.15145,-0.081 -0.23045,-0.121515 -0.12083,-0.07037 -0.25205,-0.129224 -0.38202,-0.189995 0.12986,-0.07138 0.26108,-0.130181 0.38202,-0.191909 0.15937,-0.06944 0.3217,-0.150439 0.48103,-0.218919 0.1714,-0.07037 0.34245,-0.150438 0.50101,-0.242046 0.11236,-0.05115 0.22307,-0.110908 0.33379,-0.170695 0.19,0.108967 0.38016,0.200602 0.56099,0.270039 0.0604,0.02132 0.12138,0.05014 0.17141,0.07234 0.12958,0.05982 0.26025,0.118618 0.39145,0.200603 -0.13122,0.06944 -0.2619,0.139858 -0.39145,0.209268 z m -3.33394,-0.36937 c -0.75389,-0.362612 -1.49638,-0.694372 -2.22943,-0.995267 -0.48152,-0.201559 -0.96438,-0.392514 -1.43762,-0.564177 -0.75157,-0.259433 -1.485,-0.449409 -2.20868,-0.550673 -0.43215,-0.05981 -0.85255,-0.09163 -1.27486,-0.09163 -0.54286,0 -1.04464,0.03182 -1.50728,0.103199 0.23183,-0.423378 0.64424,-0.743555 1.22625,-0.956691 0.45173,-0.169739 0.97464,-0.278711 1.55589,-0.320185 0.16211,-0.01066 0.33117,-0.01066 0.51342,-0.01066 0.96297,0 2.00761,0.241089 3.13288,0.724266 0.0497,0.01832 0.1006,0.03956 0.13969,0.05981 1.07475,0.471593 2.20001,0.995267 3.37544,1.566191 0.12029,0.06074 0.25042,0.119575 0.37138,0.19191 -0.12083,0.05981 -0.25123,0.128267 -0.37138,0.189995 -0.15063,0.07909 -0.29232,0.150438 -0.44344,0.229525 -0.26982,0.132122 -0.5526,0.271954 -0.84232,0.424341 z m -2.22943,1.022269 c -0.45249,0.182286 -0.90345,0.341398 -1.35586,0.492815 -0.73382,0.250739 -1.49637,0.411798 -2.29044,0.491848 -0.40159,0.04144 -0.80394,0.06077 -1.21496,0.06077 -0.4313,0 -0.91348,-0.04051 -1.4251,-0.110908 -0.51239,-0.06944 -0.97494,-0.190952 -1.4063,-0.340431 -0.43215,-0.161072 -0.78242,-0.352973 -1.06422,-0.583469 -0.28141,-0.230482 -0.42192,-0.502458 -0.42192,-0.813954 0,-0.442663 0.21022,-0.793711 0.64267,-1.054101 0.42155,-0.261346 0.89391,-0.451341 1.39607,-0.583461 0.0191,0.361653 0.1304,0.665441 0.34131,0.915218 0.20913,0.251696 0.46157,0.452304 0.75309,0.6124 0.29049,0.151423 0.61299,0.270997 0.95457,0.341399 0.34063,0.07037 0.67171,0.109951 0.98407,0.109951 0.12958,0 0.28026,-0.0096 0.46072,-0.02023 0.0219,-0.0096 0.0509,-0.0096 0.0716,-0.0096 0.20996,-0.01941 0.43139,-0.0588 0.64306,-0.110909 0.21952,-0.05014 0.44046,-0.108994 0.64126,-0.189995 0.21159,-0.06944 0.39289,-0.170695 0.53302,-0.292213 0.0697,-0.0675 0.0796,-0.119574 0.0498,-0.161045 -0.0301,-0.03956 -0.0916,-0.03956 -0.17004,0 -0.51345,0.332719 -1.10493,0.523671 -1.76874,0.552602 -0.0899,0.01066 -0.18042,0.01066 -0.27091,0.01066 -0.25014,0 -0.53303,-0.01832 -0.84347,-0.07909 -0.31072,-0.05011 -0.61211,-0.141773 -0.88338,-0.280636 -0.27119,-0.132122 -0.49197,-0.311505 -0.6721,-0.543926 -0.17113,-0.230509 -0.26189,-0.521741 -0.26189,-0.882429 v -0.0617 c 0.23128,-0.03762 0.4309,-0.06944 0.62272,-0.08874 0.18972,-0.02023 0.36127,-0.03182 0.50216,-0.03182 0.62272,0 1.21526,0.03182 1.80674,0.101258 0.70334,0.08874 1.37688,0.221817 2.03913,0.411798 0.54142,0.160089 1.07368,0.331757 1.60717,0.521747 0.64267,0.231467 1.26501,0.491848 1.88735,0.784064 -0.62234,0.299924 -1.25528,0.581536 -1.88735,0.832275 z m 1.47931,-5.209714 c 1.13134,-0.508245 2.06595,-1.245053 2.78741,-2.236457 0.72215,0.991404 1.65676,1.728212 2.78848,2.236457 0.92595,0.401188 1.84145,0.634577 2.75379,0.714623 -0.60498,0.139832 -1.21034,0.324042 -1.81579,0.589249 -0.79333,0.352008 -1.6067,0.733913 -2.42983,1.144751 -0.35219,0.179389 -0.70178,0.372263 -1.06614,0.563215 -0.0897,0.03956 -0.16922,0.08969 -0.25916,0.139831 -0.24193,-0.119574 -0.48376,-0.240132 -0.72294,-0.361653 -0.47282,-0.231466 -0.94404,-0.452304 -1.41728,-0.672187 -0.70296,-0.332719 -1.40553,-0.643265 -2.09788,-0.914256 -0.48335,-0.190952 -0.96969,-0.344293 -1.45307,-0.478351 0.9757,-0.06271 1.95862,-0.298963 2.93238,-0.725228 z m 1.74047,-5.874198 c 0,-0.593111 0.11263,-1.019376 0.32548,-1.2874832 0.22635,-0.255578 0.46717,-0.380934 0.72146,-0.380934 0.25506,0 0.49571,0.12537 0.72215,0.380934 0.21296,0.2680992 0.32589,0.6943722 0.32589,1.2874832 0,1.161149 -0.35451,2.237425 -1.04804,3.2134 -0.69399,-0.975975 -1.04694,-2.052251 -1.04694,-3.2134 z m -21.14603,15.248219 c -0.33196,-0.239176 -0.6424,-0.564178 -0.91996,-0.975984 -0.11372,-0.169738 -0.19929,-0.342361 -0.26381,-0.528491 -0.055,-0.195763 -0.0946,-0.368405 -0.0946,-0.54971 -0.0109,-0.178404 0.0219,-0.353941 0.0888,-0.506312 0.0454,-0.09161 0.0976,-0.173593 0.17852,-0.260389 0.0344,-0.03666 0.088,-0.07329 0.1416,-0.108011 0.13669,-0.09355 0.30892,-0.133079 0.52849,-0.126326 0.20777,0.01148 0.39599,0.130208 0.5508,0.365507 0.2649,0.388652 0.37302,0.822634 0.32509,1.300015 -0.0164,0.224714 -0.0686,0.444595 -0.14434,0.650011 -0.0875,0.258449 -0.21651,0.499565 -0.39095,0.739703 z m 49.71017,2.33 c 0.37255,-0.211209 0.67392,-0.499565 0.90077,-0.837101 0.34959,-0.518854 0.48942,-0.975983 0.40552,-1.353063 -0.0645,-0.382867 -0.31441,-0.718481 -0.7239,-0.995267 -0.0437,-0.02799 -0.1129,-0.06074 -0.20639,-0.106097 -0.0798,-0.04051 -0.15637,-0.06271 -0.22444,-0.07715 -0.0339,0.0077 -0.0498,0.02892 -0.0779,0.06944 -0.0191,0.05014 -0.003,0.07523 0.0629,0.08969 0.16266,0.03182 0.28256,0.08196 0.3658,0.138875 0.77037,0.520779 0.86682,1.197791 0.30476,2.032 -0.22635,0.337544 -0.54885,0.565139 -0.95651,0.691479 -0.38912,0.120559 -0.8371,0.172636 -1.29249,0.141772 -0.4728,-0.02799 -0.93196,-0.121515 -1.3841,-0.271953 -0.46069,-0.158174 -0.86186,-0.336576 -1.1889,-0.557427 -0.49686,-0.333684 -0.897,-0.695334 -1.19123,-1.079172 0.36771,-0.319214 0.69773,-0.696296 1.01195,-1.160178 0.13477,-0.200602 0.2485,-0.415655 0.31643,-0.630722 0.0697,-0.214107 0.11154,-0.414693 0.10935,-0.618179 -0.002,-0.198662 -0.0358,-0.376118 -0.11728,-0.552603 -0.0519,-0.12731 -0.12876,-0.242073 -0.2485,-0.337547 -0.0246,-0.03278 -0.067,-0.0588 -0.10935,-0.08874 -0.29502,-0.198661 -0.57827,-0.280641 -0.84686,-0.248826 -0.27919,0.02799 -0.56137,0.265201 -0.87548,0.731986 -0.22034,0.326931 -0.32067,0.750312 -0.31613,1.288451 0.008,0.376117 0.0839,0.763809 0.24084,1.146673 0.0697,0.168781 0.14927,0.346226 0.24823,0.518849 -0.25069,0.125369 -0.52483,0.230482 -0.7964,0.292215 -0.20776,0.05982 -0.42009,0.100302 -0.65331,0.129225 -0.25287,0.02105 -0.5006,0.03089 -0.74401,0.02406 0.008,-0.09645 0.0273,-0.189012 0.0273,-0.289324 0,-0.380934 -0.10962,-0.711731 -0.32887,-0.988509 -0.21897,-0.276787 -0.49243,-0.505353 -0.83335,-0.678946 -0.33907,-0.175534 -0.69427,-0.297038 -1.06991,-0.373225 -0.38305,-0.07138 -0.73458,-0.110908 -1.05408,-0.110908 -0.36725,0 -0.75339,0.03666 -1.15875,0.110908 -0.30175,-0.46966 -0.5169,-0.944148 -0.63814,-1.433101 -0.14926,-0.530429 -0.17742,-1.057958 -0.0979,-1.586454 0.0735,-0.517884 0.25506,-0.994297 0.52551,-1.395491 0.25643,-0.380942 0.54065,-0.666403 0.85553,-0.882432 0.32586,-0.210252 0.62723,-0.36069 0.93846,-0.458088 0.30397,-0.08584 0.58656,-0.141772 0.82311,-0.150438 0.25478,-0.01449 0.43138,-7.25e-4 0.54287,0.01257 0.1345,0.02988 0.20503,0.01531 0.22662,-0.01531 0.0164,-0.05014 0.003,-0.07523 -0.0552,-0.100301 -0.0897,-0.02988 -0.28663,-0.05301 -0.57564,-0.08004 -0.28248,-0.03855 -0.61444,0 -0.98582,0.07329 -0.37709,0.08196 -0.76777,0.249783 -1.18787,0.487983 -0.42037,0.254593 -0.80238,0.642294 -1.15689,1.16886 -0.10881,0.159131 -0.19027,0.333689 -0.27228,0.506312 -0.099,-0.343318 -0.34123,-0.642289 -0.72737,-0.911358 -0.5225,-0.34911 -1.16559,-0.622042 -1.9186,-0.812024 -0.11974,-0.332719 -0.34166,-0.613363 -0.64306,-0.833246 -0.30137,-0.213151 -0.64238,-0.391555 -1.01223,-0.51307 -0.16129,-0.05014 -0.31238,-0.09934 -0.47362,-0.141772 -0.23018,-0.04918 -0.46148,-0.09932 -0.70334,-0.130181 -0.2983,-0.03565 -0.57034,-0.05208 -0.82832,-0.0617 0.003,0 0.005,0 0.008,-0.0022 0.48152,-0.169738 0.92111,-0.382867 1.3163,-0.651936 0.3824,-0.281603 0.70856,-0.578644 0.99112,-0.935472 0.26927,-0.352011 0.45356,-0.721379 0.55194,-1.103283 0,-0.0974 -0.0298,-0.126327 -0.11317,-0.08294 -0.15637,0.437837 -0.38202,0.818779 -0.69388,1.145714 -0.31045,0.324039 -0.66614,0.593108 -1.06163,0.819741 -0.41025,0.213151 -0.82168,0.381905 -1.25982,0.49474 -0.28362,0.08584 -0.5658,0.128268 -0.83439,0.157191 -0.15528,0.01449 -0.29801,0.02892 -0.45318,0.02892 -1.38748,0 -2.60466,-0.27004 -3.62519,-0.80624 -1.01832,-0.524642 -1.82524,-1.191042 -2.41855,-1.998249 0.72177,-1.003947 1.08834,-2.178592 1.08834,-3.523937 0,-0.56611 -0.11264,-1.019374 -0.33986,-1.3723472 -0.2116,-0.352971 -0.52256,-0.524642 -0.90523,-0.524642 -0.3816,0 -0.69399,0.171679 -0.90452,0.524642 -0.2269,0.3529732 -0.34054,0.8062392 -0.34054,1.3723472 0,1.345345 0.36725,2.51999 1.0894,3.523937 -0.59552,0.807207 -1.39984,1.47361 -2.41959,1.998252 -1.01985,0.536205 -2.23705,0.806237 -3.62481,0.806237 -0.15445,0 -0.29762,-0.01449 -0.45251,-0.02892 -0.26901,-0.02892 -0.55143,-0.07141 -0.82051,-0.157191 -0.43918,-0.112822 -0.86381,-0.281603 -1.25971,-0.49474 -0.41179,-0.226627 -0.76553,-0.495702 -1.07551,-0.819741 -0.31083,-0.326935 -0.53765,-0.707877 -0.69476,-1.145714 -0.0847,-0.04339 -0.11263,-0.01449 -0.11263,0.08294 0.0995,0.381904 0.28248,0.751275 0.55184,1.103283 0.28258,0.356828 0.60883,0.653869 0.99122,0.935472 0.28546,0.19385 0.60159,0.350078 0.93008,0.489915 -0.0678,-7.22e-4 -0.13149,-0.0052 -0.20284,-0.0052 -0.66225,0 -1.29432,0.169738 -1.88733,0.502452 -0.60276,0.331751 -0.97269,0.783093 -1.114,1.346308 -0.77373,0.169738 -1.42625,0.43109 -1.95851,0.783093 -0.39743,0.270039 -0.64981,0.579611 -0.75077,0.937402 -0.0823,-0.172609 -0.16321,-0.345256 -0.27064,-0.50342 -0.35451,-0.526566 -0.73653,-0.914255 -1.1569,-1.16886 -0.42009,-0.238219 -0.81031,-0.406011 -1.18786,-0.487982 -0.37138,-0.07329 -0.70334,-0.111865 -0.98582,-0.07329 -0.28855,0.02706 -0.48595,0.05014 -0.57565,0.08004 -0.0591,0.02515 -0.073,0.05014 -0.055,0.100301 0.0219,0.03089 0.0919,0.04535 0.22636,0.01531 0.11208,-0.01367 0.28893,-0.02706 0.54287,-0.01257 0.23647,0.0087 0.51914,0.0646 0.8231,0.150438 0.31083,0.0974 0.61222,0.247842 0.93847,0.458089 0.31498,0.21602 0.59899,0.501489 0.85553,0.882432 0.27091,0.401193 0.4521,0.877606 0.5255,1.39549 0.0796,0.528497 0.0511,1.056025 -0.0979,1.586454 -0.12084,0.488947 -0.33609,0.963433 -0.63825,1.433099 -0.40378,-0.07428 -0.78915,-0.110908 -1.15351,-0.110908 -0.32203,0 -0.68067,0.03956 -1.07852,0.110908 -0.39106,0.07619 -0.75271,0.197705 -1.07365,0.373225 -0.32318,0.173593 -0.59147,0.402156 -0.81031,0.678945 -0.21651,0.276779 -0.32884,0.607576 -0.32884,0.98851 0,0.100301 0.0191,0.192893 0.0273,0.28932 -0.24331,0.0066 -0.49128,-0.003 -0.74405,-0.02406 -0.23291,-0.02892 -0.44565,-0.06944 -0.6529,-0.129224 -0.27228,-0.0617 -0.54623,-0.16684 -0.79669,-0.292213 0.0987,-0.172636 0.17851,-0.350081 0.24822,-0.518849 0.15719,-0.382867 0.23319,-0.770558 0.2403,-1.146676 0.005,-0.538138 -0.0954,-0.961516 -0.31564,-1.28845 -0.31422,-0.466771 -0.5964,-0.704014 -0.87521,-0.731983 -0.269,-0.03182 -0.55222,0.05014 -0.84724,0.248825 -0.0421,0.02988 -0.0839,0.05591 -0.10908,0.08874 -0.11974,0.09549 -0.19683,0.210252 -0.24795,0.337544 -0.082,0.176491 -0.11591,0.353933 -0.11783,0.552602 -0.002,0.203473 0.0396,0.404084 0.10908,0.61818 0.0678,0.215064 0.18125,0.430128 0.31654,0.630722 0.31411,0.463882 0.64413,0.840961 1.01223,1.160178 -0.29462,0.383835 -0.69465,0.745488 -1.19162,1.079169 -0.32654,0.220859 -0.72821,0.399264 -1.1889,0.55743 -0.45203,0.150438 -0.91128,0.243987 -1.38405,0.271953 -0.45547,0.03089 -0.90345,-0.02132 -1.29257,-0.141772 -0.40719,-0.126354 -0.73008,-0.353935 -0.95651,-0.69148 -0.56244,-0.834208 -0.46561,-1.511221 0.30476,-2.032 0.0834,-0.05692 0.20311,-0.107053 0.3658,-0.138874 0.0673,-0.01449 0.0809,-0.03956 0.0634,-0.08969 -0.0282,-0.04051 -0.0446,-0.0617 -0.0785,-0.06944 -0.0673,0.01449 -0.14462,0.03666 -0.22444,0.07715 -0.0935,0.04535 -0.16293,0.07813 -0.2064,0.106097 -0.40949,0.276789 -0.65957,0.6124 -0.7237,0.995267 -0.0831,0.377082 0.056,0.834209 0.40544,1.353063 0.22635,0.337538 0.52849,0.625897 0.90066,0.837104 0.37717,0.218918 0.79227,0.354903 1.24774,0.41566 0.45549,0.06271 0.92863,0.03379 1.447,-0.08488 0.5014,-0.122471 1.00435,-0.352973 1.50121,-0.688587 0.62231,-0.420478 1.09025,-0.887249 1.43194,-1.425387 0.43696,0.303788 0.89997,0.513062 1.3739,0.623967 0.0577,0.01531 0.11454,0.02214 0.17031,0.03278 0.48634,-0.223757 0.98582,-0.437845 1.49588,-0.644224 -0.002,-0.01722 -0.005,-0.03379 -0.005,-0.05014 0,-0.295108 0.0877,-0.542963 0.26435,-0.74645 0.17222,-0.204457 0.39109,-0.368408 0.65774,-0.481243 0.2608,-0.117661 0.53948,-0.206371 0.8292,-0.265201 0.29308,-0.0559 0.57111,-0.08874 0.83737,-0.08874 0.231,0 0.46157,0.02023 0.69246,0.04825 -0.2094,0.229525 -0.45394,0.442662 -0.71917,0.644219 0.50556,-0.165884 1.02169,-0.324043 1.54498,-0.474489 0.003,-0.0036 0.005,-0.0066 0.008,-0.01066 0.003,7.21e-4 0.008,0.003 0.0109,0.0036 0.38163,-0.108967 0.76547,-0.218918 1.15577,-0.319208 -0.0886,-0.03565 -0.17113,-0.07715 -0.26353,-0.108011 -0.1684,-0.05692 -0.33338,-0.101258 -0.49607,-0.14754 0.30137,-0.48606 0.50438,-0.990442 0.60121,-1.49097 0.0697,-0.389622 0.0845,-0.765739 0.0536,-1.141859 0.0402,0.03762 0.0741,0.08004 0.11974,0.116704 0.3602,0.299925 0.81378,0.551635 1.366,0.742587 0.54169,0.182286 1.12409,0.311505 1.74653,0.391555 0.63246,0.07138 1.1949,0.111865 1.69668,0.111865 0.28217,0 0.5523,-0.01148 0.83333,-0.03182 0.98398,-0.05982 1.95862,-0.241089 2.91242,-0.521741 0.25233,-0.07037 0.49309,-0.151423 0.7339,-0.231467 0.96365,-0.321147 1.89785,-0.6828 2.79187,-1.103277 0.23045,0.109951 0.44112,0.210225 0.64229,0.308604 0.0301,0.02132 0.0498,0.03182 0.0809,0.04246 0.16977,0.100301 0.3605,0.189996 0.56127,0.280644 -0.19,0.101258 -0.3707,0.200602 -0.56127,0.301855 -0.57449,0.310543 -1.13808,0.579612 -1.7043,0.857361 0.54287,-0.02214 1.09025,-0.03762 1.64063,-0.04535 0.0191,-0.0096 0.0421,-0.01941 0.0637,-0.02988 0.33005,-0.161045 0.66189,-0.320185 0.98207,-0.491845 0.1222,-0.06077 0.24303,-0.120558 0.36436,-0.190952 0.23892,0.119574 0.46976,0.231466 0.70178,0.341398 0.2957,0.139831 0.58124,0.27004 0.87212,0.406014 0.29308,0.0096 0.58578,0.02023 0.87665,0.03565 -0.58204,-0.254594 -1.16375,-0.49956 -1.74877,-0.783093 -0.13095,-0.05787 -0.26217,-0.119602 -0.3929,-0.189996 0.14134,-0.08196 0.27201,-0.150438 0.3929,-0.230482 0.13942,-0.08199 0.28026,-0.161045 0.41211,-0.232423 0.26025,-0.150438 0.53081,-0.290283 0.8017,-0.4417 1.08535,0.482203 2.18041,0.8834 3.27445,1.224798 0.0191,0.01066 0.0511,0.01066 0.0798,0.02023 1.06537,0.323072 2.13905,0.482198 3.22437,0.482198 h 0.19054 c 0.45252,-0.0087 0.92382,-0.03956 1.43651,-0.08004 0.59223,-0.04918 1.13538,-0.161045 1.63688,-0.311505 0.50255,-0.161045 0.91387,-0.380942 1.25438,-0.661583 0.0246,-0.02214 0.0435,-0.04724 0.067,-0.07138 -0.029,0.372254 -0.0137,0.743555 0.0552,1.126421 0.0965,0.502458 0.29946,1.00491 0.60121,1.491941 -0.16239,0.04535 -0.32393,0.09161 -0.49156,0.146583 -0.093,0.03089 -0.17633,0.07233 -0.26599,0.10801 0.38991,0.102215 0.77414,0.210226 1.15536,0.319215 0.003,0 0.005,-7.22e-4 0.0109,-0.003 0.002,0.003 0.005,0.0057 0.008,0.0087 0.52406,0.151422 1.04049,0.309575 1.54681,0.47545 -0.26518,-0.201559 -0.51007,-0.414693 -0.71876,-0.644218 0.231,-0.02799 0.46444,-0.04825 0.69686,-0.04825 0.26107,0 0.54142,0.03278 0.8318,0.08874 0.29048,0.0588 0.57075,0.147541 0.83488,0.265201 0.26135,0.112849 0.48221,0.276787 0.65515,0.481244 0.17578,0.203473 0.2638,0.451341 0.2638,0.74645 0,0.01832 -0.003,0.03379 -0.005,0.05115 0.50938,0.206398 1.00857,0.420486 1.49413,0.643264 0.0566,-0.01066 0.11264,-0.01722 0.17032,-0.03278 0.4743,-0.110908 0.93693,-0.320179 1.3739,-0.623967 0.34169,0.538138 0.80962,1.004909 1.43193,1.425387 0.49686,0.335614 0.99982,0.566107 1.50121,0.688584 0.51838,0.118618 0.99197,0.147541 1.44739,0.08488 0.45508,-0.06077 0.87105,-0.196748 1.24735,-0.415661"
       inkscape:connector-curvature="0" />
    <path
       id="path1568"
       style="fill:#9d905b;fill-opacity:1;fill-rule:nonzero;stroke:none;stroke-width:0.09644055"
       d="m 67.679009,29.102849 c -0.36466,-0.370332 -0.81482,-0.630722 -1.35395,-0.746449 0.46485,0.241089 0.91581,0.490882 1.35395,0.746449"
       inkscape:connector-curvature="0" />
    <path
       id="path1570"
       style="fill:#9d905b;fill-opacity:1;fill-rule:nonzero;stroke:none;stroke-width:0.09644055"
       d="m 75.834209,31.425138 c -0.17058,-0.03472 -0.34527,-0.05402 -0.51886,-0.06364 -0.1263,-0.178431 -0.27283,-0.337544 -0.4359,-0.467739 -0.59601,-0.469663 -1.35017,-0.642294 -2.10001,-0.591178 -0.85667,0.0559 -1.70766,0.261346 -2.54968,0.48413 0.12438,0.09259 0.24467,0.188055 0.3658,0.283537 0.69464,-0.179389 1.39355,-0.329827 2.08823,-0.37612 0.82042,-0.05498 1.71441,0.154292 2.31524,0.66351 -0.69438,0.01722 -1.39646,0.188055 -2.05458,0.344291 -0.40194,0.09451 -0.80624,0.204457 -1.21195,0.31633 0.10962,0.09836 0.21268,0.200603 0.31911,0.300896 0.0273,-0.0066 0.056,-0.0164 0.0826,-0.02324 1.02488,-0.256535 2.13104,-0.605654 3.1996,-0.57479 0.2064,0.287391 0.33467,0.636499 0.3549,1.052165 0.003,0.107163 0.1755,0.41471 0.16402,0.164025 -0.0191,-0.39828 -0.12821,-0.821669 -0.31533,-1.202603 0.80525,0.08486 1.71373,0.551635 1.6848,1.503506 -0.0246,0.848692 -0.83133,1.391642 -1.61537,1.487105 -0.64133,0.07819 -1.22674,-0.08092 -1.71857,-0.400221 0.1438,0.188902 0.27581,0.379963 0.40987,0.5719 0.19765,0.08666 0.40698,0.154183 0.63265,0.184254 0.7339,0.0965 1.62502,-0.04729 2.12748,-0.649046 0.86217,-1.033849 0.0219,-2.756274 -1.22384,-3.007016"
       inkscape:connector-curvature="0" />
    <path
       id="path1572"
       style="fill:#9d905b;fill-opacity:1;fill-rule:nonzero;stroke:none;stroke-width:0.09644055"
       d="m 14.199739,30.893749 c -0.16376,0.130209 -0.31045,0.289321 -0.43631,0.467739 -0.17332,0.0096 -0.3473,0.02892 -0.51865,0.06364 -1.24659,0.250739 -2.08631,1.973178 -1.22442,3.007026 0.50293,0.60178 1.39318,0.745466 2.12738,0.649019 0.22581,-0.0298 0.43543,-0.09732 0.63324,-0.184254 0.13423,-0.191909 0.26573,-0.382862 0.40988,-0.571873 -0.49235,0.31922 -1.07784,0.478324 -1.71857,0.400221 -0.78437,-0.09541 -1.59091,-0.63844 -1.6154,-1.487104 -0.0295,-0.951883 0.87925,-1.418651 1.68511,-1.503518 -0.18809,0.380937 -0.29722,0.804307 -0.31575,1.202614 -0.0109,0.250685 0.15965,-0.05686 0.16375,-0.164025 0.0191,-0.415666 0.14872,-0.764782 0.35528,-1.052173 1.06837,-0.03089 2.17406,0.318252 3.19914,0.574787 0.0273,0.0066 0.0558,0.0164 0.0826,0.02324 0.10716,-0.100301 0.2094,-0.202516 0.31914,-0.300893 -0.40575,-0.111892 -0.8107,-0.221816 -1.21198,-0.316341 -0.65813,-0.156233 -1.3607,-0.326934 -2.05458,-0.344293 0.60044,-0.509205 1.49522,-0.718478 2.31535,-0.663508 0.69467,0.04628 1.39347,0.196748 2.08812,0.376117 0.12138,-0.09546 0.24139,-0.190952 0.3658,-0.283533 -0.84202,-0.222774 -1.69301,-0.428198 -2.54968,-0.484131 -0.75004,-0.05115 -1.50381,0.121515 -2.09941,0.591179"
       inkscape:connector-curvature="0" />
    <path
       id="path1574"
       style="fill:#9d905b;fill-opacity:1;fill-rule:nonzero;stroke:none;stroke-width:0.09644055"
       d="m 22.753529,28.3564 c -0.5391,0.115719 -0.98929,0.376117 -1.35395,0.746449 0.43814,-0.255578 0.8891,-0.505352 1.35395,-0.746449"
       inkscape:connector-curvature="0" />
    <path
       id="path1576"
       style="fill:#9d905b;fill-opacity:1;fill-rule:nonzero;stroke:none;stroke-width:0.09644055"
       d="m 22.736549,56.648205 c 0.076,0.2053 0.12849,0.42529 0.14462,0.65 0.0478,0.47737 -0.0612,0.91135 -0.3251,1.30001 -0.15473,0.23537 -0.34314,0.35394 -0.5508,0.36553 -0.21952,0.005 -0.3921,-0.0328 -0.52848,-0.12548 -0.0536,-0.0355 -0.10744,-0.0725 -0.14161,-0.10908 -0.0809,-0.0869 -0.13314,-0.16867 -0.17852,-0.26025 -0.0659,-0.15227 -0.10087,-0.32791 -0.0889,-0.50632 0,-0.18125 0.0396,-0.35394 0.0938,-0.5497 0.0651,-0.18617 0.15063,-0.35878 0.26463,-0.52852 0.27756,-0.41178 0.588,-0.7368 0.91996,-0.97597 0.17441,0.24002 0.30282,0.48125 0.39057,0.7397 z m 8.82845,3.79589 c 0.2901,-0.24987 0.66304,-0.4716 1.11323,-0.66157 0.44265,-0.193 0.94599,-0.33371 1.48623,-0.4234 0.37256,-0.0713 0.73306,-0.11099 1.09547,-0.13013 0.17059,-0.0109 0.34169,-0.0109 0.50216,-0.0109 0.98437,0 1.95862,0.14079 2.91243,0.42146 0.0219,0.0109 0.0391,0.0109 0.05,0.0191 0.97307,0.29221 1.95774,0.65385 2.96218,1.09554 -1.00444,0.54104 -2.00761,1.0136 -3.01232,1.41576 -0.10033,0.0396 -0.20148,0.0801 -0.31113,0.12056 -0.97425,0.3626 -2.00876,0.57091 -3.10346,0.61238 -0.14024,0.0109 -0.29125,0.0109 -0.44303,0.0109 -0.15965,0 -0.34054,0 -0.54019,-0.0109 -0.2012,-0.0109 -0.41178,-0.0298 -0.64344,-0.0492 0,-0.0424 -0.008,-0.0809 -0.0219,-0.13122 -0.008,-0.0405 -0.008,-0.0828 -0.008,-0.12056 0,-0.40118 0.25096,-0.76381 0.76285,-1.09651 0.2608,-0.16976 0.56176,-0.29899 0.89399,-0.37903 0.32212,-0.082 0.67171,-0.12138 1.0646,-0.12138 0.36168,0 0.60124,0.0109 0.72371,0.0396 0.12958,0.0405 0.26025,0.0694 0.41063,0.11181 0.10088,0.05 0.17114,0.05 0.21214,0.0191 0.0498,-0.0317 0.038,-0.0828 -0.0309,-0.14188 -0.35268,-0.29221 -0.90413,-0.44265 -1.65684,-0.44265 -0.231,0 -0.47209,0.0191 -0.72332,0.0511 -0.0899,0.008 -0.17031,0.0309 -0.26053,0.0492 -0.35191,0.0618 -0.66228,0.16102 -0.94484,0.31247 -0.28026,0.13969 -0.52097,0.34043 -0.70257,0.59213 -0.19054,0.24986 -0.28035,0.56129 -0.28035,0.9432 v 0.22088 c -0.50281,-0.10798 -0.95454,-0.2796 -1.35613,-0.50238 -0.39144,-0.22963 -0.5933,-0.56129 -0.5933,-0.97212 0,-0.31151 0.15063,-0.59407 0.44295,-0.84385 z m 10.96413,0.68376 c 0.22225,0.0973 0.4634,0.20913 0.71386,0.32983 0.12083,0.0703 0.25205,0.13122 0.3929,0.20148 -0.13068,0.0694 -0.26135,0.15145 -0.3929,0.21979 -0.3518,0.20339 -0.73237,0.41277 -1.14369,0.64325 -0.59407,0.32212 -1.18631,0.63169 -1.78751,0.92294 -0.564,0.27201 -1.10531,0.50151 -1.63727,0.69342 -0.0407,0.0109 -0.0899,0.0298 -0.14052,0.0511 -0.57258,0.1889 -1.0544,0.29125 -1.45714,0.29125 -0.63253,0 -1.23453,-0.0809 -1.81693,-0.26052 -0.0705,-0.0191 -0.12958,-0.0405 -0.2012,-0.0703 -0.6423,-0.21323 -1.08418,-0.53333 -1.33511,-0.9567 0.29122,0.0416 0.59339,0.082 0.89322,0.11099 0.22116,0.0219 0.43166,0.0416 0.64306,0.0416 0.0796,0.0109 0.17059,0.0109 0.25123,0.0109 1.08456,0 2.13982,-0.17058 3.16336,-0.51113 0.13997,-0.0416 0.29084,-0.0908 0.43215,-0.15226 1.15496,-0.43205 2.3002,-0.95283 3.42246,-1.56426 z m 0.71386,-0.40216 c 0.1315,-0.0713 0.27228,-0.15145 0.40197,-0.2228 0.22089,-0.11864 0.44112,-0.25068 0.66419,-0.37901 0.0396,-0.0328 0.0899,-0.0618 0.14025,-0.0927 0.21022,0.10115 0.41063,0.21132 0.61181,0.31151 0.0705,0.0416 0.15117,0.0809 0.23018,0.12138 0.12083,0.0703 0.25205,0.12931 0.3819,0.18999 -0.12985,0.0714 -0.26107,0.13013 -0.3819,0.19191 -0.15992,0.0694 -0.32143,0.15036 -0.48114,0.2198 -0.17086,0.0694 -0.34246,0.14953 -0.50101,0.24111 -0.11236,0.0511 -0.22308,0.11099 -0.33379,0.17059 -0.19,-0.10908 -0.38008,-0.20066 -0.56089,-0.27009 -0.0604,-0.0219 -0.12083,-0.05 -0.1714,-0.0725 -0.12958,-0.0599 -0.2608,-0.11864 -0.39137,-0.20066 0.13068,-0.0694 0.26162,-0.13996 0.39137,-0.2094 z m 3.33405,0.36936 c 0.75378,0.36263 1.49627,0.69437 2.22981,0.99527 0.48103,0.20148 0.96439,0.39252 1.43716,0.56419 0.75195,0.25944 1.48497,0.44941 2.20868,0.55066 0.43215,0.0599 0.85252,0.0916 1.27483,0.0916 0.54286,0 1.04426,-0.0317 1.50728,-0.10306 -0.23155,0.42338 -0.64424,0.74358 -1.22625,0.9567 -0.45096,0.16977 -0.97453,0.27969 -1.55586,0.32018 -0.16184,0.0109 -0.3307,0.0109 -0.51384,0.0109 -0.96211,0 -2.00714,-0.24112 -3.132,-0.72428 -0.05,-0.0191 -0.10087,-0.0396 -0.14024,-0.0599 -1.07483,-0.4716 -2.20012,-0.99525 -3.37544,-1.56619 -0.12028,-0.0607 -0.24986,-0.11947 -0.37149,-0.19191 0.12165,-0.0599 0.25123,-0.12822 0.37149,-0.19 0.15063,-0.079 0.2927,-0.15035 0.44295,-0.22963 0.27009,-0.13204 0.55309,-0.27201 0.84281,-0.42434 z m 2.22981,-1.02226 c 0.45162,-0.18234 0.90296,-0.34139 1.35537,-0.49281 0.7339,-0.25069 1.49637,-0.41181 2.29047,-0.49183 0.40156,-0.0416 0.80391,-0.0607 1.21496,-0.0607 0.43136,0 0.91356,0.0405 1.4251,0.11099 0.51239,0.0694 0.9754,0.19109 1.40629,0.34043 0.43216,0.16102 0.78251,0.35296 1.06431,0.58347 0.28133,0.23045 0.42192,0.50243 0.42192,0.81394 0,0.44268 -0.21022,0.79372 -0.64275,1.05411 -0.42078,0.26135 -0.89391,0.45134 -1.39569,0.58346 -0.0191,-0.36164 -0.13068,-0.66545 -0.34169,-0.91523 -0.20914,-0.25178 -0.46149,-0.4523 -0.75312,-0.61238 -0.29038,-0.15145 -0.61288,-0.27092 -0.95457,-0.3414 -0.33986,-0.0703 -0.67171,-0.10989 -0.98399,-0.10989 -0.12958,0 -0.28034,0.0109 -0.46077,0.0191 -0.0219,0.0109 -0.0508,0.0109 -0.0708,0.0109 -0.21022,0.0191 -0.43215,0.0588 -0.64385,0.11099 -0.21952,0.05 -0.44032,0.10908 -0.64073,0.18999 -0.21214,0.0694 -0.39328,0.17059 -0.53352,0.29222 -0.0692,0.0675 -0.0795,0.11946 -0.0498,0.16101 0.0301,0.0396 0.0916,0.0396 0.16977,0 0.51353,-0.33272 1.10531,-0.52367 1.76873,-0.5526 0.0899,-0.0109 0.18043,-0.0109 0.27092,-0.0109 0.25068,0 0.53302,0.0191 0.84347,0.079 0.31083,0.05 0.61219,0.14188 0.88338,0.28065 0.27119,0.13204 0.49205,0.31148 0.67209,0.54391 0.17114,0.23045 0.2619,0.52176 0.2619,0.88242 v 0.0618 c -0.231,0.0377 -0.43098,0.0694 -0.62231,0.0886 -0.19027,0.0191 -0.36168,0.0317 -0.50219,0.0317 -0.62311,0 -1.21573,-0.0317 -1.8072,-0.10115 -0.70296,-0.0889 -1.37688,-0.22171 -2.03913,-0.41178 -0.54131,-0.1602 -1.07368,-0.33177 -1.60671,-0.52174 -0.64306,-0.23155 -1.26539,-0.49185 -1.88781,-0.78406 0.62242,-0.29995 1.25525,-0.58251 1.88781,-0.83229 z m -1.4798,5.20973 c -1.13134,0.50823 -2.06595,1.24503 -2.7873,2.23645 -0.72226,-0.99142 -1.65687,-1.72822 -2.78859,-2.23645 -0.92592,-0.4012 -1.84134,-0.63458 -2.75376,-0.71463 0.60495,-0.13997 1.2107,-0.32403 1.81578,-0.58926 0.79331,-0.35199 1.60668,-0.73294 2.42981,-1.14475 0.3523,-0.17934 0.70219,-0.37226 1.06616,-0.56321 0.0899,-0.0396 0.16922,-0.0897 0.25916,-0.1397 0.24194,0.12056 0.48374,0.24003 0.723,0.36165 0.47274,0.23155 0.94434,0.45233 1.4172,0.6722 0.70296,0.33273 1.40553,0.64325 2.09834,0.91425 0.48289,0.19109 0.96923,0.34527 1.45299,0.47835 -0.97608,0.0626 -1.95862,0.29896 -2.93276,0.72524 z m -1.74006,5.8742 c 0,0.59308 -0.1129,1.01936 -0.32589,1.28745 -0.22635,0.25561 -0.46714,0.38095 -0.72135,0.38095 -0.25506,0 -0.49582,-0.12548 -0.72226,-0.38095 -0.21296,-0.26818 -0.32548,-0.69437 -0.32548,-1.28745 0,-1.16212 0.35413,-2.23744 1.04774,-3.21342 0.69388,0.97598 1.04724,2.0513 1.04724,3.21342 z m 21.14611,-15.24822 c 0.33032,0.2392 0.6423,0.56416 0.9192,0.97598 0.11345,0.16976 0.19874,0.34234 0.26408,0.52848 0.0549,0.19574 0.0946,0.3684 0.0946,0.54971 0.0109,0.17851 -0.0219,0.35393 -0.0894,0.50631 -0.0459,0.0916 -0.0973,0.1736 -0.17851,0.26026 -0.035,0.0366 -0.088,0.0733 -0.14188,0.10907 -0.13642,0.0927 -0.309,0.13204 -0.5286,0.12548 -0.20667,-0.0109 -0.39552,-0.13013 -0.55,-0.3655 -0.2649,-0.38866 -0.37294,-0.82264 -0.32587,-1.30003 0.0164,-0.22472 0.0694,-0.44459 0.14435,-0.65001 0.088,-0.25834 0.21733,-0.49956 0.39221,-0.7397 z m -49.71066,-2.33003 c -0.37294,0.21132 -0.67431,0.49957 -0.90066,0.83713 -0.34929,0.51884 -0.48866,0.97598 -0.40542,1.35304 0.0642,0.38289 0.31419,0.71849 0.72368,0.99528 0.0437,0.0279 0.11291,0.0607 0.2064,0.10607 0.0798,0.0405 0.15637,0.0626 0.22444,0.0771 0.0339,-0.008 0.05,-0.029 0.0785,-0.0694 0.0164,-0.05 0.003,-0.0752 -0.0634,-0.0888 -0.16266,-0.0328 -0.28248,-0.0828 -0.3658,-0.13969 -0.77037,-0.52078 -0.8672,-1.19779 -0.30476,-2.03199 0.22635,-0.33757 0.54935,-0.56515 0.95651,-0.69151 0.38912,-0.12055 0.8371,-0.1725 1.2926,-0.14188 0.47275,0.0279 0.93199,0.12138 1.38402,0.27283 0.46069,0.15719 0.86236,0.33562 1.18891,0.55648 0.49696,0.33464 0.89699,0.69533 1.19161,1.07915 -0.3681,0.31922 -0.69812,0.69631 -1.01223,1.1602 -0.13532,0.20066 -0.24877,0.41564 -0.31651,0.6307 -0.0697,0.21406 -0.11154,0.41471 -0.10908,0.61819 0.002,0.19874 0.0358,0.37613 0.11783,0.5526 0.0511,0.12739 0.12821,0.24193 0.24795,0.33756 0.0246,0.0328 0.067,0.0588 0.10908,0.0888 0.29499,0.19874 0.57824,0.28062 0.84721,0.24877 0.27882,-0.0279 0.56099,-0.26518 0.87521,-0.73199 0.22034,-0.32693 0.32056,-0.75031 0.31564,-1.28844 -0.008,-0.37614 -0.0831,-0.76381 -0.2403,-1.1467 -0.0697,-0.16867 -0.14953,-0.3462 -0.24822,-0.51884 0.25041,-0.12548 0.52436,-0.23045 0.79669,-0.29221 0.20722,-0.0599 0.4201,-0.10033 0.65291,-0.12931 0.25287,-0.0219 0.50063,-0.0309 0.74404,-0.0246 -0.008,0.0965 -0.0273,0.1889 -0.0273,0.28931 0,0.38095 0.10962,0.71173 0.32887,0.98853 0.2187,0.27676 0.49232,0.50533 0.83324,0.67892 0.3391,0.17551 0.69437,0.29705 1.06991,0.37324 0.38316,0.0713 0.73458,0.11099 1.05411,0.11099 0.36725,0 0.75339,-0.0366 1.15872,-0.11099 0.30175,0.46966 0.51731,0.94416 0.63825,1.43311 0.14899,0.53041 0.17742,1.05794 0.0979,1.58645 -0.0733,0.51884 -0.25451,0.99429 -0.52551,1.39547 -0.25643,0.38095 -0.54057,0.66643 -0.85553,0.88245 -0.32627,0.21023 -0.62764,0.3607 -0.93846,0.4581 -0.304,0.0858 -0.58656,0.14188 -0.82314,0.15035 -0.25396,0.0137 -0.43089,0.002 -0.54286,-0.0137 -0.1345,-0.0298 -0.20504,-0.0164 -0.22636,0.0164 -0.0191,0.05 -0.005,0.0752 0.0549,0.10033 0.0897,0.0298 0.2871,0.053 0.57565,0.0801 0.28247,0.0385 0.61441,0 0.98581,-0.0733 0.37756,-0.082 0.76775,-0.24986 1.18784,-0.488 0.4204,-0.25451 0.80241,-0.64229 1.15692,-1.16887 0.10881,-0.1591 0.19027,-0.33368 0.27201,-0.50629 0.0995,0.34333 0.34168,0.6423 0.72784,0.91135 0.52252,0.34913 1.16597,0.62204 1.91906,0.81203 0.11946,0.33273 0.34131,0.61337 0.64268,0.83325 0.30138,0.21323 0.64229,0.39155 1.01224,0.51307 0.16129,0.05 0.31227,0.0992 0.47352,0.14188 0.23018,0.0492 0.4611,0.0992 0.70337,0.13013 0.29877,0.0355 0.57072,0.053 0.8284,0.0626 -0.003,0 -0.005,0 -0.008,7.1e-4 -0.48103,0.16977 -0.92111,0.38286 -1.31621,0.65194 -0.3824,0.28161 -0.70865,0.57866 -0.99121,0.93547 -0.26927,0.35202 -0.45358,0.72138 -0.55183,1.10328 0,0.0973 0.0298,0.12739 0.1129,0.0828 0.15665,-0.43783 0.38199,-0.81878 0.69437,-1.14571 0.30996,-0.32403 0.66562,-0.59311 1.06122,-0.81974 0.41017,-0.21323 0.82157,-0.38191 1.25971,-0.49475 0.28362,-0.0858 0.56583,-0.12822 0.83439,-0.15719 0.15528,-0.0137 0.29801,-0.029 0.45359,-0.029 1.3871,0 2.60427,0.27009 3.62481,0.80626 1.01791,0.52464 1.8256,1.19104 2.41863,1.99823 -0.72188,1.00395 -1.08844,2.17861 -1.08844,3.52394 0,0.56706 0.1129,1.01939 0.33986,1.37234 0.21159,0.35298 0.52252,0.52466 0.90528,0.52466 0.38163,0 0.6939,-0.17168 0.90443,-0.52466 0.22717,-0.35295 0.34062,-0.80528 0.34062,-1.37234 0,-1.34533 -0.36733,-2.51999 -1.08948,-3.52394 0.59561,-0.80719 1.39982,-1.47359 2.42008,-1.99823 1.01936,-0.53622 2.23653,-0.80626 3.62443,-0.80626 0.15446,0 0.2976,0.0137 0.45238,0.029 0.269,0.029 0.55156,0.0713 0.82054,0.15719 0.43928,0.1129 0.86381,0.28163 1.25971,0.49475 0.41178,0.22663 0.76553,0.49571 1.07597,0.81974 0.31037,0.32693 0.53757,0.70788 0.69429,1.14571 0.0848,0.0443 0.11263,0.0137 0.11263,-0.0828 -0.0995,-0.3819 -0.28258,-0.75126 -0.55194,-1.10328 -0.28256,-0.35681 -0.60872,-0.65386 -0.99112,-0.93547 -0.28554,-0.19382 -0.6017,-0.35008 -0.93016,-0.48991 0.0678,7.1e-4 0.13149,0.005 0.20257,0.005 0.66225,0 1.29443,-0.16977 1.88694,-0.50247 0.60277,-0.33176 0.97311,-0.7831 1.11439,-1.34631 0.77373,-0.16977 1.42702,-0.43109 1.95851,-0.78308 0.39754,-0.2701 0.64992,-0.57961 0.75126,-0.93741 0.0817,0.1725 0.16266,0.34525 0.2701,0.50342 0.35454,0.52655 0.73652,0.91425 1.15692,1.16885 0.42009,0.2381 0.81077,0.40601 1.18787,0.488 0.37138,0.0733 0.70333,0.11181 0.98579,0.0733 0.28903,-0.0273 0.48529,-0.05 0.5746,-0.0801 0.0601,-0.0246 0.0738,-0.05 0.0563,-0.10033 -0.0219,-0.0309 -0.0924,-0.0454 -0.22718,-0.0164 -0.11099,0.0137 -0.28778,0.0273 -0.54248,0.0137 -0.23647,-0.008 -0.51914,-0.0645 -0.82313,-0.15036 -0.31121,-0.0973 -0.61258,-0.24795 -0.93844,-0.45809 -0.31491,-0.21597 -0.599,-0.50148 -0.85553,-0.88243 -0.27037,-0.4012 -0.45203,-0.87665 -0.52551,-1.39549 -0.0795,-0.52849 -0.0511,-1.05602 0.0979,-1.58645 0.1211,-0.48896 0.33562,-0.96343 0.63814,-1.43311 0.40456,0.0743 0.78918,0.11099 1.15391,0.11099 0.32239,0 0.6803,-0.0396 1.07811,-0.11099 0.39145,-0.0763 0.75233,-0.19765 1.0725,-0.37322 0.32327,-0.17359 0.59265,-0.40216 0.81119,-0.67895 0.21706,-0.27679 0.32922,-0.60757 0.32922,-0.98852 0,-0.10033 -0.0191,-0.193 -0.0273,-0.28931 0.2433,-0.005 0.4909,0.003 0.74328,0.0246 0.234,0.029 0.44603,0.0694 0.65404,0.12931 0.27147,0.0618 0.5447,0.16675 0.79643,0.29221 -0.0995,0.1725 -0.17852,0.35008 -0.24877,0.51886 -0.15692,0.38286 -0.23292,0.77056 -0.2403,1.14667 -0.005,0.53814 0.0957,0.96152 0.31575,1.28844 0.31411,0.46676 0.5959,0.70403 0.87586,0.73199 0.26791,0.0317 0.55145,-0.05 0.84607,-0.24877 0.0424,-0.0298 0.0845,-0.056 0.11017,-0.0888 0.11974,-0.0954 0.19656,-0.21022 0.24741,-0.33753 0.0823,-0.1766 0.11645,-0.35394 0.11782,-0.5526 0.002,-0.20339 -0.0396,-0.4041 -0.1088,-0.61821 -0.0678,-0.21515 -0.18152,-0.43013 -0.31643,-0.6307 -0.31419,-0.46389 -0.64498,-0.84099 -1.01261,-1.16018 0.29491,-0.38384 0.69464,-0.74453 1.19074,-1.07917 0.32703,-0.22089 0.72939,-0.39927 1.19008,-0.55646 0.45211,-0.15145 0.91058,-0.24494 1.38412,-0.27283 0.45432,-0.0309 0.90258,0.0219 1.29211,0.14189 0.40727,0.1263 0.73043,0.35393 0.95572,0.69147 0.5632,0.8342 0.46678,1.51122 -0.30359,2.032 -0.0839,0.0569 -0.20311,0.10716 -0.36618,0.13996 -0.0662,0.0137 -0.0806,0.0386 -0.0626,0.0888 0.0284,0.0405 0.0435,0.0618 0.0779,0.0694 0.0675,-0.0137 0.14379,-0.0366 0.22444,-0.0771 0.0935,-0.0454 0.16211,-0.0782 0.2053,-0.10607 0.41026,-0.27677 0.66042,-0.61239 0.72406,-0.99525 0.0848,-0.3771 -0.056,-0.83423 -0.40456,-1.35307 -0.22718,-0.33754 -0.52857,-0.62589 -0.90151,-0.8371 -0.37671,-0.21897 -0.7915,-0.3549 -1.24738,-0.41567 -0.45577,-0.0626 -0.92825,-0.0339 -1.44659,0.0847 -0.5014,0.12247 -1.00436,0.35298 -1.50121,0.6886 -0.62311,0.42048 -1.09025,0.88724 -1.43232,1.42538 -0.43661,-0.30378 -0.90001,-0.51307 -1.3739,-0.62398 -0.0571,-0.0164 -0.11482,-0.0219 -0.16977,-0.0328 -0.48636,0.22362 -0.98707,0.43786 -1.49599,0.64423 0.002,0.0164 0.005,0.0339 0.005,0.05 0,0.29511 -0.0875,0.5439 -0.2649,0.7474 -0.17277,0.2034 -0.3903,0.36745 -0.65744,0.48125 -0.26025,0.11673 -0.53909,0.20531 -0.82841,0.26436 -0.29347,0.0569 -0.57141,0.0886 -0.8374,0.0886 -0.23127,0 -0.46146,-0.0191 -0.69284,-0.0484 0.20941,-0.22963 0.45397,-0.44267 0.71878,-0.64423 -0.50516,0.16594 -1.0213,0.32403 -1.5441,0.47449 -0.003,0.003 -0.008,0.005 -0.0109,0.0109 -0.003,-7.4e-4 -0.008,-0.003 -0.0109,-0.003 -0.38201,0.10907 -0.76594,0.21897 -1.15624,0.31922 0.0886,0.0355 0.17114,0.0782 0.26381,0.10798 0.16813,0.0569 0.333,0.10115 0.49571,0.14762 -0.30137,0.48606 -0.5044,0.99044 -0.60121,1.49096 -0.0697,0.38961 -0.0845,0.76671 -0.0536,1.14186 -0.0402,-0.0377 -0.0741,-0.0801 -0.11974,-0.11673 -0.36011,-0.29992 -0.81367,-0.55165 -1.36638,-0.7426 -0.54131,-0.18234 -1.1237,-0.31151 -1.74566,-0.39155 -0.63333,-0.0714 -1.19538,-0.11181 -1.69716,-0.11181 -0.28218,0 -0.55233,0.0109 -0.83333,0.0317 -0.98399,0.0599 -1.95813,0.24112 -2.91243,0.52176 -0.25232,0.0713 -0.49308,0.15145 -0.73343,0.23155 -0.96401,0.32113 -1.89832,0.68377 -2.79223,1.10329 -0.23073,-0.1099 -0.44122,-0.21023 -0.6424,-0.30862 -0.0301,-0.0219 -0.0498,-0.0317 -0.0809,-0.0424 -0.17004,-0.10033 -0.36058,-0.1889 -0.56137,-0.28065 0.18999,-0.10114 0.37072,-0.20065 0.56137,-0.30186 0.5745,-0.31052 1.138,-0.57961 1.70419,-0.85735 -0.54284,0.0219 -1.09016,0.0377 -1.64055,0.0462 -0.0219,0.008 -0.0426,0.0191 -0.0637,0.029 -0.33002,0.16102 -0.66195,0.32018 -0.98216,0.49282 -0.1222,0.0599 -0.24275,0.11946 -0.36394,0.18999 -0.23948,-0.11974 -0.47015,-0.23045 -0.70219,-0.34139 -0.29568,-0.13969 -0.58125,-0.27009 -0.87212,-0.40602 -0.29309,-0.0109 -0.58579,-0.0191 -0.87663,-0.0355 0.58239,0.25451 1.16373,0.49953 1.74875,0.78308 0.13149,0.0579 0.26216,0.11946 0.39289,0.18999 -0.14079,0.082 -0.27201,0.15036 -0.39289,0.23046 -0.13942,0.082 -0.28027,0.16102 -0.41209,0.23346 -0.26025,0.14954 -0.53081,0.28934 -0.80172,0.44074 -1.08533,-0.48123 -2.18041,-0.88339 -3.27443,-1.22481 -0.0191,-0.0109 -0.0511,-0.0109 -0.0801,-0.0191 -1.06501,-0.32308 -2.13867,-0.48221 -3.22402,-0.48221 h -0.19054 c -0.45249,0.008 -0.92294,0.0405 -1.43648,0.0809 -0.59215,0.0484 -1.1354,0.1602 -1.6368,0.31056 -0.50254,0.16101 -0.91395,0.38094 -1.25449,0.66156 -0.0246,0.0219 -0.0432,0.0473 -0.0667,0.0714 0.0287,-0.37225 0.0137,-0.74355 -0.0558,-1.12641 -0.0965,-0.50246 -0.29946,-1.00493 -0.60123,-1.49194 0.16265,-0.0454 0.32433,-0.0916 0.49166,-0.14653 0.093,-0.0298 0.1766,-0.0725 0.26599,-0.10799 -0.38991,-0.10224 -0.77411,-0.21022 -1.15536,-0.31921 -0.003,0 -0.005,7.1e-4 -0.0109,0.003 -0.002,-0.003 -0.005,-0.005 -0.008,-0.008 -0.52395,-0.15145 -1.04049,-0.30957 -1.5468,-0.47546 0.26517,0.20148 0.51008,0.41469 0.71916,0.64424 -0.23127,0.0279 -0.46484,0.0484 -0.69727,0.0484 -0.26107,0 -0.54131,-0.0317 -0.8318,-0.0886 -0.29048,-0.0588 -0.57072,-0.14762 -0.83477,-0.26435 -0.26135,-0.11372 -0.48221,-0.27775 -0.65514,-0.48125 -0.17606,-0.20339 -0.26381,-0.4523 -0.26381,-0.74741 0,-0.0164 0.003,-0.0339 0.005,-0.0511 -0.50903,-0.20639 -1.00848,-0.42047 -1.49405,-0.64325 -0.056,0.0109 -0.11263,0.0164 -0.17031,0.0328 -0.47429,0.11099 -0.93692,0.32017 -1.37388,0.62398 -0.34169,-0.53814 -0.80963,-1.00493 -1.43197,-1.42541 -0.49685,-0.33562 -0.99978,-0.5661 -1.50118,-0.68857 -0.51837,-0.11865 -0.99151,-0.14763 -1.447,-0.0847 -0.4555,0.0607 -0.87057,0.19683 -1.24774,0.41564"
       inkscape:connector-curvature="0" />
    <path
       id="path1578"
       style="fill:#9d905b;fill-opacity:1;fill-rule:nonzero;stroke:none;stroke-width:0.09644055"
       d="m 21.399579,53.252535 c 0.36466,0.36935 0.81485,0.62974 1.35395,0.74546 -0.46485,-0.24111 -0.91581,-0.49087 -1.35395,-0.74546"
       inkscape:connector-curvature="0" />
    <path
       id="path1580"
       style="fill:#9d905b;fill-opacity:1;fill-rule:nonzero;stroke:none;stroke-width:0.09644055"
       d="m 13.244779,50.929285 c 0.17141,0.0347 0.34467,0.0541 0.51865,0.0637 0.12575,0.17851 0.27255,0.33753 0.43631,0.46771 0.5956,0.46969 1.34937,0.6423 2.0994,0.5912 0.85668,-0.0558 1.70767,-0.26134 2.54969,-0.48414 -0.12439,-0.0927 -0.2444,-0.18809 -0.3658,-0.28355 -0.69465,0.17934 -1.39345,0.32983 -2.08812,0.37614 -0.82013,0.055 -1.71491,-0.15418 -2.31535,-0.66351 0.69388,-0.0164 1.39645,-0.18808 2.05458,-0.34432 0.40197,-0.0946 0.80623,-0.20448 1.21195,-0.31632 -0.10963,-0.0973 -0.21214,-0.20065 -0.31911,-0.30087 -0.0273,0.005 -0.056,0.0164 -0.0826,0.0219 -1.02508,0.25642 -2.13077,0.60563 -3.19914,0.57477 -0.2064,-0.2874 -0.33571,-0.6365 -0.35528,-1.05217 -0.005,-0.10716 -0.17523,-0.41468 -0.1643,-0.16402 0.0191,0.3983 0.12794,0.82264 0.31613,1.20263 -0.80585,-0.0847 -1.71452,-0.55165 -1.68511,-1.50354 0.0246,-0.84866 0.83103,-1.39161 1.6154,-1.4871 0.64074,-0.0782 1.22622,0.0809 1.71857,0.40022 -0.14434,-0.1889 -0.27573,-0.37996 -0.40987,-0.57187 -0.19792,-0.0869 -0.40757,-0.15419 -0.63325,-0.18426 -0.7342,-0.0965 -1.62444,0.0473 -2.12737,0.64905 -0.8619,1.03385 -0.0219,2.75627 1.22442,3.00701"
       inkscape:connector-curvature="0" />
    <path
       id="path1582"
       style="fill:#9d905b;fill-opacity:1;fill-rule:nonzero;stroke:none;stroke-width:0.09644055"
       d="m 74.878469,51.460645 c 0.16402,-0.13013 0.30959,-0.28931 0.43688,-0.46772 0.17277,-0.0109 0.34718,-0.029 0.51788,-0.0637 1.247,-0.25068 2.08601,-1.97316 1.22384,-3.00701 -0.50246,-0.60181 -1.3926,-0.74549 -2.12652,-0.64904 -0.22554,0.0298 -0.43494,0.0973 -0.63265,0.18425 -0.13505,0.19191 -0.26627,0.38286 -0.40987,0.57187 0.49186,-0.31919 1.07723,-0.47832 1.71761,-0.40022 0.78407,0.0954 1.59126,0.63844 1.61538,1.48713 0.0298,0.95187 -0.87858,1.41863 -1.68386,1.50351 0.18699,-0.37999 0.29607,-0.80432 0.31537,-1.20263 0.0109,-0.25068 -0.1602,0.0569 -0.16485,0.16402 -0.0191,0.41567 -0.14762,0.76477 -0.35489,1.05217 -1.06857,0.0309 -2.17377,-0.31826 -3.19933,-0.57477 -0.0246,-0.005 -0.055,-0.0164 -0.0817,-0.0219 -0.10744,0.10033 -0.20941,0.20339 -0.31911,0.30088 0.40571,0.11181 0.81077,0.2217 1.21157,0.31632 0.65752,0.15637 1.36058,0.32695 2.054,0.34431 -0.59987,0.50919 -1.49484,0.71849 -2.31428,0.66351 -0.69468,-0.0462 -1.39424,-0.19683 -2.08891,-0.37614 -0.12084,0.0954 -0.24112,0.19109 -0.36512,0.28355 0.84164,0.2228 1.69301,0.42819 2.54968,0.48415 0.74984,0.0511 1.504,-0.12138 2.09903,-0.5912"
       inkscape:connector-curvature="0" />
    <path
       id="path1584"
       style="fill:#9d905b;fill-opacity:1;fill-rule:nonzero;stroke:none;stroke-width:0.09644055"
       d="m 66.323909,53.997995 c 0.54028,-0.11563 0.99006,-0.37611 1.3551,-0.74546 -0.43814,0.25451 -0.89017,0.50437 -1.3551,0.74546"
       inkscape:connector-curvature="0" />
    <path
       id="path1586"
       style="fill:#9d905b;fill-opacity:1;fill-rule:nonzero;stroke:none;stroke-width:0.09644055"
       d="m 44.539339,25.122745 c -16.16854,0 -29.32063,7.201216 -29.32063,16.05447 0,8.85324 13.15209,16.05349 29.32063,16.05349 16.16845,0 29.31977,-7.20025 29.31977,-16.05349 0,-8.853254 -13.15132,-16.05447 -29.31977,-16.05447 z m 0,32.41078 c -16.33461,0 -29.62421,-7.33817 -29.62421,-16.35631 0,-9.020092 13.2896,-16.35729 29.62421,-16.35729 16.33463,0 29.62354,7.337198 29.62354,16.35729 0,9.01814 -13.28891,16.35631 -29.62354,16.35631"
       inkscape:connector-curvature="0" />
    <g
       aria-label="r e n t a l s"
       transform="matrix(0.26458333,0,0,0.26458333,-66.369711,-60.616636)"
       style="font-style:normal;font-variant:normal;font-weight:normal;font-stretch:normal;font-size:16px;line-height:1.25;font-family:Jura;-inkscape-font-specification:Jura;letter-spacing:0px;word-spacing:0px;fill:#9f915a;fill-opacity:1;stroke:none"
       id="flowRoot1594">
      <path
         d="m 385.19922,418.84155 q -1.21875,0 -1.875,0.71875 -0.64063,0.71875 -0.64063,2.0625 v 3.1875 q 0,0.53125 -0.40625,0.53125 -0.40625,0 -0.40625,-0.53125 v -6.34375 q 0,-0.54687 0.375,-0.54687 0.4375,0 0.4375,0.5625 v 0.53125 q 0.92188,-0.98438 2.51563,-0.98438 h 0.71875 q 0.54687,0 0.54687,0.40625 0,0.40625 -0.54687,0.40625 z"
         style=""
         id="path1104" />
      <path
         d="m 399.15234,420.77905 v 0.625 h -6.59375 v 1.0625 q 0,0.67188 0.125,1.0625 0.14063,0.39063 0.51563,0.59375 0.375,0.1875 0.79687,0.25 0.4375,0.0469 1.23438,0.0469 h 2.09375 q 0.5,0 0.67187,-0.21875 0.1875,-0.21875 0.1875,-0.75 0,-0.51563 0.40625,-0.51563 0.40625,0 0.40625,0.5625 0,0.35938 -0.0469,0.625 -0.0469,0.26563 -0.20313,0.54688 -0.14062,0.26562 -0.48437,0.42187 -0.32813,0.14063 -0.82813,0.14063 h -2.20312 q -1.79688,0 -2.64063,-0.54688 -0.84375,-0.5625 -0.84375,-2.20312 v -1.70313 q 0,-1.64062 0.84375,-2.1875 0.84375,-0.5625 2.64063,-0.5625 h 0.45312 q 1.79688,0 2.625,0.5625 0.84375,0.54688 0.84375,2.1875 z m -3.46875,-1.9375 h -0.45312 q -1.51563,0 -2.09375,0.32813 -0.5625,0.3125 -0.57813,1.42187 h 5.78125 q -0.0156,-1.10937 -0.59375,-1.42187 -0.5625,-0.32813 -2.0625,-0.32813 z"
         style=""
         id="path1106" />
      <path
         d="m 408.73047,418.84155 q -1.32813,0 -2,0.71875 -0.67188,0.70313 -0.67188,2.0625 v 3.1875 q 0,0.53125 -0.40625,0.53125 -0.40625,0 -0.40625,-0.53125 v -6.34375 q 0,-0.54687 0.375,-0.54687 0.4375,0 0.4375,0.5625 v 0.53125 q 0.92188,-0.98438 2.67188,-0.98438 h 0.45312 q 1.79688,0 2.625,0.5625 0.84375,0.54688 0.84375,2.1875 v 4.03125 q 0,0.53125 -0.39062,0.53125 -0.42188,0 -0.42188,-0.53125 v -4.01562 q 0,-0.67188 -0.14062,-1.0625 -0.125,-0.39063 -0.5,-0.57813 -0.35938,-0.20312 -0.79688,-0.25 -0.42187,-0.0625 -1.21875,-0.0625 z"
         style=""
         id="path1108" />
      <path
         d="m 419.83984,422.46655 q 0,1.26563 0.53125,1.60938 0.54688,0.34375 1.98438,0.34375 0.54687,0 0.54687,0.375 0,0.4375 -0.54687,0.4375 -1.6875,0 -2.51563,-0.5625 -0.8125,-0.5625 -0.8125,-2.1875 v -3.65625 q -0.48437,-0.0312 -0.48437,-0.42188 0,-0.34375 0.48437,-0.375 v -1.625 q 0,-0.5625 0.375,-0.5625 0.4375,0 0.4375,0.5625 v 1.625 h 2.15625 q 0.5625,0 0.5625,0.4375 0,0.375 -0.5625,0.375 h -2.15625 z"
         style=""
         id="path1110" />
      <path
         d="m 431.66797,421.4353 q -0.79688,0 -1.23438,0.0625 -0.42187,0.0469 -0.79687,0.25 -0.375,0.1875 -0.51563,0.57813 -0.125,0.39062 -0.125,1.0625 0,0.40625 0.26563,0.71875 0.26562,0.3125 0.59375,0.3125 h 1.45312 q 1.3125,0 1.98438,-0.70313 0.67187,-0.71875 0.67187,-2.04687 v -0.23438 z m 0,-0.8125 h 2.29687 v -0.89062 q 0,-0.48438 -0.1875,-0.6875 -0.17187,-0.20313 -0.67187,-0.20313 h -2.20313 q -1.90625,0 -1.90625,0.9375 0,0.54688 -0.42187,0.54688 -0.39063,0 -0.39063,-0.54688 0,-0.90625 0.71875,-1.32812 0.71875,-0.42188 1.89063,-0.42188 h 2.42187 q 0.90625,0 1.23438,0.4375 0.32812,0.4375 0.32812,1.53125 v 4.8125 q 0,0.53125 -0.40625,0.53125 -0.40625,0 -0.40625,-0.54687 v -0.54688 q -0.89062,0.98438 -2.65625,0.98438 h -1.45312 q -0.73438,0 -1.20313,-0.51563 -0.46875,-0.53125 -0.46875,-1.40625 0,-1.57812 0.84375,-2.125 0.85938,-0.5625 2.64063,-0.5625 z"
         style=""
         id="path1112" />
      <path
         d="m 443.04297,425.23218 h -0.10938 q -0.90625,0 -1.23437,-0.4375 -0.32813,-0.45313 -0.32813,-1.54688 v -7.51562 q 0,-0.54688 0.40625,-0.54688 0.40625,0 0.40625,0.54688 v 7.78125 q 0,0.5 0.17188,0.70312 0.1875,0.20313 0.6875,0.20313 0.54687,0 0.54687,0.42187 0,0.39063 -0.54687,0.39063 z"
         style=""
         id="path1114" />
      <path
         d="m 450.77734,425.23218 q -0.5,0 -0.84375,-0.14063 -0.32812,-0.15625 -0.48437,-0.42187 -0.14063,-0.28125 -0.1875,-0.54688 -0.0469,-0.26562 -0.0469,-0.625 0,-0.5625 0.40625,-0.5625 0.40625,0 0.40625,0.51563 0,0.53125 0.17188,0.75 0.1875,0.21875 0.6875,0.21875 h 3.875 q 0.92187,0 0.92187,-1.15625 0,-0.57813 -0.26562,-0.9375 -0.25,-0.375 -0.65625,-0.375 h -3.53125 q -2.01563,0 -2.01563,-2.03125 0,-0.9375 0.48438,-1.40625 0.48437,-0.48438 1.6875,-0.48438 h 3.51562 q 0.5,0 0.82813,0.15625 0.34375,0.14063 0.48437,0.42188 0.15625,0.28125 0.20313,0.54687 0.0469,0.26563 0.0469,0.625 0,0.54688 -0.40625,0.54688 -0.40625,0 -0.40625,-0.51563 0,-0.54687 -0.1875,-0.75 -0.1875,-0.21875 -0.67187,-0.21875 h -3.84375 q -0.92188,0 -0.92188,1.07813 0,0.59375 0.25,0.90625 0.26563,0.3125 0.67188,0.3125 h 3.54687 q 1.09375,0 1.54688,0.60937 0.45312,0.60938 0.45312,1.51563 0,0.96875 -0.5,1.46875 -0.48437,0.5 -1.65625,0.5 z"
         style=""
         id="path1116" />
    </g>
    <g
       aria-label="v a c a t i o n"
       transform="matrix(0.26458333,0,0,0.26458333,-68.056431,-80.724975)"
       style="font-style:normal;font-variant:normal;font-weight:normal;font-stretch:normal;font-size:16px;line-height:1.25;font-family:Jura;-inkscape-font-specification:Jura;letter-spacing:0px;word-spacing:0px;fill:#9f915a;fill-opacity:1;stroke:none"
       id="flowRoot1602">
      <path
         d="m 384.02734,425.23218 -2.8125,-6.8125 q -0.0625,-0.14063 -0.0625,-0.25 0,-0.32813 0.375,-0.32813 0.28125,0 0.4375,0.34375 l 2.6875,6.25 2.78125,-6.26562 q 0.14063,-0.32813 0.4375,-0.32813 0.375,0 0.375,0.3125 0,0.125 -0.0625,0.26563 l -3,6.8125 z"
         style=""
         id="path1087" />
      <path
         d="m 397.16797,421.4353 q -0.79688,0 -1.23438,0.0625 -0.42187,0.0469 -0.79687,0.25 -0.375,0.1875 -0.51563,0.57813 -0.125,0.39062 -0.125,1.0625 0,0.40625 0.26563,0.71875 0.26562,0.3125 0.59375,0.3125 h 1.45312 q 1.3125,0 1.98438,-0.70313 0.67187,-0.71875 0.67187,-2.04687 v -0.23438 z m 0,-0.8125 h 2.29687 v -0.89062 q 0,-0.48438 -0.1875,-0.6875 -0.17187,-0.20313 -0.67187,-0.20313 h -2.20313 q -1.90625,0 -1.90625,0.9375 0,0.54688 -0.42187,0.54688 -0.39063,0 -0.39063,-0.54688 0,-0.90625 0.71875,-1.32812 0.71875,-0.42188 1.89063,-0.42188 h 2.42187 q 0.90625,0 1.23438,0.4375 0.32812,0.4375 0.32812,1.53125 v 4.8125 q 0,0.53125 -0.40625,0.53125 -0.40625,0 -0.40625,-0.54687 v -0.54688 q -0.89062,0.98438 -2.65625,0.98438 h -1.45312 q -0.73438,0 -1.20313,-0.51563 -0.46875,-0.53125 -0.46875,-1.40625 0,-1.57812 0.84375,-2.125 0.85938,-0.5625 2.64063,-0.5625 z"
         style=""
         id="path1089" />
      <path
         d="m 412.12109,425.23218 h -2.20312 q -1.79688,0 -2.64063,-0.54688 -0.84375,-0.5625 -0.84375,-2.20312 v -1.70313 q 0,-1.64062 0.84375,-2.1875 0.84375,-0.5625 2.64063,-0.5625 h 2.20312 q 0.5,0 0.82813,0.15625 0.34375,0.14063 0.48437,0.42188 0.15625,0.28125 0.20313,0.54687 0.0469,0.26563 0.0469,0.625 0,0.54688 -0.40625,0.54688 -0.40625,0 -0.40625,-0.51563 0,-0.54687 -0.1875,-0.75 -0.1875,-0.21875 -0.67187,-0.21875 h -2.09375 q -0.79688,0 -1.23438,0.0625 -0.42187,0.0469 -0.79687,0.25 -0.375,0.1875 -0.51563,0.57813 -0.125,0.39062 -0.125,1.0625 v 1.67187 q 0,0.67188 0.125,1.0625 0.14063,0.39063 0.51563,0.59375 0.375,0.1875 0.79687,0.25 0.4375,0.0469 1.23438,0.0469 h 2.09375 q 0.5,0 0.67187,-0.21875 0.1875,-0.21875 0.1875,-0.75 0,-0.51563 0.40625,-0.51563 0.40625,0 0.40625,0.5625 0,0.35938 -0.0469,0.625 -0.0469,0.26563 -0.20313,0.54688 -0.14062,0.26562 -0.48437,0.42187 -0.32813,0.14063 -0.82813,0.14063 z"
         style=""
         id="path1091" />
      <path
         d="m 423.07422,421.4353 q -0.79688,0 -1.23438,0.0625 -0.42187,0.0469 -0.79687,0.25 -0.375,0.1875 -0.51563,0.57813 -0.125,0.39062 -0.125,1.0625 0,0.40625 0.26563,0.71875 0.26562,0.3125 0.59375,0.3125 h 1.45312 q 1.3125,0 1.98438,-0.70313 0.67187,-0.71875 0.67187,-2.04687 v -0.23438 z m 0,-0.8125 h 2.29687 v -0.89062 q 0,-0.48438 -0.1875,-0.6875 -0.17187,-0.20313 -0.67187,-0.20313 h -2.20313 q -1.90625,0 -1.90625,0.9375 0,0.54688 -0.42187,0.54688 -0.39063,0 -0.39063,-0.54688 0,-0.90625 0.71875,-1.32812 0.71875,-0.42188 1.89063,-0.42188 h 2.42187 q 0.90625,0 1.23438,0.4375 0.32812,0.4375 0.32812,1.53125 v 4.8125 q 0,0.53125 -0.40625,0.53125 -0.40625,0 -0.40625,-0.54687 v -0.54688 q -0.89062,0.98438 -2.65625,0.98438 h -1.45312 q -0.73438,0 -1.20313,-0.51563 -0.46875,-0.53125 -0.46875,-1.40625 0,-1.57812 0.84375,-2.125 0.85938,-0.5625 2.64063,-0.5625 z"
         style=""
         id="path1093" />
      <path
         d="m 433.40234,422.46655 q 0,1.26563 0.53125,1.60938 0.54688,0.34375 1.98438,0.34375 0.54687,0 0.54687,0.375 0,0.4375 -0.54687,0.4375 -1.6875,0 -2.51563,-0.5625 -0.8125,-0.5625 -0.8125,-2.1875 v -3.65625 q -0.48437,-0.0312 -0.48437,-0.42188 0,-0.34375 0.48437,-0.375 v -1.625 q 0,-0.5625 0.375,-0.5625 0.4375,0 0.4375,0.5625 v 1.625 h 2.15625 q 0.5625,0 0.5625,0.4375 0,0.375 -0.5625,0.375 h -2.15625 z"
         style=""
         id="path1095" />
      <path
         d="m 442.35547,425.41968 q -0.39063,0 -0.39063,-0.5 v -6.5625 q 0,-0.51563 0.40625,-0.51563 0.40625,0 0.40625,0.51563 v 6.5625 q 0,0.5 -0.42187,0.5 z m 0.0156,-10.21875 q 0.25,0 0.51563,0.1875 0.28125,0.1875 0.28125,0.45312 0,0.26563 -0.28125,0.45313 -0.26563,0.1875 -0.51563,0.1875 -0.26562,0 -0.53125,-0.1875 -0.26562,-0.1875 -0.26562,-0.45313 0,-0.26562 0.26562,-0.45312 0.26563,-0.1875 0.53125,-0.1875 z"
         style=""
         id="path1097" />
      <path
         d="m 452.90234,425.23218 h -0.45312 q -1.79688,0 -2.64063,-0.54688 -0.84375,-0.5625 -0.84375,-2.20312 v -1.70313 q 0,-1.64062 0.84375,-2.1875 0.84375,-0.5625 2.64063,-0.5625 h 0.45312 q 1.79688,0 2.625,0.5625 0.84375,0.54688 0.84375,2.1875 v 1.70313 q 0,1.64062 -0.84375,2.20312 -0.82812,0.54688 -2.625,0.54688 z m -0.45312,-0.8125 h 0.45312 q 0.79688,0 1.21875,-0.0469 0.4375,-0.0625 0.79688,-0.25 0.375,-0.20312 0.5,-0.59375 0.14062,-0.39062 0.14062,-1.0625 v -1.67187 q 0,-0.67188 -0.14062,-1.0625 -0.125,-0.39063 -0.5,-0.57813 -0.35938,-0.20312 -0.79688,-0.25 -0.42187,-0.0625 -1.21875,-0.0625 h -0.45312 q -0.79688,0 -1.23438,0.0625 -0.42187,0.0469 -0.79687,0.25 -0.375,0.1875 -0.51563,0.57813 -0.125,0.39062 -0.125,1.0625 v 1.67187 q 0,0.67188 0.125,1.0625 0.14063,0.39063 0.51563,0.59375 0.375,0.1875 0.79687,0.25 0.4375,0.0469 1.23438,0.0469 z"
         style=""
         id="path1099" />
      <path
         d="m 466.04297,418.84155 q -1.32813,0 -2,0.71875 -0.67188,0.70313 -0.67188,2.0625 v 3.1875 q 0,0.53125 -0.40625,0.53125 -0.40625,0 -0.40625,-0.53125 v -6.34375 q 0,-0.54687 0.375,-0.54687 0.4375,0 0.4375,0.5625 v 0.53125 q 0.92188,-0.98438 2.67188,-0.98438 h 0.45312 q 1.79688,0 2.625,0.5625 0.84375,0.54688 0.84375,2.1875 v 4.03125 q 0,0.53125 -0.39062,0.53125 -0.42188,0 -0.42188,-0.53125 v -4.01562 q 0,-0.67188 -0.14062,-1.0625 -0.125,-0.39063 -0.5,-0.57813 -0.35938,-0.20312 -0.79688,-0.25 -0.42187,-0.0625 -1.21875,-0.0625 z"
         style=""
         id="path1101" />
    </g>
  </g>
</svg>
