<svg width="4.377mm" height="5.3622mm" version="1.1" viewBox="0 0 4.377 5.3622" xmlns="http://www.w3.org/2000/svg">
 <g transform="translate(-8.8501 -165.34)" fill="#9f915a">
  <path d="m10.508 165.64c-0.10618 0.0705-0.22825 0.13052-0.3429 0.24342-0.1203 0.10229-0.25082 0.2187-0.38312 0.3457-0.13582 0.127-0.24518 0.2893-0.36724 0.45157-0.1277 0.15523-0.2219 0.34925-0.31644 0.54681-0.11007 0.1905-0.14217 0.42334-0.20532 0.63852-0.02963 0.10935-0.02294 0.22932-0.03422 0.34219-0.0053 0.11641-0.01834 0.22931 0.0035 0.34221 0.0141 0.11287 0.03069 0.22225 0.05045 0.3316 0.02681 0.10935 0.06703 0.20815 0.09948 0.31044 0.05962 0.20463 0.17709 0.37748 0.27376 0.53623 0.1083 0.15523 0.21943 0.29281 0.33867 0.40217 0.10724 0.11993 0.23142 0.2046 0.33126 0.28575 0.1083 0.0706 0.20144 0.13051 0.28399 0.17285 0.16192 0.0847 0.26458 0.11641 0.26458 0.11641s-0.06527-0.0847-0.16263-0.23283c-0.10019-0.14462-0.23319-0.35277-0.36301-0.60677-0.0695-0.12348-0.12277-0.26458-0.1845-0.40923-0.03281-0.0705-0.04692-0.15168-0.07126-0.22577-0.02257-0.0776-0.05221-0.15168-0.06103-0.23283-0.01236-0.0812-0.03281-0.16227-0.04269-0.24342 0-0.0812-0.0028-0.16581-0.01024-0.24693-0.0141-0.0847 0.0092-0.16934 0.0127-0.25048 0.01236-0.0847 0.0039-0.16934 0.02893-0.254 0.05045-0.16582 0.06103-0.33867 0.14006-0.49742 0.07055-0.15875 0.10795-0.3316 0.20567-0.47977 0.09031-0.14465 0.14534-0.31046 0.23707-0.4445 0.09172-0.13055 0.1711-0.26458 0.24483-0.38806 0.0695-0.127 0.16016-0.2399 0.23072-0.33867 0.07373-0.0988 0.13229-0.19402 0.18203-0.2681 0.09737-0.15172 0.14781-0.24342 0.14781-0.24342s-0.0949 0.0459-0.25329 0.13404c-0.07761 0.0423-0.17392 0.0952-0.27764 0.16229"/>
  <path d="m13.218 168.21c-0.0113-0.11287-0.0042-0.23284-0.03281-0.34219-0.06385-0.21518-0.09525-0.44802-0.20532-0.63852-0.09349-0.19756-0.18838-0.39158-0.31609-0.54681-0.12206-0.16227-0.23142-0.32808-0.36654-0.44802-0.12947-0.13055-0.25823-0.2399-0.37747-0.34221-0.11183-0.10935-0.24059-0.17992-0.34678-0.24694-0.10583-0.0706-0.20356-0.12348-0.28258-0.16581-0.15769-0.0917-0.25153-0.13404-0.25153-0.13404s0.05221 0.0952 0.14887 0.24342c0.04939 0.0776 0.10689 0.16933 0.17815 0.2681 0.06914 0.0988 0.15416 0.2046 0.22648 0.3316 0.07585 0.127 0.15558 0.26107 0.24871 0.39513 0.09525 0.13404 0.14817 0.29985 0.24059 0.44802 0.09702 0.14465 0.133 0.3175 0.20356 0.47625 0.07902 0.15875 0.09031 0.3316 0.14076 0.49742 0.02681 0.0847 0.01728 0.16933 0.02963 0.254 0.0042 0.0811 0.02681 0.16581 0.01304 0.25048-0.0067 0.0811-0.0095 0.16578-0.0095 0.24693-0.0085 0.0812-0.02963 0.16227-0.04269 0.24342-0.0095 0.0811-0.0374 0.15523-0.06103 0.23283-0.02506 0.0776-0.0381 0.15523-0.0702 0.22577-0.06456 0.14465-0.11571 0.28575-0.18627 0.40923-0.12912 0.254-0.26317 0.46567-0.36301 0.60677-0.09737 0.14817-0.16298 0.23283-0.16298 0.23283s0.10089-0.0317 0.26388-0.11641c0.0829-0.0423 0.17639-0.10229 0.28363-0.17637 0.09913-0.0776 0.22472-0.1623 0.33196-0.28223 0.11783-0.10936 0.23036-0.24694 0.33761-0.40217 0.09631-0.16227 0.21484-0.3316 0.27481-0.53623 0.03246-0.10229 0.07232-0.20109 0.09913-0.31044 0.01939-0.10935 0.03775-0.21873 0.0508-0.3316 0.02151-0.1129 0.0092-0.2258 0.0032-0.34221"/>
 </g>
</svg>
